<svg xmlns="http://www.w3.org/2000/svg" width="15.315" height="11.487" viewBox="0 0 15.315 11.487">
  <path id="Icon_awesome-hand-point-right" data-name="Icon awesome-hand-point-right" d="M15.315,8.558a1.349,1.349,0,0,1-1.34,1.311H10.988a1.471,1.471,0,0,1-.188,2.122,1.37,1.37,0,0,1-.492,1.864c.268,1.47-.656,2.132-2.172,2.132-.082,0-.4-.006-.479-.006-1.854.005-2.3-.929-3.7-1.146a.717.717,0,0,1-.606-.709V8.995h0A1.436,1.436,0,0,1,4.2,7.683c.864-.389,2.854-1.467,3.217-2.313a1.275,1.275,0,0,1,1.2-.87,1.437,1.437,0,0,1,1.32,2,4.066,4.066,0,0,1-.423.745h4.464A1.371,1.371,0,0,1,15.315,8.558Zm-12.444.01v5.743a.718.718,0,0,1-.718.718H.718A.718.718,0,0,1,0,14.311V8.568A.718.718,0,0,1,.718,7.85H2.154A.718.718,0,0,1,2.872,8.568Zm-.838,5.025a.6.6,0,1,0-.6.6A.6.6,0,0,0,2.034,13.594Z" transform="translate(0 -4.5)" fill="#041231"/>
</svg>
