<svg xmlns="http://www.w3.org/2000/svg" width="22" height="22" viewBox="0 0 22 22">
  <g id="그룹_1201" data-name="그룹 1201" transform="translate(-531.5 -1037)">
    <g id="Icon_feather-pen-tool" data-name="Icon feather-pen-tool" transform="translate(531.5 1037)">
      <path id="패스_35" data-name="패스 35" d="M20.4,27a1,1,0,0,1-.707-.293l-2.4-2.4a1,1,0,0,1,0-1.414l5.6-5.6a1,1,0,0,1,1.414,0l2.4,2.4a1,1,0,0,1,0,1.414l-5.6,5.6A1,1,0,0,1,20.4,27Zm-.986-3.4.986.986L24.586,20.4l-.986-.986Z" transform="translate(-7 -7)" fill="#979797"/>
      <path id="패스_36" data-name="패스 36" d="M11.8,16.8a1,1,0,0,1-.2-.019l-6-1.2a1,1,0,0,1-.776-.746l-2.8-11.6A1,1,0,0,1,3.235,2.028l11.6,2.8a1,1,0,0,1,.746.776l1.2,6a1,1,0,0,1-.273.9l-4,4A1,1,0,0,1,11.8,16.8ZM6.622,13.745l4.849.97,3.243-3.243-.97-4.849L4.356,4.356Z" transform="translate(0 0)" fill="#979797"/>
      <path id="패스_37" data-name="패스 37" d="M9.069,10.069a1,1,0,0,1-.707-.293L2.293,3.707A1,1,0,0,1,3.707,2.293L9.776,8.362a1,1,0,0,1-.707,1.707Z" transform="translate(0 0)" fill="#979797"/>
      <path id="패스_38" data-name="패스 38" d="M15.1,12.5a2.6,2.6,0,1,1-2.6,2.6A2.6,2.6,0,0,1,15.1,12.5Zm0,3.2a.6.6,0,1,0-.6-.6A.6.6,0,0,0,15.1,15.7Z" transform="translate(-4.9 -4.9)" fill="#979797"/>
    </g>
    <rect id="사각형_588" data-name="사각형 588" width="22" height="22" transform="translate(531.5 1037)" fill="none"/>
  </g>
</svg>
