<svg xmlns="http://www.w3.org/2000/svg" width="24" height="24" viewBox="0 0 24 24">
  <g id="그룹_1422" data-name="그룹 1422" transform="translate(-852 -1079)">
    <rect id="사각형_599" data-name="사각형 599" width="24" height="24" transform="translate(852 1079)" fill="rgba(255,255,255,0)"/>
    <g id="Icon_ionic-ios-people" data-name="Icon ionic-ios-people" transform="translate(852.965 1077.38)">
      <path id="패스_74" data-name="패스 74" d="M17.553,16.784c-.451-.161-1.187-.169-1.513-.294a2.138,2.138,0,0,1-.7-.326,4.327,4.327,0,0,1-.117-1.147,1.853,1.853,0,0,0,.4-.563,6.262,6.262,0,0,0,.193-1.107s.266.113.37-.419c.089-.459.258-.7.213-1.038s-.233-.258-.233-.258a3.014,3.014,0,0,0,.233-1.505,2.408,2.408,0,0,0-2.6-2.379,2.417,2.417,0,0,0-2.6,2.379,3.058,3.058,0,0,0,.229,1.505s-.189-.08-.233.258.121.58.213,1.038c.1.535.37.419.37.419a6.322,6.322,0,0,0,.193,1.107,1.853,1.853,0,0,0,.4.563,4.327,4.327,0,0,1-.117,1.147,2.057,2.057,0,0,1-.7.322c-.322.125-1.058.141-1.513.3a2.84,2.84,0,0,0-1.843,2.7h11.2A2.835,2.835,0,0,0,17.553,16.784Z" transform="translate(-2.556 0)"/>
      <path id="패스_75" data-name="패스 75" d="M6.581,16.3a2.732,2.732,0,0,0,1.344-.374c-.624-.946-.286-2.048-.415-3.079a1.7,1.7,0,0,0-1.879-1.642H5.616A1.7,1.7,0,0,0,3.752,12.85c-.129,1.026.229,2.254-.411,3.079a2.528,2.528,0,0,0,1.348.334h0a2.038,2.038,0,0,1-.04.676,1.016,1.016,0,0,1-.483.221,9.338,9.338,0,0,0-1.042.29,1.694,1.694,0,0,0-.91,1.5H5.447a2.891,2.891,0,0,1,1.288-1.2,2.7,2.7,0,0,1,.994-.209s.153-.241-.35-.334a3.431,3.431,0,0,1-.773-.27C6.529,16.846,6.581,16.3,6.581,16.3Z" transform="translate(0 -1.479)"/>
      <path id="패스_76" data-name="패스 76" d="M25.152,16.3a2.732,2.732,0,0,1-1.344-.374c.624-.946.286-2.048.415-3.079A1.7,1.7,0,0,1,26.1,11.208h.016a1.7,1.7,0,0,1,1.863,1.642c.129,1.026-.229,2.254.411,3.079a2.528,2.528,0,0,1-1.348.334h0a2.038,2.038,0,0,0,.04.676,1.016,1.016,0,0,0,.483.221,9.338,9.338,0,0,1,1.042.29,1.694,1.694,0,0,1,.91,1.5H26.287A2.891,2.891,0,0,0,25,17.748a2.7,2.7,0,0,0-.994-.209s-.153-.241.35-.334a3.431,3.431,0,0,0,.773-.27C25.2,16.846,25.152,16.3,25.152,16.3Z" transform="translate(-9.234 -1.479)"/>
    </g>
  </g>
</svg>
