<svg xmlns="http://www.w3.org/2000/svg" width="24" height="24" viewBox="0 0 24 24">
  <g id="그룹_1353" data-name="그룹 1353" transform="translate(-816 -244)">
    <rect id="사각형_605" data-name="사각형 605" width="24" height="24" transform="translate(816 244)" fill="rgba(255,255,255,0)"/>
    <path id="Icon_material-question-answer" data-name="Icon material-question-answer" d="M18.088,5.976H16.5v6.7H6.176v1.488a.773.773,0,0,0,.794.744h8.735l3.176,2.976V6.721A.773.773,0,0,0,18.088,5.976Zm-3.176,4.465v-6.7A.773.773,0,0,0,14.118,3H3.794A.773.773,0,0,0,3,3.744V14.162l3.176-2.976h7.941A.773.773,0,0,0,14.912,10.441Z" transform="translate(817.059 246.223)" fill="#041231"/>
  </g>
</svg>
