<svg xmlns="http://www.w3.org/2000/svg" width="17" height="17" viewBox="0 0 17 17">
  <path id="Icon_awesome-link" data-name="Icon awesome-link" d="M10.845,6.156a5.044,5.044,0,0,1,.012,7.125l-.012.012L8.613,15.524A5.047,5.047,0,0,1,1.476,8.387L2.708,7.155a.531.531,0,0,1,.906.352,6.118,6.118,0,0,0,.322,1.75.534.534,0,0,1-.126.552l-.435.435a2.391,2.391,0,1,0,3.359,3.4l2.231-2.231a2.39,2.39,0,0,0,0-3.381,2.487,2.487,0,0,0-.343-.285.532.532,0,0,1-.231-.419,1.323,1.323,0,0,1,.388-.99l.7-.7a.533.533,0,0,1,.683-.057,5.063,5.063,0,0,1,.681.571Zm4.679-4.68a5.052,5.052,0,0,0-7.137,0L6.155,3.707l-.012.012a5.048,5.048,0,0,0,.693,7.7.533.533,0,0,0,.683-.057l.7-.7a1.323,1.323,0,0,0,.388-.99.532.532,0,0,0-.231-.419,2.487,2.487,0,0,1-.343-.285,2.39,2.39,0,0,1,0-3.381l2.231-2.231a2.391,2.391,0,1,1,3.359,3.4l-.435.435a.534.534,0,0,0-.126.552,6.118,6.118,0,0,1,.322,1.75.531.531,0,0,0,.906.352l1.232-1.232a5.052,5.052,0,0,0,0-7.137Z" transform="translate(0 0)" fill="#afafaf"/>
</svg>
