<svg xmlns="http://www.w3.org/2000/svg" width="25" height="25" viewBox="0 0 25 25">
  <g id="그룹_1502" data-name="그룹 1502" transform="translate(-360.374 -422.238)">
    <path id="Icon_ionic-ios-lock" data-name="Icon ionic-ios-lock" d="M20.986,10.7h-1.22V8.322A4.881,4.881,0,1,0,10,8.256V10.7H8.784A2.04,2.04,0,0,0,6.75,12.73v9.762a2.04,2.04,0,0,0,2.034,2.034h12.2a2.04,2.04,0,0,0,2.034-2.034V12.73A2.04,2.04,0,0,0,20.986,10.7ZM15.6,17.041v3.5a.729.729,0,0,1-.676.732.713.713,0,0,1-.747-.712V17.041a1.627,1.627,0,1,1,1.424,0ZM18.342,10.7H11.427V8.256a3.457,3.457,0,0,1,6.914,0Z" transform="translate(357.989 420.789)" fill="#afafaf"/>
    <g id="그룹_1501" data-name="그룹 1501" transform="translate(-1.626 -19.761)">
      <rect id="사각형_637" data-name="사각형 637" width="25" height="25" transform="translate(362 442)" fill="none"/>
    </g>
  </g>
</svg>
