<svg xmlns="http://www.w3.org/2000/svg" width="24" height="24" viewBox="0 0 24 24">
  <g id="그룹_1373" data-name="그룹 1373" transform="translate(-315 -244)">
    <rect id="사각형_597" data-name="사각형 597" width="24" height="24" transform="translate(315 244)" fill="rgba(255,255,255,0)"/>
    <g id="그룹_1267" data-name="그룹 1267" transform="translate(319.484 247.044)">
      <g id="Icon_feather-monitor" data-name="Icon feather-monitor" transform="translate(0 2.368)">
        <path id="패스_66" data-name="패스 66" d="M4.5,4.5H16.529a1.5,1.5,0,0,1,1.5,1.5V13.52a1.5,1.5,0,0,1-1.5,1.5H4.5A1.5,1.5,0,0,1,3,13.52V6A1.5,1.5,0,0,1,4.5,4.5Z" transform="translate(-3 -4.5)"/>
        <path id="패스_66_-_윤곽선" data-name="패스 66 - 윤곽선" d="M4.5,3.5H16.529a2.506,2.506,0,0,1,2.5,2.5V13.52a2.506,2.506,0,0,1-2.5,2.5H4.5A2.506,2.506,0,0,1,2,13.52V6A2.506,2.506,0,0,1,4.5,3.5ZM16.529,14.023a.5.5,0,0,0,.5-.5V6a.5.5,0,0,0-.5-.5H4.5A.5.5,0,0,0,4,6V13.52a.5.5,0,0,0,.5.5Z" transform="translate(-3 -4.5)"/>
        <path id="패스_67" data-name="패스 67" d="M12,31.5h6.013" transform="translate(-7.49 -17.971)"/>
        <path id="패스_67_-_윤곽선" data-name="패스 67 - 윤곽선" d="M18.013,32.5H12a1,1,0,0,1,0-2h6.013a1,1,0,0,1,0,2Z" transform="translate(-7.49 -17.971)"/>
        <path id="패스_68" data-name="패스 68" d="M18,25.5v3.007" transform="translate(-10.484 -14.977)"/>
        <path id="패스_68_-_윤곽선" data-name="패스 68 - 윤곽선" d="M18,29.507a1,1,0,0,1-1-1V25.5a1,1,0,0,1,2,0v3.007A1,1,0,0,1,18,29.507Z" transform="translate(-10.484 -14.977)"/>
      </g>
      <path id="Icon_awesome-pen" data-name="Icon awesome-pen" d="M5.542,1.778l2.44,2.44-5.3,5.3-2.176.24A.458.458,0,0,1,0,9.252L.244,7.075l5.3-5.3Zm3.95-.363L8.346.269a.915.915,0,0,0-1.295,0L5.542,1.778l2.44,2.44L9.492,2.709a.915.915,0,0,0,0-1.295Z" transform="translate(4.135 -0.001)"/>
      <path id="Icon_awesome-pen_-_윤곽선" data-name="Icon awesome-pen - 윤곽선" d="M7.7-1a1.9,1.9,0,0,1,1.354.561L10.2.707a1.918,1.918,0,0,1,0,2.709L3.142,10.473l-2.525.279A1.458,1.458,0,0,1-.992,9.142l.281-2.526L4.128,1.778h0L6.344-.439A1.9,1.9,0,0,1,7.7-1ZM8.725,2.062,7.7,1.036l-.742.742L7.982,2.8ZM6.568,4.218,5.542,3.192,1.2,7.534,1.071,8.689l1.153-.127Z" transform="translate(4.135 -0.001)" fill="#fff"/>
    </g>
  </g>
</svg>
