<svg xmlns="http://www.w3.org/2000/svg" width="24" height="24" viewBox="0 0 24 24">
  <g id="그룹_1372" data-name="그룹 1372" transform="translate(-169 -244)">
    <rect id="사각형_596" data-name="사각형 596" width="24" height="24" transform="translate(169 244)" fill="rgba(255,255,255,0)"/>
    <g id="그룹_1264" data-name="그룹 1264" transform="translate(169.662 244.993)">
      <g id="description_black_24dp" transform="translate(0 0)">
        <path id="패스_22" data-name="패스 22" d="M0,0H18.206V17.206H0Z" fill="none"/>
        <path id="패스_23" data-name="패스 23" d="M11.794,2H5.559A1.5,1.5,0,0,0,4.008,3.434L4,14.9a1.5,1.5,0,0,0,1.551,1.434h9.361A1.5,1.5,0,0,0,16.471,14.9V6.3Zm1.559,11.471H7.118V12.037h6.235Zm0-2.868H7.118V9.169h6.235ZM11.015,7.018V3.075L15.3,7.018Z" transform="translate(-1.132 -0.566)" fill="#041231"/>
      </g>
      <path id="Icon_material-person" data-name="Icon material-person" d="M10.632,10.632A2.316,2.316,0,1,0,8.316,8.316,2.316,2.316,0,0,0,10.632,10.632Zm0,1.158C9.086,11.79,6,12.566,6,14.107v1.158h9.265V14.107C15.265,12.566,12.178,11.79,10.632,11.79Z" transform="translate(4.926 2.272)"/>
      <path id="Icon_material-person_-_윤곽선" data-name="Icon material-person - 윤곽선" d="M10.632,6a2.316,2.316,0,1,0,2.316,2.316A2.316,2.316,0,0,0,10.632,6m0,5.79C9.086,11.79,6,12.566,6,14.107v1.158h9.265V14.107c0-1.54-3.086-2.316-4.632-2.316m0-7.79a4.315,4.315,0,0,1,3.7,6.538c2.551,1.044,2.933,2.681,2.933,3.568v3.158H4V14.107c0-.887.383-2.524,2.933-3.568A4.315,4.315,0,0,1,10.632,4Z" transform="translate(4.926 2.272)" fill="#fff"/>
    </g>
  </g>
</svg>
