<svg xmlns="http://www.w3.org/2000/svg" width="55" height="55" viewBox="0 0 55 55">
  <g id="그룹_35" data-name="그룹 35" transform="translate(-241.5 -98.5)">
    <circle id="타원_2" data-name="타원 2" cx="27.5" cy="27.5" r="27.5" transform="translate(241.5 98.5)" fill="none"/>
    <path id="Icon_material-question-answer" data-name="Icon material-question-answer" d="M27.632,8.186H25.039V19.854H8.186v2.593a1.3,1.3,0,0,0,1.3,1.3H23.743l5.186,5.186V9.482A1.3,1.3,0,0,0,27.632,8.186Zm-5.186,7.779V4.3A1.3,1.3,0,0,0,21.15,3H4.3A1.3,1.3,0,0,0,3,4.3v18.15l5.186-5.186H21.15A1.3,1.3,0,0,0,22.446,15.964Z" transform="translate(252.91 109.91)" fill="#041231"/>
  </g>
</svg>
