<svg xmlns="http://www.w3.org/2000/svg" width="24" height="24" viewBox="0 0 24 24">
  <g id="그룹_1217" data-name="그룹 1217" transform="translate(-26 -247)">
    <g id="savings_black_24dp" transform="translate(29 250)">
      <rect id="사각형_322" data-name="사각형 322" width="18" height="18" fill="none"/>
      <g id="그룹_148" data-name="그룹 148" transform="translate(1.5 1.5)">
        <path id="패스_21" data-name="패스 21" d="M15.372,6.125l-1.7-1.7a4.015,4.015,0,0,1,.24-.863A1.05,1.05,0,0,0,14,3.125,1.123,1.123,0,0,0,12.875,2a3.746,3.746,0,0,0-3,1.5H6.125A4.123,4.123,0,0,0,2,7.625C2,9.9,3.875,16.25,3.875,16.25H8v-1.5H9.5v1.5h4.125l1.26-4.193,2.115-.7V6.125ZM10.25,7.25H6.5V5.75h3.75Zm2.25,1.5A.75.75,0,1,1,13.25,8,.752.752,0,0,1,12.5,8.75Z" transform="translate(-2 -2)" fill="#041231"/>
      </g>
    </g>
    <rect id="사각형_590" data-name="사각형 590" width="24" height="24" transform="translate(26 247)" fill="rgba(255,255,255,0)"/>
  </g>
</svg>
