<svg xmlns="http://www.w3.org/2000/svg" width="24.003" height="24" viewBox="0 0 24.003 24">
  <g transform="translate(-44.247 -20.75)">
    <path id="Icon_ionic-ios-close" data-name="Icon ionic-ios-close" d="M25.51,22.789l8.215-8.217A1.925,1.925,0,0,0,31,11.849l-8.215,8.217-8.215-8.217a1.925,1.925,0,1,0-2.722,2.723l8.215,8.217-8.215,8.217a1.925,1.925,0,0,0,2.722,2.723l8.215-8.217L31,33.728a1.925,1.925,0,0,0,2.722-2.723Z" transform="translate(33.462 9.961)" fill="#041231"/>
    <path id="Icon_ionic-ios-close_-_윤곽선" data-name="Icon ionic-ios-close - 윤곽선" d="M32.364,34.789a2.407,2.407,0,0,1-1.715-.707l-7.861-7.863-7.861,7.863a2.425,2.425,0,1,1-3.429-3.43l7.861-7.863L11.5,14.925a2.425,2.425,0,0,1,3.429-3.43l7.861,7.863L30.649,11.5a2.425,2.425,0,0,1,3.429,3.43l-7.861,7.863,7.861,7.863a2.422,2.422,0,0,1-1.715,4.137ZM22.788,24.8l8.568,8.571a1.425,1.425,0,0,0,2.015-2.016L24.8,22.789l8.568-8.57A1.425,1.425,0,0,0,31.356,12.2l-8.568,8.571L14.22,12.2A1.425,1.425,0,1,0,12.2,14.218l8.568,8.57L12.2,31.359a1.425,1.425,0,0,0,2.015,2.016Z" transform="translate(33.462 9.961)" fill="#fff"/>
  </g>
</svg>
