<svg xmlns="http://www.w3.org/2000/svg" width="24" height="24" viewBox="0 0 24 24">
  <g id="그룹_1219" data-name="그룹 1219" transform="translate(-26 -145)">
    <g id="menu_book_black_24dp" transform="translate(29.333 146.333)">
      <g id="그룹_144" data-name="그룹 144">
        <rect id="사각형_321" data-name="사각형 321" width="18" height="18" transform="translate(-0.333 -0.333)" fill="none"/>
      </g>
      <g id="그룹_147" data-name="그룹 147" transform="translate(0.722 3.25)">
        <g id="그룹_146" data-name="그룹 146">
          <path id="패스_17" data-name="패스 17" d="M15.444,4.861A8.526,8.526,0,0,0,12.917,4.5,6.717,6.717,0,0,0,8.944,5.583,6.717,6.717,0,0,0,4.972,4.5,6.717,6.717,0,0,0,1,5.583V16.164a.388.388,0,0,0,.361.361c.072,0,.108-.036.181-.036a8.815,8.815,0,0,1,3.431-.794,6.717,6.717,0,0,1,3.972,1.083,8.7,8.7,0,0,1,3.972-1.083,7.351,7.351,0,0,1,3.431.758.326.326,0,0,0,.181.036.388.388,0,0,0,.361-.361V5.583A4.926,4.926,0,0,0,15.444,4.861Zm0,9.75a8.392,8.392,0,0,0-2.528-.361,8.7,8.7,0,0,0-3.972,1.083V7.028a8.7,8.7,0,0,1,3.972-1.083,8.392,8.392,0,0,1,2.528.361Z" transform="translate(-1 -4.5)" fill="#041231"/>
          <g id="그룹_145" data-name="그룹 145" transform="translate(8.667 3.25)">
            <path id="패스_18" data-name="패스 18" d="M16.25,10.083a8.446,8.446,0,0,1,1.806.188v-1.1A9.752,9.752,0,0,0,16.25,9,8.311,8.311,0,0,0,13,9.6v1.2A6.7,6.7,0,0,1,16.25,10.083Z" transform="translate(-13 -9)" fill="#041231"/>
            <path id="패스_19" data-name="패스 19" d="M13,12.259v1.2a6.7,6.7,0,0,1,3.25-.715,8.446,8.446,0,0,1,1.806.188v-1.1a9.752,9.752,0,0,0-1.806-.173A8.444,8.444,0,0,0,13,12.259Z" transform="translate(-13 -9.739)" fill="#041231"/>
            <path id="패스_20" data-name="패스 20" d="M16.25,14.33a8.311,8.311,0,0,0-3.25.6v1.2a6.7,6.7,0,0,1,3.25-.715,8.446,8.446,0,0,1,1.806.188V14.5A9.17,9.17,0,0,0,16.25,14.33Z" transform="translate(-13 -10.481)" fill="#041231"/>
          </g>
        </g>
      </g>
    </g>
    <rect id="사각형_590" data-name="사각형 590" width="24" height="24" transform="translate(26 145)" fill="rgba(255,255,255,0)"/>
  </g>
</svg>
