<svg xmlns="http://www.w3.org/2000/svg" width="25" height="25" viewBox="0 0 25 25">
  <g id="그룹_1501" data-name="그룹 1501" transform="translate(-362 -442)">
    <rect id="사각형_637" data-name="사각형 637" width="25" height="25" transform="translate(362 442)" fill="none"/>
    <path id="Icon_ionic-ios-person" data-name="Icon ionic-ios-person" d="M24.013,23.53c-.366-1.617-2.456-2.4-3.178-2.659a23.691,23.691,0,0,0-2.649-.508,2.691,2.691,0,0,1-1.225-.564,10.709,10.709,0,0,1-.081-2.506,7.541,7.541,0,0,0,.58-1.1,14.231,14.231,0,0,0,.427-1.927s.417,0,.564-.732a7.2,7.2,0,0,0,.376-1.7c-.031-.585-.351-.569-.351-.569a8.914,8.914,0,0,0,.346-2.608c.046-2.09-1.591-4.149-4.555-4.149-3,0-4.606,2.059-4.56,4.149a9.3,9.3,0,0,0,.341,2.608s-.32-.015-.351.569a7.2,7.2,0,0,0,.376,1.7c.142.732.564.732.564.732a14.23,14.23,0,0,0,.427,1.927,7.541,7.541,0,0,0,.58,1.1,10.708,10.708,0,0,1-.081,2.506,2.691,2.691,0,0,1-1.225.564,23.691,23.691,0,0,0-2.649.508c-.722.254-2.812,1.042-3.178,2.659a.406.406,0,0,0,.4.493h18.7A.406.406,0,0,0,24.013,23.53Z" transform="translate(360.238 440.238)" fill="#afafaf"/>
  </g>
</svg>
