<svg xmlns="http://www.w3.org/2000/svg" width="24" height="24" viewBox="0 0 24 24">
  <g id="그룹_1215" data-name="그룹 1215" transform="translate(-26 -349)">
    <g id="headset_mic_black_24dp" transform="translate(29 351)">
      <path id="패스_1" data-name="패스 1" d="M0,0H18V18H0Z" fill="none" opacity="0.1"/>
      <path id="패스_2" data-name="패스 2" d="M9.75,1A6.751,6.751,0,0,0,3,7.75V13a2.247,2.247,0,0,0,2.25,2.25H7.5v-6h-3V7.75a5.25,5.25,0,0,1,10.5,0v1.5H12v6h3V16H9.75v1.5h4.5a2.247,2.247,0,0,0,2.25-2.25V7.75A6.751,6.751,0,0,0,9.75,1Z" transform="translate(-0.75 -0.25)" fill="#041231"/>
    </g>
    <rect id="사각형_590" data-name="사각형 590" width="24" height="24" transform="translate(26 349)" fill="rgba(255,255,255,0)"/>
  </g>
</svg>
