<svg xmlns="http://www.w3.org/2000/svg" width="24" height="24" viewBox="0 0 24 24">
  <g id="그룹_1212" data-name="그룹 1212" transform="translate(-26 -502)">
    <g id="settings_black_24dp" transform="translate(29 504)">
      <path id="패스_30" data-name="패스 30" d="M0,0H18V18H0Z" fill="none"/>
      <path id="패스_31" data-name="패스 31" d="M15.02,10.305a5.306,5.306,0,0,0,.045-.7,4.333,4.333,0,0,0-.052-.7L16.535,7.71a.368.368,0,0,0,.09-.457l-1.44-2.49a.366.366,0,0,0-.443-.165l-1.792.72a5.3,5.3,0,0,0-1.215-.705l-.27-1.905a.363.363,0,0,0-.36-.308H8.226a.355.355,0,0,0-.353.308l-.27,1.9a5.415,5.415,0,0,0-1.215.7L4.6,4.6a.358.358,0,0,0-.443.165L2.72,7.253a.341.341,0,0,0,.09.457L4.333,8.9a4.173,4.173,0,0,0-.015,1.41L2.8,11.49a.368.368,0,0,0-.09.458l1.44,2.49a.366.366,0,0,0,.443.165l1.793-.72a5.3,5.3,0,0,0,1.215.7l.27,1.9a.369.369,0,0,0,.36.308h2.88a.35.35,0,0,0,.352-.308l.27-1.9a5.144,5.144,0,0,0,1.215-.705l1.792.72a.358.358,0,0,0,.443-.165l1.44-2.49a.347.347,0,0,0-.09-.457Zm-5.355,2a2.7,2.7,0,1,1,2.7-2.7A2.708,2.708,0,0,1,9.665,12.3Z" transform="translate(-0.666 -0.6)" fill="#041231"/>
    </g>
    <rect id="사각형_591" data-name="사각형 591" width="24" height="24" transform="translate(26 502)" fill="rgba(255,255,255,0)"/>
  </g>
</svg>
