<svg xmlns="http://www.w3.org/2000/svg" width="24" height="24" viewBox="0 0 24 24">
  <g id="그룹_1220" data-name="그룹 1220" transform="translate(-26 -94)">
    <path id="Icon_zocial-persona" data-name="Icon zocial-persona" d="M7.3,10.7a33.327,33.327,0,0,1-3.69-.125s.144-2.2,1.152-2.6,1.255-.34,1.6-.551l.026-.015V6.82a2.732,2.732,0,0,1-.759-1.244A.984.984,0,0,1,5.347,4.9a.915.915,0,0,1,.14-.478A1.95,1.95,0,0,1,7.3,2.362,1.949,1.949,0,0,1,9.12,4.426a.912.912,0,0,1,.14.478.984.984,0,0,1-.287.672A2.726,2.726,0,0,1,8.213,6.82v.593l.026.015c.35.211.6.155,1.6.551S11,10.578,11,10.578A33.5,33.5,0,0,1,7.3,10.7M11.941-.035H.644a.65.65,0,0,0-.65.65V12.969a.65.65,0,0,0,.65.65h11.3l5.851-6.826L11.941-.035Z" transform="translate(30.208 99.208)" fill="#fff"/>
    <rect id="사각형_591" data-name="사각형 591" width="24" height="24" transform="translate(26 94)" fill="rgba(255,255,255,0)"/>
  </g>
</svg>
