<svg xmlns="http://www.w3.org/2000/svg" width="18" height="18" viewBox="0 0 18 18">
  <g id="그룹_1202" data-name="그룹 1202" transform="translate(-830 -20)">
    <path id="Icon_awesome-sign-out-alt" data-name="Icon awesome-sign-out-alt" d="M15.779,11.134l-5.334,5.334a.763.763,0,0,1-1.3-.54V12.881H4.826a.76.76,0,0,1-.762-.762V9.071a.76.76,0,0,1,.762-.762H9.143V5.261a.764.764,0,0,1,1.3-.54l5.334,5.334A.768.768,0,0,1,15.779,11.134ZM6.1,16.309v-1.27a.382.382,0,0,0-.381-.381H3.048a1.015,1.015,0,0,1-1.016-1.016v-6.1A1.015,1.015,0,0,1,3.048,6.531H5.715A.382.382,0,0,0,6.1,6.15V4.88A.382.382,0,0,0,5.715,4.5H3.048A3.049,3.049,0,0,0,0,7.547v6.1A3.049,3.049,0,0,0,3.048,16.69H5.715A.382.382,0,0,0,6.1,16.309Z" transform="translate(831 18.405)" fill="#979797"/>
    <g id="그룹_1201" data-name="그룹 1201" transform="translate(2 -30)">
      <rect id="사각형_586" data-name="사각형 586" width="18" height="18" transform="translate(828 50)" fill="none"/>
    </g>
  </g>
</svg>
