<?xml version="1.0" encoding="utf-8"?>
<!-- Generator: Adobe Illustrator 27.9.0, SVG Export Plug-In . SVG Version: 6.00 Build 0)  -->
<svg version="1.1" id="Layer_1" xmlns="http://www.w3.org/2000/svg" xmlns:xlink="http://www.w3.org/1999/xlink" x="0px" y="0px"
	 width="44px" height="44px" viewBox="0 0 44 44" style="enable-background:new 0 0 44 44;" xml:space="preserve">
<style type="text/css">
	.st0{fill:#20386B;}
	.st1{fill:#1C75BB;}
	.st2{fill:#5FC4EB;}
	.st3{fill:#5CC3E8;}
	.st4{fill:#4C71B6;}
	.st5{fill:#202834;}
	.st6{opacity:0.32;}
	.st7{fill:#000001;}
	.st8{opacity:0.31;}
	.st9{opacity:0.35;}
	.st10{opacity:0.38;}
	.st11{fill:#253161;}
	.st12{fill-rule:evenodd;clip-rule:evenodd;fill:#FFFFFF;}
	.st13{fill-rule:evenodd;clip-rule:evenodd;fill:#AED2EF;}
	.st14{fill-rule:evenodd;clip-rule:evenodd;fill:#253161;}
	.st15{clip-path:url(#SVGID_00000110456571076833951480000014714718244569717396_);}
	.st16{fill:#6FC5D1;}
	.st17{clip-path:url(#SVGID_00000068644233920466509450000007110276737995007919_);}
	.st18{opacity:0.54;}
</style>
<g>
	<g>
		<circle class="st0" cx="22" cy="22" r="22"/>
	</g>
	<g>
		<circle class="st1" cx="21.88" cy="22.12" r="12.93"/>
	</g>
	<g>
		<path class="st2" d="M39.06,22.11c-1.27,0-2.34,0.93-2.53,2.19c-1.07,7.1-7.19,12.53-14.58,12.53S8.44,31.39,7.37,24.29
			c-0.19-1.25-1.26-2.19-2.53-2.19l0,0c-1.57,0-2.76,1.4-2.53,2.95c1.44,9.56,9.68,16.89,19.64,16.89s18.2-7.33,19.64-16.89
			C41.82,23.5,40.63,22.11,39.06,22.11L39.06,22.11z"/>
	</g>
	<g>
		<g>
			<path class="st3" d="M21.76,36.12c-7.77,0-14.09-6.32-14.09-14.09S13.99,7.94,21.76,7.94s14.09,6.32,14.09,14.09
				S29.53,36.12,21.76,36.12z M21.76,8.27c-7.58,0-13.76,6.17-13.76,13.76s6.17,13.76,13.76,13.76s13.76-6.17,13.76-13.76
				S29.35,8.27,21.76,8.27z"/>
		</g>
	</g>
	<g>
		<g>
			<path class="st4" d="M21.95,43.05c-5.59,0-10.85-2.18-14.81-6.13s-6.13-9.21-6.13-14.8S3.19,11.27,7.14,7.32
				s9.21-6.13,14.81-6.13S32.8,3.36,36.76,7.31s6.13,9.21,6.13,14.81s-2.18,10.85-6.13,14.81S27.54,43.05,21.95,43.05z M21.95,1.51
				c-5.51,0-10.68,2.14-14.57,6.03c-3.89,3.89-6.04,9.07-6.04,14.58S3.49,32.8,7.38,36.69c3.89,3.89,9.07,6.03,14.57,6.03
				s10.68-2.15,14.57-6.03c3.89-3.89,6.03-9.07,6.03-14.57c0-5.51-2.15-10.68-6.03-14.57C32.63,3.66,27.46,1.51,21.95,1.51z"/>
		</g>
	</g>
	<g>
		<path class="st5" d="M9.12,31.5c0.07-0.07,0.13-0.1,0.19-0.09c0.06,0.01,0.1,0.04,0.15,0.08l1.24,1.22l-0.18,0.18L9.8,32.18
			l-2.31,2.37l0.87,0.85l-0.18,0.19l-1.39-1.35c-0.04-0.04-0.07-0.09-0.09-0.15c-0.01-0.06,0.02-0.12,0.08-0.19L9.12,31.5z
			 M8.08,36.04l2.68-2.75c0.06-0.06,0.09-0.11,0.11-0.15c0.01-0.05,0.03-0.1,0.04-0.16c0.02-0.08,0.04-0.14,0.07-0.17
			c0.03-0.03,0.06-0.02,0.11,0.02l0.51,0.5c0.04,0.04,0.07,0.09,0.09,0.15c0.01,0.06-0.02,0.12-0.08,0.19l-1.09,1.12l0.31,0.31
			l0.87-0.89c0.06-0.06,0.1-0.1,0.12-0.15c0.02-0.04,0.04-0.09,0.06-0.15c0.02-0.08,0.04-0.14,0.07-0.17
			c0.03-0.03,0.06-0.02,0.11,0.02l0.49,0.48c0.04,0.04,0.07,0.09,0.09,0.15c0.01,0.06-0.02,0.12-0.08,0.19l-2.74,2.81
			c-0.07,0.07-0.13,0.1-0.19,0.09s-0.1-0.04-0.15-0.08l-0.45-0.43l1.63-1.68l-0.31-0.31l-1.47,1.51c-0.07,0.07-0.13,0.1-0.19,0.09
			c-0.06-0.01-0.1-0.04-0.15-0.08L8.08,36.04z"/>
		<path class="st5" d="M13.63,35.47l0.01-0.03c0.02-0.05,0.04-0.09,0.05-0.12c0.01-0.03,0.01-0.07,0.01-0.12
			c-0.01-0.08-0.01-0.14,0.01-0.18c0.02-0.04,0.06-0.04,0.11-0.01l0.74,0.37c0.05,0.03,0.1,0.07,0.13,0.12
			c0.03,0.05,0.02,0.12-0.02,0.2l-0.12,0.23l0.84,0.42l-0.12,0.23l-0.84-0.42l-0.13,0.26c-0.14,0.27-0.27,0.51-0.42,0.72
			c-0.14,0.2-0.3,0.38-0.45,0.54c0.09,0.06,0.19,0.14,0.29,0.24c0.09,0.1,0.17,0.21,0.23,0.34c0.06,0.12,0.1,0.25,0.13,0.38
			c0.03,0.13,0.02,0.27-0.02,0.41c-0.03,0.08-0.08,0.15-0.14,0.21s-0.13,0.1-0.2,0.12c-0.07,0.02-0.13,0.03-0.19,0.02
			c-0.07-0.01-0.13-0.02-0.18-0.05s-0.1-0.07-0.15-0.12c-0.04-0.05-0.08-0.1-0.1-0.17c-0.03-0.08-0.03-0.17-0.02-0.25
			c0.01-0.09,0.04-0.16,0.09-0.23c0.04-0.06,0.07-0.12,0.09-0.19c0.02-0.07,0.02-0.14-0.01-0.23c-0.01-0.03-0.03-0.07-0.04-0.11
			c-0.02-0.04-0.04-0.08-0.08-0.13c-0.31,0.22-0.65,0.35-1.01,0.4s-0.77,0.02-1.22-0.06l-0.01-0.12c0.14-0.01,0.27-0.02,0.41-0.04
			c0.13-0.02,0.27-0.06,0.4-0.12c0.13-0.06,0.27-0.14,0.41-0.24c0.14-0.1,0.28-0.24,0.42-0.41c0.14-0.17,0.29-0.37,0.43-0.6
			s0.31-0.52,0.47-0.85l0.09-0.18l-0.87-0.43l0.12-0.23L13.63,35.47z M13.99,40.06l1.71-3.44c0.04-0.07,0.06-0.13,0.06-0.18
			c0-0.05-0.01-0.1-0.01-0.17c-0.01-0.08-0.01-0.14,0.01-0.18c0.02-0.04,0.06-0.04,0.11-0.01l0.78,0.39
			c0.06,0.03,0.1,0.07,0.13,0.12c0.03,0.05,0.02,0.12-0.02,0.2L15,40.31c-0.04,0.09-0.09,0.13-0.15,0.14
			c-0.06,0.01-0.11-0.01-0.17-0.03L13.99,40.06z"/>
		<path class="st5" d="M19.28,37.49c-0.03,0.17-0.07,0.32-0.12,0.47c-0.05,0.15-0.13,0.29-0.21,0.42c0.09,0.02,0.19,0.05,0.28,0.1
			c0.09,0.04,0.19,0.1,0.27,0.17c0.09,0.08,0.17,0.18,0.25,0.28c0.08,0.1,0.12,0.23,0.13,0.36c0.01,0.08-0.01,0.16-0.04,0.23
			c-0.03,0.07-0.08,0.13-0.14,0.18c-0.05,0.04-0.1,0.07-0.16,0.09c-0.06,0.02-0.12,0.02-0.18,0.02c-0.06-0.01-0.12-0.02-0.18-0.05
			c-0.06-0.03-0.1-0.07-0.15-0.12c-0.06-0.06-0.09-0.13-0.11-0.21c-0.02-0.08-0.02-0.16,0-0.24c0.02-0.06,0.02-0.13,0.02-0.19
			c-0.01-0.07-0.03-0.13-0.09-0.19c-0.04-0.05-0.09-0.09-0.15-0.12c-0.23,0.24-0.5,0.42-0.83,0.57c-0.33,0.15-0.7,0.25-1.13,0.3
			l-0.08-0.13c0.23-0.09,0.45-0.21,0.65-0.36c0.2-0.15,0.38-0.36,0.54-0.62c0.04-0.06,0.07-0.12,0.11-0.19
			c0.03-0.07,0.07-0.13,0.1-0.2c0.03-0.07,0.06-0.15,0.09-0.24c0.03-0.09,0.05-0.18,0.08-0.29c0.02-0.08,0.02-0.14-0.01-0.19
			c-0.02-0.04-0.04-0.1-0.06-0.15c-0.03-0.08-0.05-0.14-0.04-0.18c0.01-0.04,0.04-0.06,0.1-0.04l0.88,0.13
			c0.06,0.01,0.12,0.03,0.16,0.07c0.04,0.04,0.05,0.1,0.04,0.2L19.28,37.49z M21.02,41.06c-0.02,0.15-0.09,0.27-0.21,0.36
			c-0.12,0.08-0.26,0.14-0.44,0.17c-0.18,0.03-0.37,0.04-0.59,0.03s-0.44-0.03-0.66-0.07l-0.15-0.02c-0.23-0.03-0.45-0.08-0.67-0.13
			c-0.22-0.06-0.41-0.12-0.58-0.2c-0.17-0.08-0.3-0.18-0.4-0.29c-0.1-0.12-0.13-0.25-0.11-0.4l0.01-0.08
			c0.02-0.15,0.09-0.26,0.22-0.35c0.13-0.08,0.28-0.13,0.47-0.17c0.19-0.03,0.39-0.04,0.62-0.02c0.23,0.01,0.45,0.03,0.67,0.07
			l0.15,0.02c0.23,0.03,0.44,0.08,0.65,0.13c0.21,0.05,0.4,0.12,0.56,0.2c0.16,0.08,0.29,0.18,0.37,0.29
			c0.09,0.11,0.12,0.24,0.1,0.39L21.02,41.06z M18.23,40.65c-0.02,0.12,0,0.22,0.05,0.3c0.05,0.08,0.12,0.15,0.2,0.2
			c0.08,0.05,0.17,0.09,0.26,0.12c0.09,0.03,0.18,0.04,0.25,0.06l0.15,0.02c0.08,0.01,0.16,0.02,0.25,0.02
			c0.09,0,0.18-0.01,0.26-0.04c0.09-0.03,0.16-0.07,0.23-0.14c0.07-0.07,0.1-0.15,0.12-0.27l0.01-0.08c0.02-0.12,0.01-0.21-0.04-0.3
			c-0.04-0.08-0.1-0.14-0.18-0.19s-0.15-0.09-0.24-0.11c-0.09-0.02-0.17-0.04-0.24-0.06l-0.15-0.02c-0.08-0.01-0.16-0.02-0.26-0.02
			c-0.1-0.01-0.2,0.01-0.29,0.03c-0.09,0.02-0.17,0.07-0.24,0.13c-0.07,0.06-0.12,0.15-0.13,0.27L18.23,40.65z M20.11,39.96
			l0.32-2.15c0.02-0.08,0.02-0.14-0.01-0.19c-0.02-0.04-0.04-0.1-0.06-0.15c-0.03-0.08-0.05-0.14-0.04-0.18
			c0.01-0.04,0.04-0.06,0.1-0.04l0.86,0.13c0.06,0.01,0.12,0.03,0.16,0.07c0.04,0.04,0.05,0.1,0.04,0.2l-0.15,1.05l0.62,0.09
			l-0.04,0.25l-0.62-0.09l-0.14,0.93c-0.02,0.1-0.05,0.15-0.1,0.18c-0.05,0.02-0.11,0.03-0.17,0.02L20.11,39.96z"/>
		<path class="st5" d="M26.14,41.28l-0.35-2.12l-0.45,0.08v0.02c0.05,0.31,0.07,0.59,0.06,0.85c-0.02,0.25-0.07,0.47-0.15,0.65
			c-0.09,0.18-0.22,0.33-0.39,0.45c-0.17,0.12-0.39,0.2-0.64,0.24l-0.05,0.01c-0.26,0.04-0.49,0.03-0.69-0.03
			c-0.2-0.06-0.37-0.16-0.51-0.3c-0.14-0.14-0.26-0.33-0.36-0.56s-0.17-0.5-0.22-0.82l-0.02-0.15c-0.1-0.63-0.07-1.13,0.12-1.51
			c0.18-0.38,0.52-0.62,1.01-0.71l0.05-0.01c0.48-0.08,0.86,0.03,1.15,0.31c0.29,0.29,0.5,0.73,0.6,1.31l0.45-0.08l-0.23-1.41
			c-0.01-0.08-0.03-0.14-0.06-0.18c-0.03-0.04-0.07-0.08-0.1-0.13c-0.06-0.07-0.09-0.12-0.09-0.15c-0.01-0.04,0.02-0.06,0.08-0.07
			l0.86-0.14c0.06-0.01,0.12-0.01,0.17,0.02c0.05,0.02,0.09,0.08,0.1,0.18l0.64,3.87c0.02,0.1,0.01,0.17-0.04,0.2
			c-0.04,0.04-0.09,0.06-0.15,0.07L26.14,41.28z M24.16,41.21c0.08-0.01,0.14-0.06,0.19-0.13c0.04-0.08,0.07-0.19,0.09-0.33
			c0.01-0.15,0.01-0.33-0.01-0.55c-0.02-0.22-0.05-0.48-0.1-0.79l-0.02-0.15c-0.1-0.61-0.21-1.05-0.32-1.32
			c-0.12-0.27-0.25-0.4-0.41-0.37l-0.05,0.01c-0.16,0.03-0.25,0.19-0.27,0.48c-0.02,0.3,0.02,0.75,0.12,1.36l0.02,0.15
			c0.05,0.31,0.1,0.57,0.15,0.79c0.05,0.21,0.1,0.39,0.17,0.52c0.06,0.13,0.12,0.23,0.19,0.28c0.07,0.06,0.14,0.08,0.23,0.07
			L24.16,41.21z"/>
		<path class="st5" d="M30.55,36c0.14-0.02,0.28-0.03,0.43-0.03c0.15,0,0.29,0.04,0.43,0.1c0.04,0.02,0.08,0.04,0.12,0.07
			c0.04,0.03,0.07,0.06,0.1,0.09c0.03,0.03,0.05,0.07,0.07,0.1c0.02,0.03,0.03,0.07,0.03,0.1c0.01,0.06,0.02,0.11,0,0.17
			c-0.01,0.06-0.04,0.12-0.07,0.17c-0.04,0.05-0.09,0.09-0.15,0.13c-0.06,0.04-0.13,0.06-0.22,0.07c-0.09,0.01-0.18-0.02-0.25-0.07
			s-0.14-0.13-0.21-0.21c-0.02-0.02-0.04-0.04-0.07-0.07c-0.03-0.02-0.07-0.04-0.11-0.06s-0.09-0.03-0.14-0.04
			c-0.06-0.01-0.11-0.01-0.18-0.01c-0.07,0.01-0.16,0.02-0.26,0.04c-0.1,0.02-0.2,0.04-0.3,0.08c-0.03,0.14-0.08,0.29-0.15,0.43
			c-0.07,0.15-0.16,0.29-0.26,0.43c-0.14,0.19-0.32,0.38-0.52,0.57c-0.2,0.19-0.43,0.36-0.68,0.53l-0.14-0.1
			c0.18-0.17,0.34-0.33,0.47-0.5c0.13-0.17,0.24-0.34,0.31-0.51c0.07-0.16,0.11-0.33,0.13-0.51c0.02-0.18-0.01-0.34-0.08-0.48
			l-0.07-0.14c-0.03-0.06-0.05-0.1-0.08-0.13c-0.02-0.03-0.05-0.06-0.1-0.09c-0.07-0.04-0.12-0.08-0.14-0.12
			c-0.02-0.03,0-0.07,0.05-0.09l0.75-0.38c0.05-0.03,0.11-0.04,0.16-0.04c0.06,0.01,0.1,0.05,0.15,0.14l0.13,0.24
			c0.03,0.06,0.06,0.12,0.07,0.18c0.02,0.07,0.03,0.13,0.03,0.2c0.1-0.05,0.23-0.09,0.36-0.14C30.29,36.07,30.42,36.04,30.55,36z
			 M32.31,36.93l0.12,0.23l-1.59,0.83l0.56,1.07c0.04,0.09,0.05,0.15,0.03,0.2c-0.03,0.05-0.07,0.09-0.13,0.12l-0.7,0.36l-0.67-1.28
			l-1.57,0.81l-0.12-0.23L32.31,36.93z"/>
		<path class="st5" d="M32.27,35.51c-0.13-0.13-0.21-0.28-0.26-0.45c-0.05-0.18-0.04-0.36,0.02-0.57l-0.52,0.53l-0.16-0.16
			l0.78-0.79c-0.03-0.02-0.06-0.04-0.08-0.06c-0.02-0.02-0.06-0.03-0.1-0.04c-0.08-0.02-0.14-0.04-0.16-0.07s-0.02-0.06,0.02-0.1
			l0.58-0.59c0.04-0.04,0.09-0.07,0.15-0.09c0.06-0.01,0.12,0.02,0.19,0.08l0.13,0.13l0.8-0.81l0.17,0.17l-0.55,0.56
			c0.2-0.07,0.39-0.08,0.57-0.03c0.18,0.04,0.32,0.13,0.45,0.26l0.09,0.09c0.1,0.1,0.18,0.21,0.23,0.34
			c0.05,0.13,0.07,0.27,0.06,0.42c-0.01,0.15-0.06,0.31-0.14,0.47c-0.08,0.16-0.21,0.34-0.38,0.51l-0.04,0.04
			c-0.17,0.17-0.34,0.3-0.5,0.38c-0.16,0.08-0.32,0.13-0.47,0.15c-0.15,0.01-0.29-0.01-0.42-0.05c-0.13-0.05-0.25-0.13-0.35-0.23
			L32.27,35.51z M33.05,34.91c0.2,0.2,0.39,0.34,0.53,0.4c0.15,0.06,0.28,0.04,0.39-0.07l0.04-0.04c0.1-0.1,0.13-0.24,0.07-0.39
			c-0.06-0.15-0.19-0.33-0.4-0.53l-0.09-0.09c-0.2-0.2-0.37-0.32-0.52-0.38c-0.15-0.06-0.28-0.05-0.38,0.05l-0.06,0.05
			c-0.1,0.1-0.13,0.24-0.07,0.39c0.06,0.15,0.19,0.33,0.4,0.53L33.05,34.91z M35.45,34.07l-1.55-1.54c-0.06-0.06-0.11-0.1-0.15-0.11
			c-0.05-0.01-0.1-0.03-0.16-0.04c-0.08-0.02-0.14-0.04-0.17-0.07s-0.02-0.06,0.02-0.1l0.62-0.62c0.04-0.04,0.09-0.07,0.15-0.09
			c0.06-0.01,0.12,0.02,0.19,0.08l0.68,0.67l0.43-0.43l0.18,0.18l-0.43,0.43L36,33.17c0.07,0.07,0.1,0.13,0.09,0.19
			c-0.01,0.05-0.04,0.1-0.08,0.15L35.45,34.07z M36.61,35.22l-0.79-0.79l-1.77,1.79l-0.18-0.18l2.33-2.35
			c0.04-0.04,0.09-0.07,0.15-0.09c0.05-0.01,0.12,0.02,0.19,0.08l0.64,0.63c0.07,0.07,0.1,0.13,0.09,0.19
			c-0.01,0.05-0.04,0.1-0.08,0.15L36.61,35.22z"/>
	</g>
	<g class="st6">
		<g>
			<path class="st7" d="M3.17,16.61c-0.17,0.5,0.03,1.02,0.44,1.15l0.81,0.26l-0.17,0.51c-0.03,0.09,0.01,0.19,0.08,0.21
				c0.08,0.02,0.16-0.03,0.19-0.12l0.17-0.51l1.94,0.63c0.26,0.08,0.38,0.41,0.28,0.73s-0.4,0.51-0.65,0.42
				c-0.08-0.02-0.16,0.03-0.19,0.12c-0.03,0.09,0.01,0.19,0.08,0.21c0.41,0.13,0.87-0.17,1.03-0.67s-0.03-1.02-0.44-1.15l-1.94-0.63
				l0.18-0.53c0.03-0.09-0.01-0.19-0.08-0.21c-0.08-0.02-0.16,0.03-0.19,0.12l-0.18,0.53l-0.81-0.26c-0.26-0.08-0.38-0.41-0.28-0.73
				s0.4-0.51,0.65-0.42c0.08,0.02,0.16-0.03,0.19-0.12c0.03-0.09-0.01-0.19-0.08-0.21C3.8,15.81,3.34,16.11,3.17,16.61z"/>
			<path class="st7" d="M6.36,20.28c-0.07,0-0.14-0.01-0.21-0.03c-0.04-0.02-0.08-0.04-0.09-0.09c-0.02-0.04-0.02-0.09,0-0.14
				c0.03-0.1,0.13-0.16,0.21-0.14c0.12,0.04,0.25,0.02,0.37-0.06s0.21-0.2,0.26-0.35c0.05-0.15,0.05-0.3-0.01-0.43
				c-0.05-0.13-0.14-0.23-0.26-0.26l-1.93-0.63l-0.16,0.49c-0.02,0.05-0.05,0.09-0.09,0.12c-0.04,0.03-0.09,0.03-0.13,0.02
				c-0.04-0.02-0.08-0.04-0.09-0.09c-0.02-0.04-0.02-0.09,0-0.14l0.16-0.49l-0.8-0.26c-0.42-0.14-0.62-0.67-0.46-1.18l0,0
				c0.08-0.25,0.24-0.45,0.43-0.58c0.2-0.13,0.42-0.16,0.63-0.1c0.04,0.02,0.08,0.04,0.09,0.09c0.02,0.04,0.02,0.09,0,0.14
				c-0.02,0.05-0.05,0.09-0.09,0.12c-0.04,0.03-0.09,0.03-0.13,0.02c-0.25-0.08-0.53,0.1-0.63,0.41c-0.05,0.15-0.05,0.3,0.01,0.43
				c0.05,0.13,0.14,0.23,0.26,0.26l0.8,0.26l0.17-0.51c0.02-0.05,0.05-0.09,0.09-0.12c0.04-0.03,0.09-0.03,0.13-0.02
				c0.09,0.03,0.13,0.13,0.09,0.24l-0.16,0.52l1.93,0.63c0.2,0.07,0.36,0.23,0.45,0.45c0.08,0.22,0.09,0.48,0.01,0.73
				c-0.08,0.25-0.24,0.45-0.43,0.58C6.65,20.24,6.5,20.28,6.36,20.28z M6.24,19.91c-0.06,0-0.12,0.04-0.14,0.12
				c-0.01,0.04-0.01,0.08,0,0.12c0.01,0.03,0.04,0.06,0.07,0.07c0.19,0.06,0.4,0.03,0.59-0.09C6.95,20,7.1,19.8,7.18,19.56
				c0.08-0.24,0.08-0.48-0.01-0.7c-0.08-0.21-0.23-0.36-0.42-0.42l-1.96-0.65l0.18-0.55c0.03-0.08-0.01-0.16-0.07-0.19
				c-0.03-0.01-0.06-0.01-0.09,0.02c-0.03,0.02-0.06,0.06-0.07,0.09l-0.18,0.55l-0.83-0.27c-0.13-0.04-0.23-0.14-0.29-0.29
				c-0.06-0.14-0.06-0.3-0.01-0.46c0.1-0.32,0.41-0.52,0.68-0.43c0.03,0.01,0.07,0.01,0.09-0.02c0.03-0.02,0.06-0.06,0.07-0.09
				c0.01-0.04,0.01-0.08,0-0.12c-0.01-0.03-0.04-0.06-0.07-0.07c-0.19-0.06-0.4-0.03-0.59,0.09c-0.19,0.12-0.34,0.32-0.42,0.56l0,0
				c-0.16,0.49,0.03,1,0.43,1.12l0.84,0.27l-0.17,0.53c-0.01,0.04-0.01,0.08,0,0.12c0.01,0.03,0.04,0.06,0.07,0.07
				c0.03,0.01,0.07,0.01,0.09-0.02c0.03-0.02,0.06-0.05,0.07-0.09l0.17-0.53l1.96,0.64c0.13,0.04,0.23,0.14,0.29,0.29
				c0.06,0.14,0.06,0.3,0.01,0.46s-0.15,0.29-0.28,0.37c-0.13,0.08-0.27,0.1-0.4,0.06C6.25,19.91,6.24,19.91,6.24,19.91z"/>
		</g>
		<g>
			<path class="st7" d="M7.35,16.87L7.1,16.21c-0.03-0.08-0.12-0.11-0.19-0.06c-0.08,0.05-0.11,0.15-0.08,0.24l0.25,0.65L6.5,17.42
				c-0.08,0.05-0.11,0.15-0.08,0.24c0.03,0.08,0.12,0.11,0.19,0.06l0.59-0.38L7.45,18c0.03,0.08,0.12,0.11,0.19,0.06
				c0.04-0.02,0.07-0.06,0.08-0.1c0.02-0.04,0.02-0.09,0-0.13l-0.25-0.65l0.59-0.38c0.04-0.02,0.07-0.06,0.08-0.1
				c0.02-0.04,0.02-0.09,0-0.13c-0.03-0.08-0.12-0.11-0.19-0.06L7.35,16.87z"/>
			<path class="st7" d="M7.57,18.11c-0.02,0-0.03,0-0.04-0.01c-0.04-0.02-0.08-0.04-0.09-0.09l-0.24-0.63l-0.57,0.36
				c-0.04,0.03-0.09,0.03-0.13,0.02c-0.04-0.02-0.08-0.04-0.09-0.09c-0.03-0.09,0.01-0.21,0.09-0.26l0.57-0.37L6.81,16.4
				c-0.03-0.09,0.01-0.21,0.09-0.26c0.04-0.03,0.09-0.03,0.13-0.02c0.04,0.02,0.08,0.04,0.09,0.09l0.24,0.63l0.57-0.36
				c0.04-0.03,0.09-0.03,0.13-0.02c0.04,0.02,0.08,0.04,0.09,0.09c0.02,0.04,0.02,0.09,0,0.14c-0.02,0.05-0.05,0.09-0.09,0.12
				L7.5,17.17l0.25,0.64c0.02,0.04,0.02,0.09,0,0.14s-0.05,0.09-0.09,0.12C7.63,18.1,7.6,18.11,7.57,18.11z M7.21,17.32L7.47,18
				c0.01,0.03,0.04,0.06,0.07,0.07c0.03,0.01,0.07,0.01,0.09-0.02C7.66,18.03,7.68,18,7.7,17.96c0.01-0.04,0.01-0.08,0-0.12
				l-0.26-0.67l0.6-0.39c0.03-0.02,0.05-0.06,0.07-0.09c0.01-0.04,0.01-0.08,0-0.12c-0.01-0.03-0.04-0.06-0.07-0.07
				c-0.03-0.01-0.07-0.01-0.09,0.02l-0.61,0.39l-0.26-0.68c-0.01-0.03-0.04-0.06-0.07-0.07c-0.03-0.01-0.07-0.01-0.09,0.02
				c-0.07,0.04-0.1,0.14-0.07,0.21l0.26,0.67l-0.6,0.39c-0.07,0.04-0.1,0.14-0.07,0.21c0.01,0.03,0.04,0.06,0.07,0.07
				c0.03,0.01,0.07,0.01,0.09-0.02L7.21,17.32z"/>
		</g>
	</g>
	<g class="st8">
		<path class="st7" d="M12.44,5.98c-0.4-0.02-0.78,0.12-1.08,0.38C11.07,6.63,10.89,7,10.87,7.4l-0.06,1.14L9.67,8.48
			C8.85,8.43,8.15,9.07,8.11,9.89c-0.04,0.82,0.59,1.52,1.41,1.57c0.41,0.02,0.79-0.13,1.08-0.39s0.47-0.62,0.49-1.03l0.06-1.14
			l1.14,0.06c0.4,0.02,0.78-0.12,1.08-0.38c0.3-0.27,0.47-0.63,0.49-1.03C13.9,6.73,13.27,6.02,12.44,5.98z M10.74,10.03
			c-0.03,0.63-0.57,1.11-1.2,1.08c-0.63-0.03-1.11-0.57-1.08-1.2c0.02-0.31,0.16-0.59,0.37-0.79c0.21-0.2,0.51-0.31,0.82-0.29
			l1.14,0.06L10.74,10.03z M13.5,7.53c-0.02,0.3-0.15,0.58-0.37,0.79c-0.23,0.2-0.52,0.31-0.82,0.29l-1.14-0.06l0.06-1.14
			c0.02-0.3,0.15-0.58,0.37-0.79c0.23-0.2,0.52-0.31,0.83-0.29C13.05,6.36,13.54,6.9,13.5,7.53z"/>
		<path class="st7" d="M9.6,11.48c-0.03,0-0.06,0-0.08,0c-0.84-0.04-1.47-0.75-1.44-1.59c0.04-0.84,0.75-1.47,1.59-1.44l1.12,0.06
			l0.06-1.12c0.02-0.4,0.2-0.78,0.49-1.04c0.3-0.27,0.69-0.41,1.09-0.38c0.4,0.02,0.78,0.2,1.05,0.5s0.41,0.69,0.39,1.09
			c-0.02,0.4-0.2,0.78-0.49,1.04c-0.3,0.27-0.69,0.41-1.09,0.39l-1.12-0.06l-0.06,1.12c-0.02,0.4-0.2,0.78-0.5,1.05
			C10.33,11.34,9.98,11.48,9.6,11.48z M9.6,8.49c-0.78,0-1.43,0.61-1.47,1.4c-0.04,0.81,0.58,1.51,1.4,1.55
			c0.39,0.02,0.77-0.12,1.06-0.38c0.29-0.26,0.47-0.63,0.48-1.02l0.06-1.16l1.16,0.06c0.4,0.02,0.77-0.12,1.06-0.38
			c0.29-0.26,0.46-0.63,0.48-1.02c0.02-0.39-0.12-0.77-0.38-1.06c-0.26-0.29-0.63-0.47-1.02-0.48l0,0
			c-0.39-0.02-0.77,0.12-1.06,0.38C11.09,6.64,10.92,7,10.9,7.39l-0.06,1.16L9.67,8.49C9.65,8.49,9.62,8.49,9.6,8.49z M9.6,11.13
			c-0.02,0-0.04,0-0.06,0c-0.64-0.03-1.13-0.58-1.1-1.22C8.46,9.6,8.6,9.32,8.82,9.11c0.23-0.21,0.53-0.31,0.84-0.3l1.16,0.06
			l-0.06,1.16h-0.02h0.02c-0.02,0.31-0.15,0.59-0.38,0.8C10.16,11.02,9.89,11.13,9.6,11.13z M9.6,8.84c-0.28,0-0.54,0.1-0.75,0.29
			C8.63,9.33,8.5,9.61,8.48,9.91c-0.03,0.62,0.45,1.14,1.06,1.18c0.3,0.02,0.58-0.09,0.81-0.29c0.22-0.2,0.35-0.47,0.37-0.78
			l0.06-1.12L9.66,8.85C9.64,8.84,9.62,8.84,9.6,8.84z M12.36,8.63c-0.02,0-0.04,0-0.06,0l-1.16-0.06l0.06-1.16
			c0.02-0.31,0.15-0.59,0.38-0.8c0.23-0.21,0.53-0.31,0.84-0.3c0.64,0.03,1.13,0.58,1.1,1.22l0,0c-0.02,0.31-0.15,0.59-0.38,0.8
			C12.93,8.52,12.66,8.63,12.36,8.63z M11.19,8.53l1.12,0.06c0.3,0.02,0.59-0.09,0.81-0.29c0.22-0.2,0.35-0.47,0.37-0.78
			c0.03-0.62-0.45-1.14-1.06-1.18c-0.3-0.02-0.59,0.09-0.81,0.29c-0.22,0.2-0.35,0.47-0.37,0.78L11.19,8.53z"/>
	</g>
	<g class="st9">
		<path class="st7" d="M32.44,5.64l-3.3-1.24c-0.37-0.14-0.78-0.09-1.05,0.14l-0.21,0.18c-0.07,0.06-0.07,0.15,0.01,0.22
			c0.02,0.02,0.04,0.03,0.07,0.04C28.01,5,28.08,5,28.13,4.96l0.21-0.18c0.18-0.14,0.45-0.18,0.69-0.09l0.53,0.2l-0.82,2.19
			c-0.17,0.43-0.72,0.63-1.23,0.44c-0.09-0.03-0.19,0-0.22,0.08s0.02,0.17,0.12,0.2c0.7,0.26,1.45-0.01,1.67-0.6l0.82-2.19
			l0.78,0.29l-0.99,2.64c-0.13,0.34,0.09,0.74,0.5,0.9c0.4,0.15,0.84-0.01,0.97-0.35c0.03-0.08-0.02-0.17-0.12-0.2
			c-0.09-0.03-0.19,0-0.22,0.08c-0.07,0.19-0.31,0.27-0.52,0.19c-0.22-0.08-0.34-0.3-0.27-0.49l0.99-2.64l1.32,0.49
			c0.09,0.03,0.19,0,0.22-0.08C32.59,5.77,32.54,5.68,32.44,5.64z"/>
		<path class="st7" d="M30.5,8.92c-0.11,0-0.21-0.02-0.32-0.06c-0.2-0.08-0.36-0.21-0.46-0.39c-0.1-0.18-0.12-0.36-0.05-0.54
			l0.98-2.62l-0.74-0.28L29.1,7.2c-0.11,0.29-0.35,0.52-0.67,0.63c-0.32,0.12-0.69,0.11-1.03-0.02c-0.05-0.02-0.09-0.05-0.12-0.09
			c-0.02-0.04-0.03-0.09-0.01-0.14c0.02-0.04,0.05-0.08,0.1-0.09c0.04-0.02,0.1-0.02,0.15,0.01c0.51,0.19,1.05-0.01,1.2-0.43
			l0.81-2.17L29.03,4.7c-0.24-0.09-0.5-0.06-0.67,0.09l-0.21,0.18c-0.05,0.04-0.13,0.06-0.2,0.03c-0.03-0.01-0.06-0.03-0.07-0.04
			c-0.04-0.04-0.06-0.09-0.06-0.14c0-0.04,0.02-0.08,0.05-0.11l0.21-0.18c0.27-0.23,0.69-0.28,1.07-0.14l3.3,1.24
			c0.1,0.04,0.16,0.14,0.13,0.23s-0.14,0.13-0.25,0.09l-1.3-0.49l-0.98,2.62c-0.03,0.08-0.02,0.18,0.03,0.26
			c0.05,0.09,0.13,0.16,0.24,0.2c0.1,0.04,0.21,0.04,0.3,0.01s0.16-0.1,0.19-0.18c0.02-0.04,0.05-0.08,0.1-0.09
			c0.04-0.02,0.1-0.02,0.15,0.01c0.05,0.02,0.09,0.05,0.12,0.09c0.02,0.04,0.03,0.09,0.01,0.14c-0.07,0.17-0.2,0.3-0.39,0.37
			C30.7,8.9,30.6,8.92,30.5,8.92z M29.89,4.99l0.81,0.3l-1,2.66c-0.06,0.16-0.04,0.34,0.05,0.51c0.09,0.16,0.25,0.3,0.44,0.37
			s0.4,0.08,0.57,0.01c0.18-0.07,0.31-0.19,0.37-0.35c0.01-0.03,0.01-0.07-0.01-0.1c-0.02-0.03-0.05-0.06-0.09-0.08
			c-0.04-0.02-0.08-0.02-0.12,0c-0.04,0.01-0.06,0.04-0.08,0.07c-0.04,0.09-0.12,0.17-0.22,0.21c-0.1,0.04-0.22,0.03-0.33-0.01
			c-0.11-0.04-0.2-0.12-0.25-0.21c-0.05-0.1-0.07-0.2-0.03-0.3l1-2.66l1.34,0.5c0.08,0.03,0.17,0,0.19-0.07
			c0.03-0.07-0.02-0.15-0.1-0.18l-3.3-1.24c-0.36-0.14-0.77-0.08-1.03,0.13l-0.21,0.18c-0.03,0.02-0.04,0.05-0.04,0.08
			c0,0.04,0.02,0.08,0.05,0.1c0.02,0.02,0.04,0.03,0.06,0.04c0.05,0.02,0.12,0.01,0.16-0.02l0.21-0.18
			c0.18-0.15,0.46-0.19,0.71-0.09l0.55,0.21l-0.83,2.21c-0.16,0.45-0.73,0.65-1.25,0.45c-0.04-0.02-0.08-0.02-0.12,0
			c-0.04,0.01-0.06,0.04-0.08,0.07c-0.01,0.03-0.01,0.07,0.01,0.1c0.02,0.03,0.05,0.06,0.09,0.08c0.34,0.13,0.69,0.13,1,0.02
			c0.31-0.11,0.54-0.33,0.64-0.61L29.89,4.99z"/>
	</g>
	<g class="st10">
		<path class="st7" d="M33.2,12.48c-0.03-0.02-0.04-0.08-0.02-0.13l0.61-1.66l-0.38-0.26c-0.04-0.03-0.04-0.11,0-0.17
			c0.04-0.07,0.12-0.09,0.16-0.06l0.43,0.3c0.03,0.02,0.04,0.08,0.02,0.13l-0.51,1.39l2.53-2.29c0.04-0.04,0.09-0.05,0.13-0.03
			l2.33,1.58c0.04,0.03,0.04,0.11,0,0.17c-0.04,0.07-0.12,0.09-0.16,0.06l-2.27-1.54l-2.74,2.48C33.29,12.5,33.24,12.51,33.2,12.48
			L33.2,12.48z"/>
		<path class="st7" d="M33.24,12.51c-0.02,0-0.04-0.01-0.06-0.02l0,0c-0.04-0.03-0.06-0.09-0.03-0.15l0.6-1.64l-0.36-0.25
			c-0.06-0.04-0.06-0.13-0.01-0.2c0.05-0.07,0.13-0.1,0.19-0.07l0.43,0.3c0.04,0.03,0.05,0.09,0.03,0.15l-0.48,1.31l2.47-2.23
			c0.05-0.04,0.11-0.06,0.15-0.03l2.33,1.58c0.03,0.02,0.04,0.05,0.04,0.09s-0.01,0.08-0.03,0.11c-0.05,0.07-0.13,0.1-0.19,0.07
			l-2.26-1.53l-2.73,2.47C33.31,12.5,33.28,12.51,33.24,12.51z M33.21,12.46c0.03,0.02,0.07,0.01,0.1-0.02l2.76-2.49l2.29,1.55
			c0.03,0.02,0.1,0,0.13-0.06c0.02-0.03,0.03-0.06,0.03-0.09c0-0.03-0.01-0.04-0.03-0.06l-2.33-1.58c-0.03-0.02-0.07-0.01-0.1,0.02
			l-2.59,2.34l0.54-1.46c0.02-0.04,0.01-0.09-0.02-0.1l-0.43-0.3c-0.03-0.02-0.1,0-0.13,0.06c-0.04,0.06-0.04,0.12-0.01,0.14
			l0.39,0.26l-0.62,1.67C33.18,12.4,33.19,12.45,33.21,12.46L33.21,12.46z"/>
	</g>
	<g class="st10">
		<path class="st7" d="M37.3,19.04l-0.95-2.76c-0.02-0.05,0-0.11,0.04-0.14c0.04-0.04,0.1-0.04,0.15-0.02l1.92,0.94l0.94-1.92
			c0.02-0.05,0.08-0.08,0.13-0.08c0.06,0.01,0.1,0.04,0.12,0.09l0.95,2.76c0.02,0.07-0.01,0.15-0.08,0.17l-0.52,0.18
			c-0.07,0.02-0.15-0.01-0.17-0.08c-0.02-0.07,0.01-0.15,0.08-0.17l0.4-0.14l-0.8-2.33l-0.86,1.75c-0.02,0.03-0.04,0.06-0.08,0.07
			c-0.03,0.01-0.07,0.01-0.1-0.01l-1.75-0.85l0.8,2.33l0.42-0.14c0.07-0.02,0.15,0.01,0.17,0.08c0.02,0.07-0.01,0.15-0.08,0.17
			l-0.54,0.19C37.4,19.15,37.32,19.11,37.3,19.04z"/>
		<path class="st7" d="M37.42,19.15c-0.02,0-0.04-0.01-0.07-0.02c-0.04-0.02-0.07-0.05-0.08-0.09l-0.95-2.76
			c-0.02-0.06-0.01-0.13,0.04-0.16c0.05-0.04,0.12-0.05,0.17-0.02l1.9,0.93l0.93-1.9c0.03-0.06,0.08-0.09,0.15-0.09
			c0.06,0.01,0.12,0.04,0.14,0.1l0.95,2.76c0.01,0.04,0.01,0.08-0.01,0.12c-0.02,0.04-0.05,0.07-0.09,0.08L40,18.28
			c-0.04,0.01-0.08,0.01-0.12-0.01c-0.04-0.02-0.07-0.05-0.08-0.09c-0.03-0.08,0.02-0.16,0.09-0.19l0.37-0.13L39.5,15.6l-0.84,1.71
			c-0.02,0.04-0.05,0.07-0.09,0.08s-0.08,0.01-0.12-0.01l-1.7-0.84l0.78,2.27l0.4-0.14c0.08-0.03,0.17,0.02,0.19,0.09
			c0.03,0.08-0.02,0.16-0.09,0.19l-0.54,0.19C37.46,19.15,37.44,19.15,37.42,19.15z M36.48,16.12c-0.03,0-0.05,0.01-0.08,0.03
			c-0.03,0.03-0.05,0.08-0.03,0.12l0.95,2.76c0.01,0.03,0.03,0.05,0.06,0.07c0.03,0.01,0.06,0.02,0.09,0.01l0.54-0.19
			c0.06-0.02,0.09-0.09,0.07-0.14c-0.02-0.06-0.09-0.09-0.14-0.07l-0.44,0.15l-0.82-2.39l1.79,0.87c0.03,0.01,0.06,0.02,0.09,0.01
			c0.03-0.01,0.05-0.03,0.07-0.06l0.87-1.79l0.82,2.39l-0.41,0.14c-0.06,0.02-0.09,0.09-0.07,0.14c0.01,0.03,0.03,0.05,0.06,0.07
			c0.03,0.01,0.06,0.02,0.09,0.01l0.52-0.18c0.03-0.01,0.05-0.03,0.07-0.06c0.01-0.03,0.02-0.06,0.01-0.09l-0.95-2.76
			c-0.02-0.04-0.06-0.07-0.1-0.08c-0.04-0.01-0.09,0.02-0.11,0.07l-0.95,1.94l-1.94-0.95C36.51,16.13,36.49,16.12,36.48,16.12z"/>
	</g>
	<g>
		<g>
			<path class="st11" d="M18.69,5.71c-0.23,0.3-0.45,0.6-0.66,0.91c-0.22,0.32-0.45,0.69-0.69,1.09c-1.3,2.15-2.49,4.82-3.49,7.74
				c-0.91,2.63-1.66,5.46-2.21,8.28h19.24c-0.58-3.31-1.51-6.63-2.66-9.63c-1.29-3.38-2.84-6.35-4.45-8.42
				c-1.18-1.51-1.91-2.27-2.54-2.28c-0.62-0.01-1.35,0.74-2.52,2.25C18.72,5.68,18.71,5.69,18.69,5.71L18.69,5.71z M16.97,5.36
				c0.24-0.36,0.48-0.69,0.72-1c0.01-0.02,0.02-0.03,0.04-0.05c1.45-1.87,2.44-2.8,3.53-2.79c1.09,0.01,2.08,0.95,3.53,2.81
				c1.73,2.22,3.38,5.36,4.74,8.92c1.33,3.48,2.38,7.37,2.96,11.2c0.02,0.08,0.02,0.15,0.02,0.23c0,0.53-0.32,0.95-0.72,0.95H10.74
				v0c-0.05,0-0.1-0.01-0.16-0.02c-0.39-0.12-0.63-0.62-0.54-1.13c0.58-3.33,1.44-6.7,2.51-9.81c1.05-3.05,2.3-5.86,3.67-8.14
				C16.45,6.14,16.7,5.75,16.97,5.36L16.97,5.36z"/>
		</g>
		<g>
			<path class="st12" d="M18.23,4.98c-0.5,0.64-0.98,1.35-1.45,2.13c-2.69,4.48-4.92,11.1-6.04,17.56H31.8
				c-1.16-7.6-4.2-15.42-7.51-19.67C21.65,1.63,20.86,1.6,18.23,4.98L18.23,4.98z"/>
		</g>
		<g>
			<path class="st13" d="M11.65,24.68h19.23c-1.05-6.94-3.83-14.09-6.86-17.97c-2.4-3.09-3.14-3.11-5.53-0.02
				c-0.45,0.58-0.9,1.24-1.33,1.95C14.71,12.73,12.67,18.78,11.65,24.68L11.65,24.68z"/>
		</g>
		<g>
			<path class="st11" d="M25.34,12.74c-0.71-0.27-2.19-0.45-3.73-0.53c-1.8-0.1-3.64-0.06-4.38,0.12c-0.4,0.67-0.69,1.38-0.9,2.12
				c-0.24,0.83-0.4,1.72-0.53,2.65l0.01-0.03c0-0.01,0.01-0.01,0.01-0.01c0.16,0.16,0.45,0.3,0.81,0.43
				c0.91,0.33,3.01,0.72,5.04,0.97c1.81,0.22,3.55,0.33,4.3,0.18c0.31-0.06,0.5-0.14,0.59-0.26c0.07-0.09,0.1-0.25,0.12-0.5
				c0.05-0.72-0.03-1.51-0.26-2.38C26.2,14.65,25.84,13.73,25.34,12.74L25.34,12.74z M21.66,10.31c1.83,0.1,3.62,0.35,4.4,0.75l0,0
				c0.13,0.07,0.24,0.18,0.32,0.34c0.64,1.23,1.11,2.38,1.39,3.47c0.3,1.13,0.4,2.18,0.34,3.17c-0.05,0.72-0.21,1.26-0.56,1.7
				c-0.32,0.4-0.76,0.65-1.38,0.77c-0.85,0.17-2.72,0.06-4.64-0.18c-2.11-0.26-4.31-0.67-5.3-1.03c-0.51-0.19-0.95-0.42-1.26-0.72
				c-0.48-0.45-0.71-1.02-0.6-1.76c0.15-1.06,0.33-2.08,0.62-3.07c0.29-1,0.69-1.96,1.27-2.87c0.09-0.15,0.21-0.27,0.37-0.34
				C17.31,10.28,19.54,10.19,21.66,10.31L21.66,10.31z M15.8,17.08l-0.01,0.09c-0.01,0.08,0.02-0.07,0.03-0.12L15.8,17.08
				L15.8,17.08z"/>
		</g>
		<g>
			<path class="st11" d="M18.6,18.14l0.13,0.02l0.02,0.01l0.18,0.03l-0.14-0.33L18.6,18.14L18.6,18.14z M18.57,19.67
				c-0.43-0.08-0.84-0.16-1.18-0.23c-0.11-0.02-0.22-0.08-0.31-0.19c-0.24-0.28-0.26-0.76-0.05-1.07l1.43-2.12l0,0
				c0.04-0.06,0.09-0.12,0.15-0.16c0.27-0.2,0.63-0.07,0.78,0.3l1.07,2.54c0.07,0.14,0.1,0.31,0.09,0.5
				c-0.04,0.42-0.32,0.72-0.64,0.67c-0.4-0.06-0.86-0.14-1.33-0.23L18.57,19.67L18.57,19.67z"/>
		</g>
		<g>
			<path class="st12" d="M17.47,18.68c0.68,0.15,1.67,0.33,2.51,0.46l-1.08-2.57L17.47,18.68L17.47,18.68z"/>
		</g>
		<g>
			<path class="st11" d="M22.84,18.76c0.12,0.01,0.25,0.02,0.37,0.03l0.12,0.01l-0.25-0.48L22.84,18.76L22.84,18.76z M23.14,20.31
				c-0.43-0.03-0.91-0.08-1.39-0.14c-0.1-0.01-0.2-0.05-0.29-0.13c-0.26-0.24-0.32-0.71-0.14-1.06l1.27-2.39
				c0.04-0.08,0.09-0.16,0.16-0.22c0.26-0.24,0.62-0.15,0.8,0.19l1.39,2.64l0,0c0.07,0.13,0.1,0.29,0.1,0.46
				c-0.01,0.42-0.28,0.75-0.59,0.74C24.04,20.38,23.59,20.34,23.14,20.31L23.14,20.31z"/>
		</g>
		<g>
			<path class="st12" d="M21.79,19.41c0.91,0.1,1.92,0.19,2.67,0.22L23.08,17L21.79,19.41L21.79,19.41z"/>
		</g>
		<g>
			<path class="st11" d="M24.65,12.36l-0.09-0.02c-0.2-0.04-0.42-0.08-0.65-0.11l0.32,0.71L24.65,12.36L24.65,12.36z M24.73,10.84
				c0.51,0.1,0.94,0.23,1.24,0.37l0,0c0.07,0.03,0.14,0.09,0.19,0.16c0.23,0.29,0.24,0.77,0.02,1.07l-1.62,2.23
				c-0.04,0.06-0.09,0.12-0.15,0.16c-0.27,0.21-0.63,0.09-0.79-0.27l-1.25-2.8c-0.07-0.14-0.11-0.3-0.1-0.48
				c0.02-0.42,0.3-0.73,0.62-0.7C23.56,10.65,24.2,10.73,24.73,10.84L24.73,10.84z"/>
		</g>
		<g>
			<path class="st12" d="M25.76,11.92c-0.54-0.27-1.65-0.46-2.91-0.58l1.27,2.85L25.76,11.92L25.76,11.92z"/>
		</g>
		<g>
			<path class="st11" d="M18.69,11.98c-0.25,0.01-0.48,0.03-0.7,0.04l0.38,0.56L18.69,11.98L18.69,11.98z M17.89,10.52
				c0.52-0.04,1.17-0.07,1.89-0.07c0.13-0.01,0.25,0.03,0.37,0.14c0.26,0.24,0.32,0.72,0.14,1.06l-1.39,2.6l0,0
				c-0.02,0.04-0.06,0.09-0.09,0.13c-0.24,0.28-0.6,0.25-0.81-0.06l-1.56-2.3c-0.07-0.09-0.12-0.2-0.15-0.33
				c-0.09-0.4,0.08-0.82,0.39-0.95C16.92,10.64,17.35,10.56,17.89,10.52L17.89,10.52z"/>
		</g>
		<g>
			<path class="st12" d="M19.81,11.2c-1.38,0-2.55,0.09-2.98,0.26l1.59,2.35L19.81,11.2L19.81,11.2z"/>
		</g>
		<g>
			<path class="st14" d="M22.84,7c-0.2-0.13-0.27-0.3-0.35-0.52c-0.18-0.52-0.13-0.64,0.03-0.68c0.65-0.13,0.98,1.28,0.45,1.27
				L22.84,7z"/>
		</g>
		<g>
			<path class="st14" d="M19.54,6.86c-0.04-0.23,0.04-0.39,0.16-0.6c0.27-0.48,0.4-0.53,0.54-0.44c0.54,0.37-0.31,1.56-0.66,1.18
				L19.54,6.86z"/>
		</g>
		<g>
			<g>
				<path class="st11" d="M21.66,12.01C21.43,12,21.21,12,21,12l0.31,0.56L21.66,12.01L21.66,12.01z M21.04,10.57
					c0.49-0.01,1.11,0.02,1.78,0.08c0.12,0,0.24,0.05,0.33,0.15c0.23,0.25,0.24,0.69,0.04,1l-1.53,2.34l0,0
					c-0.03,0.04-0.06,0.08-0.09,0.12c-0.25,0.24-0.58,0.19-0.75-0.12l-1.26-2.28c-0.06-0.09-0.1-0.2-0.12-0.32
					c-0.05-0.39,0.15-0.77,0.45-0.86C20.12,10.61,20.53,10.58,21.04,10.57L21.04,10.57z"/>
			</g>
			<g>
				<path class="st12" d="M22.79,11.4c-1.29-0.1-2.39-0.1-2.82,0.02l1.29,2.32L22.79,11.4L22.79,11.4z"/>
			</g>
		</g>
	</g>
	<g>
		<g>
			<path class="st1" d="M34.79,22.19c0-0.9-0.57-1.43-0.91-1.9c-0.26-0.36-0.43-0.49-0.43-0.49c-0.49,1.03-1.72,1.82-2.62,1.86
				c-2.78,0.14-2.77-2.54-3.01-1.85c-0.37,1.07-1.82,1.89-2.73,1.85c-2.22-0.09-2.87-2.27-2.91-1.88c-0.13,1.19-2.08,2.12-3.05,1.85
				c-2.71-0.75-2.05-2.74-2.5-1.86c-0.91,1.74-1.99,1.89-2.85,1.85c-2.61-0.13-2.29-2.66-2.78-1.75c-0.44,0.79-0.73,0.94-1.04,1.21
				c-0.72,0.61-1,0.13-1,1.11c0,7.14,5.79,12.92,12.93,12.92S34.79,29.33,34.79,22.19z"/>
		</g>
		<g>
			<g>
				<defs>
					<circle id="SVGID_1_" cx="21.93" cy="22.05" r="12.93"/>
				</defs>
				<clipPath id="SVGID_00000050663015145669853220000006449265212108933250_">
					<use xlink:href="#SVGID_1_"  style="overflow:visible;"/>
				</clipPath>
				<g style="clip-path:url(#SVGID_00000050663015145669853220000006449265212108933250_);">
					<g>
						<g>
							<path class="st16" d="M47.39,22.05c-1.17,0-2.22-0.62-2.79-1.61c-0.57,0.99-1.62,1.61-2.79,1.61c-1.17,0-2.22-0.62-2.79-1.61
								c-0.57,0.99-1.62,1.61-2.79,1.61c-1.17,0-2.22-0.62-2.79-1.61c-0.57,0.99-1.62,1.61-2.79,1.61c-1.17,0-2.22-0.62-2.79-1.61
								c-0.57,0.99-1.62,1.61-2.79,1.61c-1.17,0-2.22-0.62-2.79-1.61c-0.57,0.99-1.62,1.61-2.79,1.61c-1.17,0-2.22-0.62-2.79-1.61
								c-0.57,0.99-1.62,1.61-2.79,1.61s-2.22-0.62-2.79-1.61c-0.57,0.99-1.62,1.61-2.79,1.61s-2.22-0.62-2.79-1.61
								c-0.57,0.99-1.62,1.61-2.79,1.61s-2.22-0.62-2.79-1.61c-0.57,0.99-1.62,1.61-2.79,1.61v-0.4c1.14,0,2.17-0.68,2.61-1.74
								c0.03-0.07,0.1-0.12,0.18-0.12s0.15,0.05,0.18,0.12c0.44,1.06,1.46,1.74,2.61,1.74s2.17-0.68,2.61-1.74
								c0.03-0.08,0.1-0.12,0.18-0.12c0.08,0,0.15,0.05,0.18,0.12c0.44,1.06,1.46,1.74,2.61,1.74s2.17-0.68,2.61-1.74
								c0.03-0.08,0.1-0.12,0.18-0.12s0.15,0.05,0.18,0.12c0.44,1.06,1.46,1.74,2.61,1.74s2.17-0.68,2.61-1.74
								c0.03-0.07,0.1-0.12,0.18-0.12s0.15,0.05,0.18,0.12c0.44,1.06,1.46,1.74,2.61,1.74c1.14,0,2.17-0.68,2.61-1.74
								c0.03-0.07,0.1-0.12,0.18-0.12c0.08,0,0.15,0.05,0.18,0.12c0.44,1.06,1.46,1.74,2.61,1.74c1.14,0,2.17-0.68,2.61-1.74
								c0.03-0.07,0.1-0.12,0.18-0.12c0.08,0,0.15,0.05,0.18,0.12c0.44,1.06,1.46,1.74,2.61,1.74c1.14,0,2.17-0.68,2.61-1.74
								c0.03-0.07,0.1-0.12,0.18-0.12c0.08,0,0.15,0.05,0.18,0.12c0.44,1.06,1.46,1.74,2.61,1.74c1.14,0,2.17-0.68,2.61-1.74
								c0.03-0.08,0.1-0.12,0.18-0.12c0.08,0,0.15,0.05,0.18,0.12c0.44,1.06,1.46,1.74,2.61,1.74s2.17-0.68,2.61-1.74
								c0.03-0.07,0.1-0.12,0.18-0.12s0.15,0.05,0.18,0.12c0.44,1.06,1.46,1.74,2.61,1.74C47.39,21.66,47.39,22.05,47.39,22.05z"/>
						</g>
					</g>
				</g>
			</g>
			<g>
				<defs>
					<circle id="SVGID_00000145026713882263921230000007430224374885609407_" cx="21.93" cy="22.05" r="12.93"/>
				</defs>
				<clipPath id="SVGID_00000128458079747851186930000005952780405718143110_">
					<use xlink:href="#SVGID_00000145026713882263921230000007430224374885609407_"  style="overflow:visible;"/>
				</clipPath>
				<g style="clip-path:url(#SVGID_00000128458079747851186930000005952780405718143110_);">
					<g>
						<g>
							<g>
								<path class="st16" d="M41.65,25.01c-1.17,0-2.22-0.62-2.79-1.61c-0.57,0.99-1.62,1.61-2.79,1.61s-2.22-0.62-2.79-1.61
									c-0.57,0.99-1.62,1.61-2.79,1.61c-1.17,0-2.22-0.62-2.79-1.61c-0.57,0.99-1.62,1.61-2.79,1.61c-1.17,0-2.22-0.62-2.79-1.61
									c-0.57,0.99-1.62,1.61-2.79,1.61c-1.17,0-2.22-0.62-2.79-1.61c-0.57,0.99-1.62,1.61-2.79,1.61s-2.22-0.62-2.79-1.61
									c-0.57,0.99-1.62,1.61-2.79,1.61S5.96,24.39,5.4,23.4c-0.57,0.99-1.62,1.61-2.79,1.61v-0.4c1.14,0,2.17-0.68,2.61-1.74
									c0.03-0.07,0.1-0.12,0.18-0.12c0.08,0,0.15,0.05,0.18,0.12c0.44,1.06,1.46,1.74,2.61,1.74s2.17-0.68,2.61-1.74
									c0.03-0.07,0.1-0.12,0.18-0.12s0.15,0.05,0.18,0.12c0.44,1.06,1.46,1.74,2.61,1.74s2.17-0.68,2.61-1.74
									c0.03-0.07,0.1-0.12,0.18-0.12s0.15,0.05,0.18,0.12c0.44,1.06,1.46,1.74,2.61,1.74c1.14,0,2.17-0.68,2.61-1.74
									c0.03-0.07,0.1-0.12,0.18-0.12c0.08,0,0.15,0.05,0.18,0.12c0.44,1.06,1.46,1.74,2.61,1.74c1.14,0,2.17-0.68,2.61-1.74
									c0.03-0.07,0.1-0.12,0.18-0.12c0.08,0,0.15,0.05,0.18,0.12c0.44,1.06,1.46,1.74,2.61,1.74c1.14,0,2.17-0.68,2.61-1.74
									c0.03-0.07,0.1-0.12,0.18-0.12c0.08,0,0.15,0.05,0.18,0.12c0.44,1.06,1.46,1.74,2.61,1.74c1.14,0,2.17-0.68,2.61-1.74
									c0.03-0.07,0.1-0.12,0.18-0.12s0.15,0.05,0.18,0.12c0.44,1.06,1.46,1.74,2.61,1.74V25.01z"/>
							</g>
						</g>
					</g>
					<g>
						<g>
							<g>
								<path class="st16" d="M36.07,27.69c-1.17,0-2.22-0.62-2.79-1.61c-0.57,0.99-1.62,1.61-2.79,1.61
									c-1.17,0-2.22-0.62-2.79-1.61c-0.57,0.99-1.62,1.61-2.79,1.61c-1.17,0-2.22-0.62-2.79-1.61c-0.57,0.99-1.62,1.61-2.79,1.61
									c-1.17,0-2.22-0.62-2.79-1.61c-0.57,0.99-1.62,1.61-2.79,1.61s-2.22-0.62-2.79-1.61c-0.57,0.99-1.62,1.61-2.79,1.61v-0.4
									c1.14,0,2.17-0.68,2.61-1.74c0.03-0.07,0.1-0.12,0.18-0.12l0,0c0.08,0,0.15,0.05,0.18,0.12c0.44,1.06,1.46,1.74,2.61,1.74
									s2.17-0.68,2.61-1.74c0.03-0.07,0.1-0.12,0.18-0.12s0.15,0.05,0.18,0.12c0.44,1.06,1.46,1.74,2.61,1.74
									c1.14,0,2.17-0.68,2.61-1.74c0.03-0.07,0.1-0.12,0.18-0.12l0,0c0.08,0,0.15,0.05,0.18,0.12c0.44,1.06,1.46,1.74,2.61,1.74
									c1.14,0,2.17-0.68,2.61-1.74c0.03-0.07,0.1-0.12,0.18-0.12l0,0c0.08,0,0.15,0.05,0.18,0.12c0.44,1.06,1.46,1.74,2.61,1.74
									c1.14,0,2.17-0.68,2.61-1.74c0.03-0.07,0.1-0.12,0.18-0.12l0,0c0.08,0,0.15,0.05,0.18,0.12c0.44,1.06,1.46,1.74,2.61,1.74
									V27.69z"/>
							</g>
						</g>
					</g>
				</g>
			</g>
		</g>
	</g>
	<g class="st18">
		<path class="st7" d="M13.86,30.7h0.47v0.12l0.04,0.04h0.27l0.04-0.04V30.7l-0.83-0.31v-0.48l0.3-0.3h0.71l0.3,0.3v0.27h-0.47
			v-0.12l-0.04-0.04h-0.27l-0.04,0.04v0.13l0.83,0.31v0.48l-0.3,0.3h-0.71l-0.3-0.3V30.7z"/>
		<path class="st7" d="M16.75,29.78v1.33l0.09,0.09v0.07h-0.66V31.2l0.09-0.09v-0.46h-0.36v0.46l0.09,0.09v0.07h-0.66V31.2
			l0.09-0.09v-1.33l-0.09-0.09v-0.07h0.66v0.07l-0.09,0.09v0.46h0.36v-0.46l-0.09-0.09v-0.07h0.66v0.07L16.75,29.78z"/>
		<path class="st7" d="M18.66,31.2v0.07h-0.7V31.2l0.08-0.09l-0.02-0.09h-0.4l-0.02,0.09l0.08,0.09v0.07h-0.7V31.2l0.13-0.09
			l0.34-1.33l-0.09-0.09v-0.07h0.94v0.07l-0.09,0.09l0.34,1.33L18.66,31.2z M17.92,30.61l-0.11-0.48l-0.11,0.48H17.92z"/>
		<path class="st7" d="M20.22,31.2v0.07h-0.53L19.5,30.8h-0.14v0.31l0.09,0.09v0.07h-0.66V31.2l0.09-0.09v-1.33l-0.09-0.09v-0.07
			h1.1l0.3,0.3v0.59l-0.21,0.21l0.15,0.4L20.22,31.2z M19.36,30.39h0.31l0.04-0.04v-0.3l-0.04-0.04h-0.31V30.39z"/>
		<path class="st7" d="M21.79,31.2v0.07h-0.51l-0.36-0.69v0.52l0.09,0.09v0.07h-0.66V31.2l0.09-0.09v-1.33l-0.09-0.09v-0.07h0.66
			v0.07l-0.09,0.09v0.51l0.32-0.68h0.51v0.07l-0.09,0.09l-0.29,0.66l0.33,0.67L21.79,31.2z"/>
		<path class="st7" d="M25.19,29.78v1.33l0.09,0.09v0.07h-0.66V31.2l0.09-0.09v-0.52l-0.27,0.47h-0.22l-0.27-0.47v0.52l0.09,0.09
			v0.07h-0.66V31.2l0.09-0.09v-1.33l-0.09-0.09v-0.07h0.62l0.34,0.64l0.34-0.64h0.62v0.07L25.19,29.78z"/>
		<path class="st7" d="M27.1,31.2v0.07h-0.7V31.2l0.08-0.09l-0.02-0.09h-0.4l-0.02,0.09l0.08,0.09v0.07h-0.7V31.2l0.13-0.09
			l0.34-1.33l-0.09-0.09v-0.07h0.94v0.07l-0.09,0.09l0.34,1.33L27.1,31.2z M26.37,30.61l-0.11-0.48l-0.11,0.48H26.37z"/>
		<path class="st7" d="M28.41,30.11h-0.07l-0.1-0.09h-0.27v1.09l0.09,0.09v0.07h-0.66V31.2l0.09-0.1v-1.09h-0.27l-0.1,0.09h-0.07
			l0.04-0.5h1.27L28.41,30.11z"/>
		<path class="st7" d="M29.99,29.78v1.33l0.09,0.09v0.07h-0.66V31.2l0.09-0.09v-0.46h-0.36v0.46l0.09,0.09v0.07h-0.66V31.2
			l0.09-0.09v-1.33l-0.09-0.09v-0.07h0.66v0.07l-0.09,0.09v0.46h0.36v-0.46l-0.09-0.09v-0.07h0.66v0.07L29.99,29.78z"/>
	</g>
</g>
</svg>
