<?xml version="1.0" encoding="utf-8"?>
<!-- Generator: Adobe Illustrator 27.9.0, SVG Export Plug-In . SVG Version: 6.00 Build 0)  -->
<svg version="1.1" id="레이어_1" xmlns="http://www.w3.org/2000/svg" xmlns:xlink="http://www.w3.org/1999/xlink" x="0px"
	 y="0px" width="30px" height="30px" viewBox="0 0 30 30" style="enable-background:new 0 0 30 30;" xml:space="preserve">
<style type="text/css">
	.st0{fill:#FFFFFF;}
	.st1{fill:#D2D2D2;}
	.st2{clip-path:url(#SVGID_00000114794926467244439210000003190070626556603567_);}
</style>
<g id="그룹_1087" transform="translate(-1381.227 -11.227)">
	<circle id="타원_37" class="st0" cx="1396.2" cy="26.2" r="15"/>
	<path id="타원_37_-_윤곽선" class="st1" d="M1396.2,12.2c-7.8,0-14.1,6.3-14.1,14.1c0,3.7,1.5,7.3,4.1,9.9
		c5.5,5.5,14.4,5.5,19.9,0s5.5-14.4,0-19.9C1403.5,13.6,1400,12.2,1396.2,12.2 M1396.2,11.2c8.3,0,15,6.7,15,15s-6.7,15-15,15
		c-8.3,0-15-6.7-15-15S1387.9,11.2,1396.2,11.2z"/>
	<g id="그룹_970" transform="translate(1381 11)">
		<circle id="타원_38" class="st1" cx="15.2" cy="12.4" r="5.6"/>
		<path id="타원_38_-_윤곽선" class="st1" d="M15.2,7.7c-2.6,0-4.7,2.1-4.7,4.7s2.1,4.7,4.7,4.7s4.7-2.1,4.7-4.7
			C19.9,9.8,17.8,7.7,15.2,7.7 M15.2,6.8c3.1,0,5.6,2.5,5.6,5.6S18.3,18,15.2,18s-5.6-2.5-5.6-5.6S12.1,6.8,15.2,6.8z"/>
		<g>
			<defs>
				<circle id="SVGID_1_" cx="15.2" cy="15.2" r="15"/>
			</defs>
			<clipPath id="SVGID_00000161595509832076133890000002234330622607163782_">
				<use xlink:href="#SVGID_1_"  style="overflow:visible;"/>
			</clipPath>
			<g id="마스크_그룹_47" style="clip-path:url(#SVGID_00000161595509832076133890000002234330622607163782_);">
				<ellipse id="타원_39" class="st1" cx="15.2" cy="29.8" rx="10.3" ry="9.8"/>
				<path id="타원_39_-_윤곽선" class="st1" d="M15.2,20.9c-5-0.1-9.2,3.9-9.4,8.9c0.1,5,4.3,9,9.4,8.9c5,0.1,9.2-3.9,9.4-8.9
					C24.5,24.7,20.3,20.7,15.2,20.9 M15.2,19.9c5.6-0.1,10.2,4.3,10.3,9.8c-0.1,5.6-4.7,10-10.3,9.8C9.7,39.7,5,35.3,4.9,29.8
					C5,24.2,9.7,19.8,15.2,19.9z"/>
			</g>
		</g>
	</g>
</g>
</svg>
