<svg xmlns="http://www.w3.org/2000/svg" width="18" height="18" viewBox="0 0 18 18">
  <g id="그룹_1201" data-name="그룹 1201" transform="translate(-828 -50)">
    <path id="Icon_awesome-book" data-name="Icon awesome-book" d="M13.563,10.9V.727A.725.725,0,0,0,12.836,0H2.906A2.907,2.907,0,0,0,0,2.906v9.688A2.907,2.907,0,0,0,2.906,15.5h9.93a.725.725,0,0,0,.727-.727v-.484a.732.732,0,0,0-.269-.566,6.751,6.751,0,0,1,0-2.261A.721.721,0,0,0,13.563,10.9ZM3.875,4.057a.182.182,0,0,1,.182-.182h6.418a.182.182,0,0,1,.182.182v.605a.182.182,0,0,1-.182.182H4.057a.182.182,0,0,1-.182-.182Zm0,1.938a.182.182,0,0,1,.182-.182h6.418a.182.182,0,0,1,.182.182V6.6a.182.182,0,0,1-.182.182H4.057A.182.182,0,0,1,3.875,6.6Zm7.671,7.568H2.906a.969.969,0,0,1,0-1.937h8.64A10.9,10.9,0,0,0,11.546,13.563Z" transform="translate(830.219 51.25)" fill="#979797"/>
    <rect id="사각형_586" data-name="사각형 586" width="18" height="18" transform="translate(828 50)" fill="none"/>
  </g>
</svg>
