<?xml version="1.0" encoding="utf-8"?>
<!-- Generator: Adobe Illustrator 27.9.0, SVG Export Plug-In . SVG Version: 6.00 Build 0)  -->
<svg version="1.1" id="레이어_1" xmlns="http://www.w3.org/2000/svg" xmlns:xlink="http://www.w3.org/1999/xlink" x="0px"
	 y="0px" width="44px" height="44px" viewBox="0 0 44 44" style="enable-background:new 0 0 44 44;" xml:space="preserve">
<style type="text/css">
	.st0{fill:#FF0000;}
	.st1{fill:#FFFFFF;}
</style>
<path class="st0" d="M43.04,11.41c-0.52-1.9-2-3.38-3.9-3.9c-3.42-0.93-17.17-0.93-17.17-0.93S8.22,6.61,4.8,7.54
	c-1.9,0.52-3.38,2-3.9,3.9C0,14.85,0,22,0,22s0,7.15,0.93,10.59c0.52,1.9,2,3.38,3.9,3.9C8.25,37.42,22,37.42,22,37.42
	s13.75,0,17.17-0.93c1.9-0.52,3.38-2,3.9-3.9C44,29.17,44,22,44,22S43.97,14.85,43.04,11.41z"/>
<path class="st1" d="M17.59,28.61L29,22l-11.41-6.61L17.59,28.61z"/>
</svg>
