<svg xmlns="http://www.w3.org/2000/svg" width="18" height="18" viewBox="0 0 18 18">
  <g id="그룹_1202" data-name="그룹 1202" transform="translate(-832 -47)">
    <g id="Icon_ionic-ios-cart" data-name="Icon ionic-ios-cart" transform="translate(829.769 44.257)">
      <path id="패스_57" data-name="패스 57" d="M11.375,29.031a.906.906,0,1,1-.906-.906.906.906,0,0,1,.906.906Z" transform="translate(-2.862 -10.944)" fill="#979797"/>
      <path id="패스_58" data-name="패스 58" d="M27.16,29.031a.906.906,0,1,1-.906-.906.906.906,0,0,1,.906.906Z" transform="translate(-10.172 -10.944)" fill="#979797"/>
      <path id="패스_59" data-name="패스 59" d="M19.075,7.071a.222.222,0,0,0-.2-.159L6.583,5.724A.378.378,0,0,1,6.3,5.546a3.844,3.844,0,0,0-.461-.7C5.549,4.489,5,4.5,4,4.493a.55.55,0,0,0-.615.532.54.54,0,0,0,.589.532,5.016,5.016,0,0,1,.982.072c.177.053.321.344.374.6a.014.014,0,0,0,0,.011c.008.045.076.385.076.389l1.51,7.988a2.936,2.936,0,0,0,.547,1.348,1.507,1.507,0,0,0,1.242.612h8.932a.537.537,0,0,0,.544-.506.526.526,0,0,0-.529-.551H8.7a.439.439,0,0,1-.313-.106,1.694,1.694,0,0,1-.434-.982l-.162-.895a.021.021,0,0,1,.015-.023l10.483-1.774a.221.221,0,0,0,.185-.2l.6-4.371A.215.215,0,0,0,19.075,7.071Z" fill="#979797"/>
    </g>
    <g id="그룹_1201" data-name="그룹 1201" transform="translate(4 -3)">
      <rect id="사각형_586" data-name="사각형 586" width="18" height="18" transform="translate(828 50)" fill="none"/>
    </g>
  </g>
</svg>
