<?xml version="1.0" encoding="utf-8"?>
<!-- Generator: Adobe Illustrator 27.9.0, SVG Export Plug-In . SVG Version: 6.00 Build 0)  -->
<svg version="1.1" id="Layer_1" xmlns="http://www.w3.org/2000/svg" xmlns:xlink="http://www.w3.org/1999/xlink" x="0px" y="0px"
	 width="43px" height="55px" viewBox="0 0 43 55" style="enable-background:new 0 0 43 55;" xml:space="preserve">
<style type="text/css">
	.st0{fill:#20386B;}
	.st1{fill:#1C75BB;}
	.st2{fill:#5FC4EB;}
	.st3{fill:#5CC3E8;}
	.st4{fill:#4C71B6;}
	.st5{fill:#202834;}
	.st6{opacity:0.32;}
	.st7{fill:#000001;}
	.st8{opacity:0.31;}
	.st9{opacity:0.35;}
	.st10{opacity:0.38;}
	.st11{fill:#253161;}
	.st12{fill-rule:evenodd;clip-rule:evenodd;fill:#FFFFFF;}
	.st13{fill-rule:evenodd;clip-rule:evenodd;fill:#AED2EF;}
	.st14{fill-rule:evenodd;clip-rule:evenodd;fill:#253161;}
	.st15{clip-path:url(#SVGID_00000069358460745739203540000002600451567490257048_);}
	.st16{fill:#6FC5D1;}
	.st17{clip-path:url(#SVGID_00000040569030474629680430000002470508499070934462_);}
	.st18{opacity:0.54;}
	.st19{fill:#004BF2;}
</style>
<g>
	<g>
		<g>
			<circle class="st0" cx="21.5" cy="21.5" r="21.5"/>
		</g>
		<g>
			<circle class="st1" cx="21.4" cy="21.6" r="12.6"/>
		</g>
		<g>
			<path class="st2" d="M38.2,21.6c-1.2,0-2.3,0.9-2.5,2.1c-1,6.9-7,12.3-14.3,12.3S8.3,30.7,7.2,23.8C7,22.5,6,21.6,4.7,21.6l0,0
				c-1.5,0-2.7,1.4-2.5,2.9C3.7,33.8,11.7,41,21.5,41s17.8-7.2,19.2-16.5C40.9,23,39.7,21.6,38.2,21.6L38.2,21.6z"/>
		</g>
		<g>
			<g>
				<path class="st3" d="M21.3,35.3c-7.6,0-13.8-6.2-13.8-13.8S13.7,7.8,21.3,7.8s13.8,6.2,13.8,13.8S28.9,35.3,21.3,35.3z
					 M21.3,8.1c-7.4,0-13.5,6-13.5,13.5S13.9,35,21.3,35s13.5-6,13.5-13.5S28.7,8.1,21.3,8.1z"/>
			</g>
		</g>
		<g>
			<g>
				<path class="st4" d="M21.5,42.1c-5.5,0-10.6-2.1-14.5-6c-3.9-3.9-6-9-6-14.5S3.1,11,7,7.2s9-6,14.5-6s10.6,2.1,14.5,6
					s6,9,6,14.5s-2.1,10.6-6,14.5S26.9,42.1,21.5,42.1z M21.5,1.5C16.1,1.5,11,3.6,7.2,7.4c-3.8,3.8-5.9,8.9-5.9,14.3
					s2.1,10.4,5.9,14.2c3.8,3.8,8.9,5.9,14.2,5.9s10.4-2.1,14.2-5.9c3.8-3.8,5.9-8.9,5.9-14.2c0-5.4-2.1-10.4-5.9-14.2
					C31.9,3.6,26.9,1.5,21.5,1.5z"/>
			</g>
		</g>
		<g>
			<path class="st5" d="M8.9,30.8c0.1-0.1,0.1-0.1,0.2-0.1c0.1,0,0.1,0,0.1,0.1l1.2,1.2l-0.2,0.2l-0.7-0.7l-2.3,2.3l0.8,0.8L8,34.8
				l-1.4-1.3c0,0-0.1-0.1-0.1-0.1c0-0.1,0-0.1,0.1-0.2L8.9,30.8z M7.9,35.2l2.6-2.7c0.1-0.1,0.1-0.1,0.1-0.2c0,0,0-0.1,0-0.2
				c0-0.1,0-0.1,0.1-0.2c0,0,0.1,0,0.1,0l0.5,0.5c0,0,0.1,0.1,0.1,0.1c0,0.1,0,0.1-0.1,0.2L10.3,34l0.3,0.3l0.8-0.9
				c0.1-0.1,0.1-0.1,0.1-0.1c0,0,0-0.1,0.1-0.1c0-0.1,0-0.1,0.1-0.2c0,0,0.1,0,0.1,0l0.5,0.5c0,0,0.1,0.1,0.1,0.1
				c0,0.1,0,0.1-0.1,0.2l-2.7,2.7c-0.1,0.1-0.1,0.1-0.2,0.1c-0.1,0-0.1,0-0.1-0.1l-0.4-0.4l1.6-1.6l-0.3-0.3l-1.4,1.5
				c-0.1,0.1-0.1,0.1-0.2,0.1c-0.1,0-0.1,0-0.1-0.1L7.9,35.2z"/>
			<path class="st5" d="M13.3,34.7L13.3,34.7c0-0.1,0-0.1,0.1-0.1c0,0,0-0.1,0-0.1c0-0.1,0-0.1,0-0.2c0,0,0.1,0,0.1,0l0.7,0.4
				c0.1,0,0.1,0.1,0.1,0.1s0,0.1,0,0.2l-0.1,0.2l0.8,0.4l-0.1,0.2l-0.8-0.4L14,35.6c-0.1,0.3-0.3,0.5-0.4,0.7
				c-0.1,0.2-0.3,0.4-0.4,0.5c0.1,0.1,0.2,0.1,0.3,0.2c0.1,0.1,0.2,0.2,0.2,0.3c0.1,0.1,0.1,0.2,0.1,0.4c0,0.1,0,0.3,0,0.4
				c0,0.1-0.1,0.2-0.1,0.2s-0.1,0.1-0.2,0.1c-0.1,0-0.1,0-0.2,0c-0.1,0-0.1,0-0.2,0c-0.1,0-0.1-0.1-0.2-0.1c0,0-0.1-0.1-0.1-0.2
				c0-0.1,0-0.2,0-0.2c0-0.1,0-0.2,0.1-0.2c0-0.1,0.1-0.1,0.1-0.2c0-0.1,0-0.1,0-0.2c0,0,0-0.1,0-0.1c0,0,0-0.1-0.1-0.1
				c-0.3,0.2-0.6,0.3-1,0.4s-0.8,0-1.2-0.1l0-0.1c0.1,0,0.3,0,0.4,0c0.1,0,0.3-0.1,0.4-0.1c0.1-0.1,0.3-0.1,0.4-0.2
				c0.1-0.1,0.3-0.2,0.4-0.4c0.1-0.2,0.3-0.4,0.4-0.6c0.1-0.2,0.3-0.5,0.5-0.8l0.1-0.2l-0.9-0.4l0.1-0.2L13.3,34.7z M13.7,39.2
				l1.7-3.4c0-0.1,0.1-0.1,0.1-0.2c0,0,0-0.1,0-0.2c0-0.1,0-0.1,0-0.2c0,0,0.1,0,0.1,0l0.8,0.4c0.1,0,0.1,0.1,0.1,0.1
				c0,0,0,0.1,0,0.2l-1.7,3.4c0,0.1-0.1,0.1-0.1,0.1s-0.1,0-0.2,0L13.7,39.2z"/>
			<path class="st5" d="M18.9,36.7c0,0.2-0.1,0.3-0.1,0.5c-0.1,0.1-0.1,0.3-0.2,0.4c0.1,0,0.2,0.1,0.3,0.1c0.1,0,0.2,0.1,0.3,0.2
				c0.1,0.1,0.2,0.2,0.2,0.3c0.1,0.1,0.1,0.2,0.1,0.4c0,0.1,0,0.2,0,0.2s-0.1,0.1-0.1,0.2c0,0-0.1,0.1-0.2,0.1c-0.1,0-0.1,0-0.2,0
				c-0.1,0-0.1,0-0.2,0c-0.1,0-0.1-0.1-0.1-0.1c-0.1-0.1-0.1-0.1-0.1-0.2c0-0.1,0-0.2,0-0.2c0-0.1,0-0.1,0-0.2c0-0.1,0-0.1-0.1-0.2
				c0,0-0.1-0.1-0.2-0.1c-0.2,0.2-0.5,0.4-0.8,0.6c-0.3,0.1-0.7,0.2-1.1,0.3l-0.1-0.1c0.2-0.1,0.4-0.2,0.6-0.4
				c0.2-0.2,0.4-0.4,0.5-0.6c0-0.1,0.1-0.1,0.1-0.2c0-0.1,0.1-0.1,0.1-0.2s0.1-0.1,0.1-0.2c0-0.1,0.1-0.2,0.1-0.3c0-0.1,0-0.1,0-0.2
				c0,0,0-0.1-0.1-0.2c0-0.1,0-0.1,0-0.2c0,0,0-0.1,0.1,0l0.9,0.1c0.1,0,0.1,0,0.2,0.1c0,0,0.1,0.1,0,0.2L18.9,36.7z M20.6,40.2
				c0,0.2-0.1,0.3-0.2,0.3c-0.1,0.1-0.3,0.1-0.4,0.2c-0.2,0-0.4,0-0.6,0c-0.2,0-0.4,0-0.6-0.1l-0.1,0c-0.2,0-0.4-0.1-0.7-0.1
				c-0.2-0.1-0.4-0.1-0.6-0.2c-0.2-0.1-0.3-0.2-0.4-0.3c-0.1-0.1-0.1-0.2-0.1-0.4l0-0.1c0-0.1,0.1-0.3,0.2-0.3
				c0.1-0.1,0.3-0.1,0.5-0.2c0.2,0,0.4,0,0.6,0c0.2,0,0.4,0,0.7,0.1l0.1,0c0.2,0,0.4,0.1,0.6,0.1c0.2,0,0.4,0.1,0.5,0.2
				c0.2,0.1,0.3,0.2,0.4,0.3S20.6,39.9,20.6,40.2L20.6,40.2z M17.8,39.8c0,0.1,0,0.2,0,0.3c0,0.1,0.1,0.1,0.2,0.2
				c0.1,0,0.2,0.1,0.3,0.1c0.1,0,0.2,0,0.2,0.1l0.1,0c0.1,0,0.2,0,0.2,0c0.1,0,0.2,0,0.3,0c0.1,0,0.2-0.1,0.2-0.1s0.1-0.2,0.1-0.3
				l0-0.1c0-0.1,0-0.2,0-0.3c0-0.1-0.1-0.1-0.2-0.2s-0.2-0.1-0.2-0.1c-0.1,0-0.2,0-0.2-0.1l-0.1,0c-0.1,0-0.2,0-0.3,0
				c-0.1,0-0.2,0-0.3,0c-0.1,0-0.2,0.1-0.2,0.1C17.9,39.5,17.9,39.5,17.8,39.8L17.8,39.8z M19.7,39.1L20,37c0-0.1,0-0.1,0-0.2
				c0,0,0-0.1-0.1-0.2c0-0.1,0-0.1,0-0.2c0,0,0-0.1,0.1,0l0.8,0.1c0.1,0,0.1,0,0.2,0.1c0,0,0.1,0.1,0,0.2l-0.2,1l0.6,0.1l0,0.2
				l-0.6-0.1L20.7,39c0,0.1,0,0.2-0.1,0.2c0,0-0.1,0-0.2,0L19.7,39.1z"/>
			<path class="st5" d="M25.6,40.4l-0.3-2.1l-0.4,0.1v0c0,0.3,0.1,0.6,0.1,0.8c0,0.2-0.1,0.5-0.2,0.6s-0.2,0.3-0.4,0.4
				c-0.2,0.1-0.4,0.2-0.6,0.2l0,0c-0.3,0-0.5,0-0.7,0c-0.2-0.1-0.4-0.2-0.5-0.3c-0.1-0.1-0.3-0.3-0.3-0.5c-0.1-0.2-0.2-0.5-0.2-0.8
				l0-0.1c-0.1-0.6-0.1-1.1,0.1-1.5c0.2-0.4,0.5-0.6,1-0.7l0.1,0c0.5-0.1,0.8,0,1.1,0.3c0.3,0.3,0.5,0.7,0.6,1.3l0.4-0.1l-0.2-1.4
				c0-0.1,0-0.1-0.1-0.2c0,0-0.1-0.1-0.1-0.1c-0.1-0.1-0.1-0.1-0.1-0.2c0,0,0-0.1,0.1-0.1l0.8-0.1c0.1,0,0.1,0,0.2,0
				c0,0,0.1,0.1,0.1,0.2l0.6,3.8c0,0.1,0,0.2,0,0.2c0,0-0.1,0.1-0.2,0.1L25.6,40.4z M23.6,40.3c0.1,0,0.1-0.1,0.2-0.1
				c0-0.1,0.1-0.2,0.1-0.3c0-0.1,0-0.3,0-0.5c0-0.2-0.1-0.5-0.1-0.8l0-0.1c-0.1-0.6-0.2-1-0.3-1.3c-0.1-0.3-0.2-0.4-0.4-0.4l0,0
				c-0.2,0-0.2,0.2-0.3,0.5c0,0.3,0,0.7,0.1,1.3l0,0.1c0,0.3,0.1,0.6,0.2,0.8c0,0.2,0.1,0.4,0.2,0.5c0.1,0.1,0.1,0.2,0.2,0.3
				C23.4,40.3,23.5,40.3,23.6,40.3L23.6,40.3z"/>
			<path class="st5" d="M29.9,35.2c0.1,0,0.3,0,0.4,0c0.1,0,0.3,0,0.4,0.1c0,0,0.1,0,0.1,0.1c0,0,0.1,0.1,0.1,0.1
				c0,0,0.1,0.1,0.1,0.1c0,0,0,0.1,0,0.1c0,0.1,0,0.1,0,0.2c0,0.1,0,0.1-0.1,0.2c0,0-0.1,0.1-0.1,0.1c-0.1,0-0.1,0.1-0.2,0.1
				c-0.1,0-0.2,0-0.2-0.1c-0.1-0.1-0.1-0.1-0.2-0.2c0,0,0,0-0.1-0.1c0,0-0.1,0-0.1-0.1c0,0-0.1,0-0.1,0c-0.1,0-0.1,0-0.2,0
				c-0.1,0-0.2,0-0.3,0c-0.1,0-0.2,0-0.3,0.1c0,0.1-0.1,0.3-0.2,0.4c-0.1,0.1-0.2,0.3-0.3,0.4c-0.1,0.2-0.3,0.4-0.5,0.6
				c-0.2,0.2-0.4,0.4-0.7,0.5l-0.1-0.1c0.2-0.2,0.3-0.3,0.5-0.5c0.1-0.2,0.2-0.3,0.3-0.5c0.1-0.2,0.1-0.3,0.1-0.5s0-0.3-0.1-0.5
				l-0.1-0.1c0-0.1-0.1-0.1-0.1-0.1c0,0-0.1-0.1-0.1-0.1c-0.1,0-0.1-0.1-0.1-0.1c0,0,0-0.1,0.1-0.1l0.7-0.4c0.1,0,0.1,0,0.2,0
				c0.1,0,0.1,0,0.1,0.1l0.1,0.2c0,0.1,0.1,0.1,0.1,0.2c0,0.1,0,0.1,0,0.2c0.1,0,0.2-0.1,0.3-0.1C29.6,35.3,29.8,35.2,29.9,35.2z
				 M31.6,36.1l0.1,0.2l-1.6,0.8l0.5,1c0,0.1,0.1,0.2,0,0.2c0,0-0.1,0.1-0.1,0.1l-0.7,0.4l-0.7-1.3l-1.5,0.8l-0.1-0.2L31.6,36.1z"/>
			<path class="st5" d="M31.6,34.7c-0.1-0.1-0.2-0.3-0.3-0.4s0-0.4,0-0.6l-0.5,0.5l-0.2-0.2l0.8-0.8c0,0-0.1,0-0.1-0.1s-0.1,0-0.1,0
				c-0.1,0-0.1,0-0.2-0.1c0,0,0-0.1,0-0.1l0.6-0.6c0,0,0.1-0.1,0.1-0.1c0.1,0,0.1,0,0.2,0.1l0.1,0.1l0.8-0.8l0.2,0.2l-0.5,0.5
				c0.2-0.1,0.4-0.1,0.6,0c0.2,0,0.3,0.1,0.4,0.3l0.1,0.1c0.1,0.1,0.2,0.2,0.2,0.3c0,0.1,0.1,0.3,0.1,0.4c0,0.1-0.1,0.3-0.1,0.5
				s-0.2,0.3-0.4,0.5l0,0c-0.2,0.2-0.3,0.3-0.5,0.4s-0.3,0.1-0.5,0.1c-0.1,0-0.3,0-0.4-0.1C31.9,35,31.8,34.9,31.6,34.7L31.6,34.7z
				 M32.3,34.1c0.2,0.2,0.4,0.3,0.5,0.4c0.2,0.1,0.3,0,0.4-0.1l0,0c0.1-0.1,0.1-0.2,0.1-0.4c-0.1-0.2-0.2-0.3-0.4-0.5l-0.1-0.1
				c-0.2-0.2-0.4-0.3-0.5-0.4c-0.1-0.1-0.3,0-0.4,0l-0.1,0.1c-0.1,0.1-0.1,0.2-0.1,0.4C31.9,33.7,32,33.9,32.3,34.1L32.3,34.1z
				 M34.7,33.3l-1.5-1.5c-0.1-0.1-0.1-0.1-0.2-0.1c0,0-0.1,0-0.2,0c-0.1,0-0.1,0-0.2-0.1c0,0,0-0.1,0-0.1l0.6-0.6
				c0,0,0.1-0.1,0.1-0.1c0.1,0,0.1,0,0.2,0.1l0.7,0.7l0.4-0.4l0.2,0.2l-0.4,0.4l0.7,0.7c0.1,0.1,0.1,0.1,0.1,0.2
				c0,0.1,0,0.1-0.1,0.1L34.7,33.3z M35.8,34.4L35,33.7l-1.7,1.7l-0.2-0.2l2.3-2.3c0,0,0.1-0.1,0.1-0.1c0.1,0,0.1,0,0.2,0.1l0.6,0.6
				c0.1,0.1,0.1,0.1,0.1,0.2c0,0.1,0,0.1-0.1,0.1L35.8,34.4z"/>
		</g>
		<g class="st6">
			<g>
				<path class="st7" d="M3.1,16.2c-0.2,0.5,0,1,0.4,1.1l0.8,0.3l-0.2,0.5c0,0.1,0,0.2,0.1,0.2c0.1,0,0.2,0,0.2-0.1l0.2-0.5l1.9,0.6
					c0.3,0.1,0.4,0.4,0.3,0.7s-0.4,0.5-0.6,0.4c-0.1,0-0.2,0-0.2,0.1c0,0.1,0,0.2,0.1,0.2c0.4,0.1,0.8-0.2,1-0.7s0-1-0.4-1.1
					l-1.9-0.6l0.2-0.5c0-0.1,0-0.2-0.1-0.2c-0.1,0-0.2,0-0.2,0.1l-0.2,0.5L3.6,17c-0.3-0.1-0.4-0.4-0.3-0.7C3.5,16,3.8,15.8,4,15.9
					c0.1,0,0.2,0,0.2-0.1c0-0.1,0-0.2-0.1-0.2C3.7,15.5,3.3,15.8,3.1,16.2z"/>
				<path class="st7" d="M6.2,19.8c-0.1,0-0.1,0-0.2,0c0,0-0.1,0-0.1-0.1c0,0,0-0.1,0-0.1c0-0.1,0.1-0.2,0.2-0.1
					c0.1,0,0.2,0,0.4-0.1s0.2-0.2,0.3-0.3c0-0.1,0-0.3,0-0.4c0-0.1-0.1-0.2-0.3-0.3l-1.9-0.6l-0.2,0.5c0,0,0,0.1-0.1,0.1
					c0,0-0.1,0-0.1,0c0,0-0.1,0-0.1-0.1c0,0,0-0.1,0-0.1l0.2-0.5l-0.8-0.3c-0.4-0.1-0.6-0.7-0.4-1.2l0,0c0.1-0.2,0.2-0.4,0.4-0.6
					c0.2-0.1,0.4-0.2,0.6-0.1c0,0,0.1,0,0.1,0.1c0,0,0,0.1,0,0.1c0,0,0,0.1-0.1,0.1c0,0-0.1,0-0.1,0c-0.2-0.1-0.5,0.1-0.6,0.4
					c0,0.1,0,0.3,0,0.4c0,0.1,0.1,0.2,0.3,0.3l0.8,0.3l0.2-0.5c0,0,0-0.1,0.1-0.1c0,0,0.1,0,0.1,0c0.1,0,0.1,0.1,0.1,0.2l-0.2,0.5
					L6.6,18c0.2,0.1,0.4,0.2,0.4,0.4c0.1,0.2,0.1,0.5,0,0.7c-0.1,0.2-0.2,0.4-0.4,0.6C6.5,19.8,6.4,19.8,6.2,19.8z M6.1,19.5
					c-0.1,0-0.1,0-0.1,0.1c0,0,0,0.1,0,0.1c0,0,0,0.1,0.1,0.1c0.2,0.1,0.4,0,0.6-0.1c0.2-0.1,0.3-0.3,0.4-0.5c0.1-0.2,0.1-0.5,0-0.7
					c-0.1-0.2-0.2-0.4-0.4-0.4l-1.9-0.6l0.2-0.5c0-0.1,0-0.2-0.1-0.2c0,0-0.1,0-0.1,0s-0.1,0.1-0.1,0.1l-0.2,0.5l-0.8-0.3
					c-0.1,0-0.2-0.1-0.3-0.3c-0.1-0.1-0.1-0.3,0-0.5C3.5,16,3.8,15.8,4,15.9c0,0,0.1,0,0.1,0c0,0,0.1-0.1,0.1-0.1c0,0,0-0.1,0-0.1
					c0,0,0-0.1-0.1-0.1c-0.2-0.1-0.4,0-0.6,0.1c-0.2,0.1-0.3,0.3-0.4,0.5l0,0c-0.2,0.5,0,1,0.4,1.1l0.8,0.3l-0.2,0.5
					c0,0,0,0.1,0,0.1c0,0,0,0.1,0.1,0.1c0,0,0.1,0,0.1,0c0,0,0.1-0.1,0.1-0.1l0.2-0.5l1.9,0.6c0.1,0,0.2,0.1,0.3,0.3
					c0.1,0.1,0.1,0.3,0,0.5s-0.1,0.3-0.3,0.4C6.4,19.5,6.3,19.5,6.1,19.5C6.1,19.5,6.1,19.5,6.1,19.5z"/>
			</g>
			<g>
				<path class="st7" d="M7.2,16.5l-0.2-0.6c0-0.1-0.1-0.1-0.2-0.1c-0.1,0-0.1,0.2-0.1,0.2l0.2,0.6L6.4,17c-0.1,0-0.1,0.2-0.1,0.2
					s0.1,0.1,0.2,0.1L7,17l0.2,0.6c0,0.1,0.1,0.1,0.2,0.1c0,0,0.1-0.1,0.1-0.1c0,0,0-0.1,0-0.1l-0.2-0.6l0.6-0.4
					c0,0,0.1-0.1,0.1-0.1c0,0,0-0.1,0-0.1c0-0.1-0.1-0.1-0.2-0.1L7.2,16.5z"/>
				<path class="st7" d="M7.4,17.7C7.4,17.7,7.4,17.7,7.4,17.7c-0.1,0-0.1,0-0.1-0.1L7,17l-0.6,0.4c0,0-0.1,0-0.1,0
					c0,0-0.1,0-0.1-0.1c0-0.1,0-0.2,0.1-0.3l0.6-0.4L6.7,16c0-0.1,0-0.2,0.1-0.3c0,0,0.1,0,0.1,0c0,0,0.1,0,0.1,0.1l0.2,0.6l0.6-0.4
					c0,0,0.1,0,0.1,0c0,0,0.1,0,0.1,0.1c0,0,0,0.1,0,0.1c0,0,0,0.1-0.1,0.1l-0.6,0.4l0.2,0.6c0,0,0,0.1,0,0.1
					C7.6,17.6,7.5,17.6,7.4,17.7C7.5,17.7,7.4,17.7,7.4,17.7z M7.1,16.9l0.3,0.7c0,0,0,0.1,0.1,0.1c0,0,0.1,0,0.1,0
					c0,0,0.1-0.1,0.1-0.1c0,0,0-0.1,0-0.1l-0.3-0.7l0.6-0.4c0,0,0.1-0.1,0.1-0.1c0,0,0-0.1,0-0.1c0,0,0-0.1-0.1-0.1c0,0-0.1,0-0.1,0
					l-0.6,0.4l-0.3-0.7c0,0,0-0.1-0.1-0.1c0,0-0.1,0-0.1,0c-0.1,0-0.1,0.1-0.1,0.2L7,16.7l-0.6,0.4c-0.1,0-0.1,0.1-0.1,0.2
					c0,0,0,0.1,0.1,0.1c0,0,0.1,0,0.1,0L7.1,16.9z"/>
			</g>
		</g>
		<g class="st8">
			<path class="st7" d="M12.2,5.8c-0.4,0-0.8,0.1-1.1,0.4c-0.3,0.3-0.5,0.6-0.5,1l-0.1,1.1L9.5,8.3C8.7,8.2,8,8.9,7.9,9.7
				c0,0.8,0.6,1.5,1.4,1.5c0.4,0,0.8-0.1,1.1-0.4c0.3-0.3,0.5-0.6,0.5-1l0.1-1.1L12,8.8c0.4,0,0.8-0.1,1.1-0.4
				c0.3-0.3,0.5-0.6,0.5-1C13.6,6.6,13,5.9,12.2,5.8z M10.5,9.8c0,0.6-0.6,1.1-1.2,1.1c-0.6,0-1.1-0.6-1.1-1.2
				c0-0.3,0.2-0.6,0.4-0.8c0.2-0.2,0.5-0.3,0.8-0.3l1.1,0.1L10.5,9.8z M13.2,7.4c0,0.3-0.1,0.6-0.4,0.8c-0.2,0.2-0.5,0.3-0.8,0.3
				l-1.1-0.1L11,7.2c0-0.3,0.1-0.6,0.4-0.8s0.5-0.3,0.8-0.3C12.8,6.2,13.2,6.8,13.2,7.4z"/>
			<path class="st7" d="M9.4,11.2C9.4,11.2,9.3,11.2,9.4,11.2c-0.9,0-1.5-0.7-1.5-1.6c0-0.8,0.7-1.4,1.6-1.4l1.1,0.1l0.1-1.1
				c0-0.4,0.2-0.8,0.5-1c0.3-0.3,0.7-0.4,1.1-0.4s0.8,0.2,1,0.5c0.3,0.3,0.4,0.7,0.4,1.1c0,0.4-0.2,0.8-0.5,1
				c-0.3,0.3-0.7,0.4-1.1,0.4l-1.1-0.1l-0.1,1.1c0,0.4-0.2,0.8-0.5,1C10.1,11.1,9.8,11.2,9.4,11.2z M9.4,8.3C8.6,8.3,8,8.9,8,9.7
				c0,0.8,0.6,1.5,1.4,1.5c0.4,0,0.8-0.1,1-0.4c0.3-0.3,0.5-0.6,0.5-1l0.1-1.1L12,8.7c0.4,0,0.8-0.1,1-0.4c0.3-0.3,0.5-0.6,0.5-1
				c0-0.4-0.1-0.8-0.4-1c-0.3-0.3-0.6-0.5-1-0.5l0,0c-0.4,0-0.8,0.1-1,0.4c-0.3,0.3-0.5,0.6-0.5,1l-0.1,1.1L9.4,8.3
				C9.4,8.3,9.4,8.3,9.4,8.3z M9.4,10.9C9.4,10.9,9.4,10.9,9.4,10.9c-0.7,0-1.2-0.6-1.1-1.2c0-0.3,0.2-0.6,0.4-0.8
				c0.2-0.2,0.5-0.3,0.8-0.3l1.1,0.1l-0.1,1.1h0h0c0,0.3-0.2,0.6-0.4,0.8C9.9,10.8,9.7,10.9,9.4,10.9z M9.4,8.6
				c-0.3,0-0.5,0.1-0.7,0.3C8.4,9.1,8.3,9.4,8.3,9.7c0,0.6,0.4,1.1,1,1.2c0.3,0,0.6-0.1,0.8-0.3c0.2-0.2,0.3-0.5,0.4-0.8l0.1-1.1
				L9.4,8.6C9.4,8.6,9.4,8.6,9.4,8.6z M12.1,8.4C12.1,8.4,12.1,8.4,12.1,8.4l-1.2-0.1L11,7.2c0-0.3,0.2-0.6,0.4-0.8
				c0.2-0.2,0.5-0.3,0.8-0.3c0.6,0,1.1,0.6,1.1,1.2l0,0c0,0.3-0.2,0.6-0.4,0.8C12.6,8.3,12.4,8.4,12.1,8.4z M10.9,8.3L12,8.4
				c0.3,0,0.6-0.1,0.8-0.3c0.2-0.2,0.3-0.5,0.4-0.8c0-0.6-0.4-1.1-1-1.2c-0.3,0-0.6,0.1-0.8,0.3C11.1,6.7,11,6.9,11,7.2L10.9,8.3z"
				/>
		</g>
		<g class="st9">
			<path class="st7" d="M31.7,5.5l-3.2-1.2c-0.4-0.1-0.8-0.1-1,0.1l-0.2,0.2c-0.1,0.1-0.1,0.2,0,0.2c0,0,0,0,0.1,0
				c0.1,0,0.1,0,0.2,0l0.2-0.2c0.2-0.1,0.4-0.2,0.7-0.1l0.5,0.2l-0.8,2.1c-0.2,0.4-0.7,0.6-1.2,0.4c-0.1,0-0.2,0-0.2,0.1
				s0,0.2,0.1,0.2c0.7,0.3,1.4,0,1.6-0.6l0.8-2.1L30,5.2l-1,2.6c-0.1,0.3,0.1,0.7,0.5,0.9c0.4,0.2,0.8,0,0.9-0.3
				c0-0.1,0-0.2-0.1-0.2c-0.1,0-0.2,0-0.2,0.1c-0.1,0.2-0.3,0.3-0.5,0.2c-0.2-0.1-0.3-0.3-0.3-0.5l1-2.6l1.3,0.5
				c0.1,0,0.2,0,0.2-0.1C31.9,5.6,31.8,5.6,31.7,5.5z"/>
			<path class="st7" d="M29.8,8.7c-0.1,0-0.2,0-0.3-0.1c-0.2-0.1-0.4-0.2-0.5-0.4c-0.1-0.2-0.1-0.4,0-0.5l1-2.6l-0.7-0.3L28.5,7
				c-0.1,0.3-0.3,0.5-0.7,0.6c-0.3,0.1-0.7,0.1-1,0c0,0-0.1,0-0.1-0.1c0,0,0-0.1,0-0.1s0-0.1,0.1-0.1c0,0,0.1,0,0.1,0
				c0.5,0.2,1,0,1.2-0.4l0.8-2.1l-0.5-0.2c-0.2-0.1-0.5-0.1-0.7,0.1l-0.2,0.2c0,0-0.1,0.1-0.2,0c0,0-0.1,0-0.1,0
				c0,0-0.1-0.1-0.1-0.1c0,0,0-0.1,0.1-0.1l0.2-0.2c0.3-0.2,0.7-0.3,1-0.1l3.2,1.2c0.1,0,0.2,0.1,0.1,0.2c0,0.1-0.1,0.1-0.2,0.1
				l-1.3-0.5l-1,2.6c0,0.1,0,0.2,0,0.3c0,0.1,0.1,0.2,0.2,0.2c0.1,0,0.2,0,0.3,0c0.1,0,0.2-0.1,0.2-0.2c0,0,0-0.1,0.1-0.1
				c0,0,0.1,0,0.1,0s0.1,0,0.1,0.1c0,0,0,0.1,0,0.1c-0.1,0.2-0.2,0.3-0.4,0.4C30,8.7,29.9,8.7,29.8,8.7z M29.2,4.9L30,5.2l-1,2.6
				c-0.1,0.2,0,0.3,0,0.5c0.1,0.2,0.2,0.3,0.4,0.4c0.2,0.1,0.4,0.1,0.6,0c0.2-0.1,0.3-0.2,0.4-0.3c0,0,0-0.1,0-0.1
				c0,0,0-0.1-0.1-0.1c0,0-0.1,0-0.1,0c0,0-0.1,0-0.1,0.1c0,0.1-0.1,0.2-0.2,0.2c-0.1,0-0.2,0-0.3,0c-0.1,0-0.2-0.1-0.2-0.2
				c-0.1-0.1-0.1-0.2,0-0.3l1-2.6l1.3,0.5c0.1,0,0.2,0,0.2-0.1c0-0.1,0-0.1-0.1-0.2l-3.2-1.2c-0.4-0.1-0.8-0.1-1,0.1l-0.2,0.2
				c0,0,0,0,0,0.1c0,0,0,0.1,0,0.1c0,0,0,0,0.1,0c0.1,0,0.1,0,0.2,0l0.2-0.2c0.2-0.1,0.5-0.2,0.7-0.1l0.5,0.2l-0.8,2.2
				c-0.2,0.4-0.7,0.6-1.2,0.4c0,0-0.1,0-0.1,0c0,0-0.1,0-0.1,0.1c0,0,0,0.1,0,0.1c0,0,0,0.1,0.1,0.1c0.3,0.1,0.7,0.1,1,0
				c0.3-0.1,0.5-0.3,0.6-0.6L29.2,4.9z"/>
		</g>
		<g class="st10">
			<path class="st7" d="M32.5,12.2c0,0,0-0.1,0-0.1l0.6-1.6l-0.4-0.3c0,0,0-0.1,0-0.2c0-0.1,0.1-0.1,0.2-0.1l0.4,0.3
				c0,0,0,0.1,0,0.1l-0.5,1.4l2.5-2.2c0,0,0.1,0,0.1,0l2.3,1.5c0,0,0,0.1,0,0.2c0,0.1-0.1,0.1-0.2,0.1l-2.2-1.5l-2.7,2.4
				C32.6,12.2,32.5,12.2,32.5,12.2L32.5,12.2z"/>
			<path class="st7" d="M32.5,12.2C32.5,12.2,32.5,12.2,32.5,12.2L32.5,12.2c-0.1,0-0.1-0.1-0.1-0.2l0.6-1.6l-0.4-0.2
				c-0.1,0-0.1-0.1,0-0.2c0-0.1,0.1-0.1,0.2-0.1l0.4,0.3c0,0,0.1,0.1,0,0.2l-0.5,1.3l2.4-2.2c0,0,0.1-0.1,0.2,0l2.3,1.5
				c0,0,0,0,0,0.1c0,0,0,0.1,0,0.1c0,0.1-0.1,0.1-0.2,0.1l-2.2-1.5l-2.7,2.4C32.6,12.2,32.5,12.2,32.5,12.2z M32.5,12.2
				c0,0,0.1,0,0.1,0l2.7-2.4l2.2,1.5c0,0,0.1,0,0.1-0.1c0,0,0-0.1,0-0.1s0,0,0-0.1l-2.3-1.5c0,0-0.1,0-0.1,0l-2.5,2.3l0.5-1.4
				c0,0,0-0.1,0-0.1L32.8,10c0,0-0.1,0-0.1,0.1c0,0.1,0,0.1,0,0.1l0.4,0.3l-0.6,1.6C32.5,12.1,32.5,12.2,32.5,12.2L32.5,12.2z"/>
		</g>
		<g class="st10">
			<path class="st7" d="M36.5,18.6l-0.9-2.7c0,0,0-0.1,0-0.1c0,0,0.1,0,0.1,0l1.9,0.9l0.9-1.9c0,0,0.1-0.1,0.1-0.1
				c0.1,0,0.1,0,0.1,0.1l0.9,2.7c0,0.1,0,0.1-0.1,0.2l-0.5,0.2c-0.1,0-0.1,0-0.2-0.1c0-0.1,0-0.1,0.1-0.2l0.4-0.1l-0.8-2.3l-0.8,1.7
				c0,0,0,0.1-0.1,0.1c0,0-0.1,0-0.1,0l-1.7-0.8l0.8,2.3l0.4-0.1c0.1,0,0.1,0,0.2,0.1s0,0.1-0.1,0.2l-0.5,0.2
				C36.6,18.7,36.5,18.7,36.5,18.6z"/>
			<path class="st7" d="M36.6,18.7C36.6,18.7,36.6,18.7,36.6,18.7c-0.1,0-0.1-0.1-0.1-0.1l-0.9-2.7c0-0.1,0-0.1,0-0.2
				c0,0,0.1,0,0.2,0l1.9,0.9l0.9-1.9c0-0.1,0.1-0.1,0.1-0.1c0.1,0,0.1,0,0.1,0.1l0.9,2.7c0,0,0,0.1,0,0.1c0,0,0,0.1-0.1,0.1
				l-0.5,0.2c0,0-0.1,0-0.1,0c0,0-0.1,0-0.1-0.1c0-0.1,0-0.2,0.1-0.2l0.4-0.1l-0.8-2.2l-0.8,1.7c0,0,0,0.1-0.1,0.1c0,0-0.1,0-0.1,0
				l-1.7-0.8l0.8,2.2l0.4-0.1c0.1,0,0.2,0,0.2,0.1c0,0.1,0,0.2-0.1,0.2L36.6,18.7C36.6,18.7,36.6,18.7,36.6,18.7z M35.7,15.8
				C35.6,15.8,35.6,15.8,35.7,15.8c-0.1,0.1-0.1,0.1-0.1,0.1l0.9,2.7c0,0,0,0,0.1,0.1c0,0,0.1,0,0.1,0l0.5-0.2
				c0.1,0,0.1-0.1,0.1-0.1c0-0.1-0.1-0.1-0.1-0.1l-0.4,0.1l-0.8-2.3l1.8,0.9c0,0,0.1,0,0.1,0c0,0,0,0,0.1-0.1l0.9-1.8l0.8,2.3
				L39,17.6c-0.1,0-0.1,0.1-0.1,0.1c0,0,0,0,0.1,0.1c0,0,0.1,0,0.1,0l0.5-0.2c0,0,0,0,0.1-0.1c0,0,0-0.1,0-0.1l-0.9-2.7
				c0,0-0.1-0.1-0.1-0.1c0,0-0.1,0-0.1,0.1l-0.9,1.9L35.7,15.8C35.7,15.8,35.7,15.8,35.7,15.8z"/>
		</g>
		<g>
			<g>
				<path class="st11" d="M18.3,5.6c-0.2,0.3-0.4,0.6-0.6,0.9c-0.2,0.3-0.4,0.7-0.7,1.1c-1.3,2.1-2.4,4.7-3.4,7.6
					c-0.9,2.6-1.6,5.3-2.2,8.1h18.8c-0.6-3.2-1.5-6.5-2.6-9.4c-1.3-3.3-2.8-6.2-4.4-8.2c-1.2-1.5-1.9-2.2-2.5-2.2
					C20.2,3.3,19.5,4.1,18.3,5.6C18.3,5.6,18.3,5.6,18.3,5.6L18.3,5.6z M16.6,5.2c0.2-0.3,0.5-0.7,0.7-1c0,0,0,0,0,0
					c1.4-1.8,2.4-2.7,3.5-2.7c1.1,0,2,0.9,3.5,2.7c1.7,2.2,3.3,5.2,4.6,8.7c1.3,3.4,2.3,7.2,2.9,11c0,0.1,0,0.2,0,0.2
					c0,0.5-0.3,0.9-0.7,0.9H10.5v0c0,0-0.1,0-0.2,0c-0.4-0.1-0.6-0.6-0.5-1.1c0.6-3.3,1.4-6.6,2.5-9.6c1-3,2.2-5.7,3.6-8
					C16.1,6,16.3,5.6,16.6,5.2L16.6,5.2z"/>
			</g>
			<g>
				<path class="st12" d="M17.8,4.9c-0.5,0.6-1,1.3-1.4,2.1c-2.6,4.4-4.8,10.9-5.9,17.2h20.6C30,16.7,27,9.1,23.8,4.9
					C21.2,1.6,20.4,1.6,17.8,4.9L17.8,4.9z"/>
			</g>
			<g>
				<path class="st13" d="M11.4,24.1h18.8c-1-6.8-3.7-13.8-6.7-17.6c-2.4-3-3.1-3-5.4,0c-0.4,0.6-0.9,1.2-1.3,1.9
					C14.4,12.4,12.4,18.4,11.4,24.1L11.4,24.1z"/>
			</g>
			<g>
				<path class="st11" d="M24.8,12.5c-0.7-0.3-2.1-0.4-3.6-0.5c-1.8-0.1-3.6-0.1-4.3,0.1c-0.4,0.7-0.7,1.3-0.9,2.1
					c-0.2,0.8-0.4,1.7-0.5,2.6l0,0c0,0,0,0,0,0c0.2,0.2,0.4,0.3,0.8,0.4c0.9,0.3,2.9,0.7,4.9,1c1.8,0.2,3.5,0.3,4.2,0.2
					c0.3-0.1,0.5-0.1,0.6-0.3c0.1-0.1,0.1-0.2,0.1-0.5c0-0.7,0-1.5-0.3-2.3C25.6,14.3,25.3,13.4,24.8,12.5L24.8,12.5z M21.2,10.1
					c1.8,0.1,3.5,0.3,4.3,0.7l0,0c0.1,0.1,0.2,0.2,0.3,0.3c0.6,1.2,1.1,2.3,1.4,3.4c0.3,1.1,0.4,2.1,0.3,3.1c0,0.7-0.2,1.2-0.5,1.7
					c-0.3,0.4-0.7,0.6-1.4,0.8c-0.8,0.2-2.7,0.1-4.5-0.2c-2.1-0.3-4.2-0.7-5.2-1c-0.5-0.2-0.9-0.4-1.2-0.7c-0.5-0.4-0.7-1-0.6-1.7
					c0.1-1,0.3-2,0.6-3c0.3-1,0.7-1.9,1.2-2.8c0.1-0.2,0.2-0.3,0.4-0.3C16.9,10.1,19.1,10,21.2,10.1L21.2,10.1z M15.4,16.7
					L15.4,16.7C15.4,16.9,15.5,16.7,15.4,16.7L15.4,16.7L15.4,16.7z"/>
			</g>
			<g>
				<path class="st11" d="M18.2,17.7l0.1,0l0,0l0.2,0l-0.1-0.3L18.2,17.7L18.2,17.7z M18.2,19.2c-0.4-0.1-0.8-0.2-1.2-0.2
					c-0.1,0-0.2-0.1-0.3-0.2c-0.2-0.3-0.3-0.7,0-1l1.4-2.1l0,0c0-0.1,0.1-0.1,0.1-0.2c0.3-0.2,0.6-0.1,0.8,0.3l1,2.5
					c0.1,0.1,0.1,0.3,0.1,0.5c0,0.4-0.3,0.7-0.6,0.7C19.1,19.4,18.6,19.3,18.2,19.2L18.2,19.2L18.2,19.2z"/>
			</g>
			<g>
				<path class="st12" d="M17.1,18.3c0.7,0.1,1.6,0.3,2.5,0.4l-1.1-2.5L17.1,18.3L17.1,18.3z"/>
			</g>
			<g>
				<path class="st11" d="M22.3,18.3c0.1,0,0.2,0,0.4,0l0.1,0l-0.2-0.5L22.3,18.3L22.3,18.3z M22.6,19.9c-0.4,0-0.9-0.1-1.4-0.1
					c-0.1,0-0.2-0.1-0.3-0.1c-0.3-0.2-0.3-0.7-0.1-1l1.2-2.3c0-0.1,0.1-0.2,0.2-0.2c0.3-0.2,0.6-0.2,0.8,0.2l1.4,2.6l0,0
					c0.1,0.1,0.1,0.3,0.1,0.4c0,0.4-0.3,0.7-0.6,0.7C23.5,19.9,23.1,19.9,22.6,19.9L22.6,19.9z"/>
			</g>
			<g>
				<path class="st12" d="M21.3,19c0.9,0.1,1.9,0.2,2.6,0.2l-1.4-2.6L21.3,19L21.3,19z"/>
			</g>
			<g>
				<path class="st11" d="M24.1,12.1L24.1,12.1C23.8,12,23.6,12,23.4,12l0.3,0.7L24.1,12.1L24.1,12.1z M24.2,10.6
					c0.5,0.1,0.9,0.2,1.2,0.4l0,0c0.1,0,0.1,0.1,0.2,0.2c0.2,0.3,0.2,0.8,0,1L24,14.4c0,0.1-0.1,0.1-0.1,0.2
					c-0.3,0.2-0.6,0.1-0.8-0.3l-1.2-2.7c-0.1-0.1-0.1-0.3-0.1-0.5c0-0.4,0.3-0.7,0.6-0.7C23,10.4,23.7,10.5,24.2,10.6L24.2,10.6z"/>
			</g>
			<g>
				<path class="st12" d="M25.2,11.7c-0.5-0.3-1.6-0.5-2.9-0.6l1.2,2.8L25.2,11.7L25.2,11.7z"/>
			</g>
			<g>
				<path class="st11" d="M18.3,11.7c-0.2,0-0.5,0-0.7,0l0.4,0.5L18.3,11.7L18.3,11.7z M17.5,10.3c0.5,0,1.1-0.1,1.8-0.1
					c0.1,0,0.2,0,0.4,0.1c0.3,0.2,0.3,0.7,0.1,1l-1.4,2.5l0,0c0,0-0.1,0.1-0.1,0.1c-0.2,0.3-0.6,0.2-0.8-0.1l-1.5-2.3
					c-0.1-0.1-0.1-0.2-0.2-0.3c-0.1-0.4,0.1-0.8,0.4-0.9C16.5,10.4,17,10.3,17.5,10.3L17.5,10.3z"/>
			</g>
			<g>
				<path class="st12" d="M19.4,11c-1.3,0-2.5,0.1-2.9,0.3l1.6,2.3L19.4,11L19.4,11z"/>
			</g>
			<g>
				<path class="st14" d="M22.3,6.8c-0.2-0.1-0.3-0.3-0.3-0.5c-0.2-0.5-0.1-0.6,0-0.7c0.6-0.1,1,1.3,0.4,1.2L22.3,6.8z"/>
			</g>
			<g>
				<path class="st14" d="M19.1,6.7c0-0.2,0-0.4,0.2-0.6c0.3-0.5,0.4-0.5,0.5-0.4c0.5,0.4-0.3,1.5-0.6,1.2L19.1,6.7z"/>
			</g>
			<g>
				<g>
					<path class="st11" d="M21.2,11.7c-0.2,0-0.4,0-0.7,0l0.3,0.5L21.2,11.7L21.2,11.7z M20.6,10.3c0.5,0,1.1,0,1.7,0.1
						c0.1,0,0.2,0,0.3,0.2c0.2,0.2,0.2,0.7,0,1l-1.5,2.3l0,0c0,0-0.1,0.1-0.1,0.1c-0.2,0.2-0.6,0.2-0.7-0.1l-1.2-2.2
						c-0.1-0.1-0.1-0.2-0.1-0.3c0-0.4,0.1-0.8,0.4-0.8C19.7,10.4,20.1,10.3,20.6,10.3L20.6,10.3z"/>
				</g>
				<g>
					<path class="st12" d="M22.3,11.1c-1.3-0.1-2.3-0.1-2.8,0l1.3,2.3L22.3,11.1L22.3,11.1z"/>
				</g>
			</g>
		</g>
		<g>
			<g>
				<path class="st1" d="M34,21.7c0-0.9-0.6-1.4-0.9-1.9c-0.3-0.3-0.4-0.5-0.4-0.5c-0.5,1-1.7,1.8-2.6,1.8c-2.7,0.1-2.7-2.5-2.9-1.8
					c-0.4,1-1.8,1.9-2.7,1.8c-2.2-0.1-2.8-2.2-2.8-1.8c-0.1,1.2-2,2.1-3,1.8c-2.7-0.7-2-2.7-2.4-1.8c-0.9,1.7-1.9,1.9-2.8,1.8
					c-2.5-0.1-2.2-2.6-2.7-1.7c-0.4,0.8-0.7,0.9-1,1.2c-0.7,0.6-1,0.1-1,1.1c0,7,5.7,12.6,12.6,12.6S34,28.7,34,21.7z"/>
			</g>
			<g>
				<g>
					<defs>
						<circle id="SVGID_1_" cx="21.4" cy="21.6" r="12.6"/>
					</defs>
					<clipPath id="SVGID_00000096029390564486974330000001892913512778786728_">
						<use xlink:href="#SVGID_1_"  style="overflow:visible;"/>
					</clipPath>
					<g style="clip-path:url(#SVGID_00000096029390564486974330000001892913512778786728_);">
						<g>
							<g>
								<path class="st16" d="M46.3,21.6c-1.1,0-2.2-0.6-2.7-1.6c-0.6,1-1.6,1.6-2.7,1.6c-1.1,0-2.2-0.6-2.7-1.6
									c-0.6,1-1.6,1.6-2.7,1.6c-1.1,0-2.2-0.6-2.7-1.6c-0.6,1-1.6,1.6-2.7,1.6c-1.1,0-2.2-0.6-2.7-1.6c-0.6,1-1.6,1.6-2.7,1.6
									c-1.1,0-2.2-0.6-2.7-1.6c-0.6,1-1.6,1.6-2.7,1.6c-1.1,0-2.2-0.6-2.7-1.6c-0.6,1-1.6,1.6-2.7,1.6S11.4,21,10.9,20
									c-0.6,1-1.6,1.6-2.7,1.6S6,21,5.4,20c-0.6,1-1.6,1.6-2.7,1.6S0.5,21,0,20c-0.6,1-1.6,1.6-2.7,1.6v-0.4
									c1.1,0,2.1-0.7,2.5-1.7c0-0.1,0.1-0.1,0.2-0.1s0.2,0,0.2,0.1c0.4,1,1.4,1.7,2.5,1.7s2.1-0.7,2.5-1.7c0-0.1,0.1-0.1,0.2-0.1
									c0.1,0,0.2,0,0.2,0.1c0.4,1,1.4,1.7,2.5,1.7c1.1,0,2.1-0.7,2.5-1.7c0-0.1,0.1-0.1,0.2-0.1c0.1,0,0.2,0,0.2,0.1
									c0.4,1,1.4,1.7,2.5,1.7s2.1-0.7,2.5-1.7c0-0.1,0.1-0.1,0.2-0.1s0.2,0,0.2,0.1c0.4,1,1.4,1.7,2.5,1.7c1.1,0,2.1-0.7,2.5-1.7
									c0-0.1,0.1-0.1,0.2-0.1c0.1,0,0.2,0,0.2,0.1c0.4,1,1.4,1.7,2.5,1.7c1.1,0,2.1-0.7,2.5-1.7c0-0.1,0.1-0.1,0.2-0.1
									c0.1,0,0.2,0,0.2,0.1c0.4,1,1.4,1.7,2.5,1.7c1.1,0,2.1-0.7,2.5-1.7c0-0.1,0.1-0.1,0.2-0.1c0.1,0,0.2,0,0.2,0.1
									c0.4,1,1.4,1.7,2.5,1.7c1.1,0,2.1-0.7,2.5-1.7c0-0.1,0.1-0.1,0.2-0.1c0.1,0,0.2,0,0.2,0.1c0.4,1,1.4,1.7,2.5,1.7
									c1.1,0,2.1-0.7,2.5-1.7c0-0.1,0.1-0.1,0.2-0.1s0.2,0,0.2,0.1c0.4,1,1.4,1.7,2.5,1.7C46.3,21.2,46.3,21.6,46.3,21.6z"/>
							</g>
						</g>
					</g>
				</g>
				<g>
					<defs>
						<circle id="SVGID_00000030476841292061130540000011552063060720244096_" cx="21.4" cy="21.6" r="12.6"/>
					</defs>
					<clipPath id="SVGID_00000176013131155246362500000008458679716464813752_">
						<use xlink:href="#SVGID_00000030476841292061130540000011552063060720244096_"  style="overflow:visible;"/>
					</clipPath>
					<g style="clip-path:url(#SVGID_00000176013131155246362500000008458679716464813752_);">
						<g>
							<g>
								<g>
									<path class="st16" d="M40.7,24.5c-1.1,0-2.2-0.6-2.7-1.6c-0.6,1-1.6,1.6-2.7,1.6s-2.2-0.6-2.7-1.6c-0.6,1-1.6,1.6-2.7,1.6
										c-1.1,0-2.2-0.6-2.7-1.6c-0.6,1-1.6,1.6-2.7,1.6c-1.1,0-2.2-0.6-2.7-1.6c-0.6,1-1.6,1.6-2.7,1.6c-1.1,0-2.2-0.6-2.7-1.6
										c-0.6,1-1.6,1.6-2.7,1.6s-2.2-0.6-2.7-1.6c-0.6,1-1.6,1.6-2.7,1.6s-2.2-0.6-2.7-1.6c-0.6,1-1.6,1.6-2.7,1.6v-0.4
										c1.1,0,2.1-0.7,2.5-1.7c0-0.1,0.1-0.1,0.2-0.1s0.2,0,0.2,0.1c0.4,1,1.4,1.7,2.5,1.7s2.1-0.7,2.5-1.7c0-0.1,0.1-0.1,0.2-0.1
										c0.1,0,0.2,0,0.2,0.1c0.4,1,1.4,1.7,2.5,1.7s2.1-0.7,2.5-1.7c0-0.1,0.1-0.1,0.2-0.1c0.1,0,0.2,0,0.2,0.1
										c0.4,1,1.4,1.7,2.5,1.7c1.1,0,2.1-0.7,2.5-1.7c0-0.1,0.1-0.1,0.2-0.1c0.1,0,0.2,0,0.2,0.1c0.4,1,1.4,1.7,2.5,1.7
										s2.1-0.7,2.5-1.7c0-0.1,0.1-0.1,0.2-0.1c0.1,0,0.2,0,0.2,0.1c0.4,1,1.4,1.7,2.5,1.7c1.1,0,2.1-0.7,2.5-1.7
										c0-0.1,0.1-0.1,0.2-0.1c0.1,0,0.2,0,0.2,0.1c0.4,1,1.4,1.7,2.5,1.7c1.1,0,2.1-0.7,2.5-1.7c0-0.1,0.1-0.1,0.2-0.1
										s0.2,0,0.2,0.1c0.4,1,1.4,1.7,2.5,1.7V24.5z"/>
								</g>
							</g>
						</g>
						<g>
							<g>
								<g>
									<path class="st16" d="M35.3,27.1c-1.1,0-2.2-0.6-2.7-1.6c-0.6,1-1.6,1.6-2.7,1.6c-1.1,0-2.2-0.6-2.7-1.6
										c-0.6,1-1.6,1.6-2.7,1.6c-1.1,0-2.2-0.6-2.7-1.6c-0.6,1-1.6,1.6-2.7,1.6c-1.1,0-2.2-0.6-2.7-1.6c-0.6,1-1.6,1.6-2.7,1.6
										s-2.2-0.6-2.7-1.6c-0.6,1-1.6,1.6-2.7,1.6v-0.4c1.1,0,2.1-0.7,2.5-1.7c0-0.1,0.1-0.1,0.2-0.1l0,0c0.1,0,0.2,0,0.2,0.1
										c0.4,1,1.4,1.7,2.5,1.7S15.6,26,16,25c0-0.1,0.1-0.1,0.2-0.1c0.1,0,0.2,0,0.2,0.1c0.4,1,1.4,1.7,2.5,1.7
										c1.1,0,2.1-0.7,2.5-1.7c0-0.1,0.1-0.1,0.2-0.1l0,0c0.1,0,0.2,0,0.2,0.1c0.4,1,1.4,1.7,2.5,1.7s2.1-0.7,2.5-1.7
										c0-0.1,0.1-0.1,0.2-0.1l0,0c0.1,0,0.2,0,0.2,0.1c0.4,1,1.4,1.7,2.5,1.7c1.1,0,2.1-0.7,2.5-1.7c0-0.1,0.1-0.1,0.2-0.1l0,0
										c0.1,0,0.2,0,0.2,0.1c0.4,1,1.4,1.7,2.5,1.7V27.1z"/>
								</g>
							</g>
						</g>
					</g>
				</g>
			</g>
		</g>
		<g class="st18">
			<path class="st7" d="M13.6,30H14v0.1l0,0h0.3l0,0V30l-0.8-0.3v-0.5l0.3-0.3h0.7l0.3,0.3v0.3h-0.5v-0.1l0,0h-0.3l0,0v0.1l0.8,0.3
				v0.5l-0.3,0.3h-0.7l-0.3-0.3V30z"/>
			<path class="st7" d="M16.4,29.1v1.3l0.1,0.1v0.1h-0.6v-0.1l0.1-0.1V30h-0.3v0.5l0.1,0.1v0.1H15v-0.1l0.1-0.1v-1.3L15,29V29h0.6
				V29l-0.1,0.1v0.5h0.3v-0.5L15.8,29V29h0.6L16.4,29.1L16.4,29.1z"/>
			<path class="st7" d="M18.3,30.5L18.3,30.5l-0.7,0.1v-0.1l0.1-0.1l0-0.1h-0.4l0,0.1l0.1,0.1v0.1h-0.7v-0.1l0.1-0.1l0.3-1.3L17,29
				V29h0.9V29l-0.1,0.1l0.3,1.3L18.3,30.5z M17.5,29.9l-0.1-0.5l-0.1,0.5H17.5z"/>
			<path class="st7" d="M19.8,30.5L19.8,30.5l-0.5,0.1l-0.2-0.5h-0.1v0.3l0.1,0.1v0.1h-0.6v-0.1l0.1-0.1v-1.3L18.4,29V29h1.1
				l0.3,0.3v0.6L19.5,30L19.8,30.5L19.8,30.5z M18.9,29.7h0.3l0,0v-0.3l0,0h-0.3V29.7z"/>
			<path class="st7" d="M21.3,30.5L21.3,30.5l-0.5,0.1l-0.3-0.7v0.5l0.1,0.1v0.1h-0.6v-0.1l0.1-0.1v-1.3L19.9,29V29h0.6V29l-0.1,0.1
				v0.5l0.3-0.7h0.5V29l-0.1,0.1l-0.3,0.6L21.3,30.5L21.3,30.5z"/>
			<path class="st7" d="M24.6,29.1v1.3l0.1,0.1v0.1h-0.6v-0.1l0.1-0.1v-0.5l-0.3,0.5h-0.2l-0.3-0.5v0.5l0.1,0.1v0.1h-0.6v-0.1
				l0.1-0.1v-1.3L22.9,29V29h0.6l0.3,0.6l0.3-0.6h0.6V29L24.6,29.1z"/>
			<path class="st7" d="M26.5,30.5L26.5,30.5l-0.7,0.1v-0.1l0.1-0.1l0-0.1h-0.4l0,0.1l0.1,0.1v0.1h-0.7v-0.1l0.1-0.1l0.3-1.3
				L25.2,29V29h0.9V29L26,29.1l0.3,1.3L26.5,30.5z M25.8,29.9l-0.1-0.5l-0.1,0.5H25.8z"/>
			<path class="st7" d="M27.8,29.4L27.8,29.4l-0.2-0.1h-0.3v1.1l0.1,0.1v0.1h-0.6v-0.1l0.1-0.1v-1.1h-0.3l-0.1,0.1h-0.1l0-0.5h1.2
				L27.8,29.4z"/>
			<path class="st7" d="M29.3,29.1v1.3l0.1,0.1v0.1h-0.6v-0.1l0.1-0.1V30h-0.3v0.5l0.1,0.1v0.1H28v-0.1l0.1-0.1v-1.3L28,29V29h0.6
				V29l-0.1,0.1v0.5h0.3v-0.5L28.8,29V29h0.6L29.3,29.1L29.3,29.1z"/>
		</g>
	</g>
	<g>
		<g>
			<path class="st19" d="M0.6,50.4c0-2.9,1.6-4.5,3.9-4.5s3.9,1.7,3.9,4.5c0,2.8-1.6,4.6-3.9,4.6S0.6,53.3,0.6,50.4z M6.7,50.4
				c0-1.9-0.8-3-2.1-3s-2.1,1.1-2.1,3c0,1.9,0.8,3.1,2.1,3.1S6.7,52.3,6.7,50.4z"/>
			<path class="st19" d="M9.9,46.1h1.8l2.5,4.7l0.9,1.9h0.1c-0.1-0.9-0.2-2.1-0.2-3.1v-3.5h1.7v8.8h-1.8l-2.5-4.7l-0.9-1.9h-0.1
				c0.1,0.9,0.2,2,0.2,3.1v3.5H9.9C9.9,54.8,9.9,46.1,9.9,46.1z"/>
			<path class="st19" d="M18.4,46.1h1.8v7.3h3.6v1.5h-5.3C18.4,54.8,18.4,46.1,18.4,46.1z"/>
			<path class="st19" d="M25,46.1h1.8v8.8H25V46.1z"/>
			<path class="st19" d="M28.6,46.1h1.8l2.5,4.7l0.9,1.9h0.1c-0.1-0.9-0.2-2.1-0.2-3.1v-3.5h1.7v8.8h-1.8L31,50.1l-0.9-1.9H30
				c0.1,0.9,0.2,2,0.2,3.1v3.5h-1.7C28.6,54.8,28.6,46.1,28.6,46.1z"/>
			<path class="st19" d="M37.1,46.1h5.4v1.5h-3.6v2H42V51h-3.1v2.3h3.8v1.5h-5.5V46.1z"/>
		</g>
	</g>
</g>
</svg>
