<?xml version="1.0" encoding="utf-8"?>
<!-- Generator: Adobe Illustrator 27.9.0, SVG Export Plug-In . SVG Version: 6.00 Build 0)  -->
<svg version="1.1" id="Layer_1" xmlns="http://www.w3.org/2000/svg" xmlns:xlink="http://www.w3.org/1999/xlink" x="0px" y="0px"
	 width="296.9px" height="45px" viewBox="0 0 296.9 45" style="enable-background:new 0 0 296.9 45;" xml:space="preserve">
<style type="text/css">
	.st0{fill:#20386B;}
	.st1{fill:#1C75BB;}
	.st2{fill:#5FC4EB;}
	.st3{fill:#5CC3E8;}
	.st4{fill:#4C71B6;}
	.st5{fill:#202834;}
	.st6{opacity:0.32;}
	.st7{fill:#000001;}
	.st8{opacity:0.31;}
	.st9{opacity:0.35;}
	.st10{opacity:0.38;}
	.st11{fill:#253161;}
	.st12{fill-rule:evenodd;clip-rule:evenodd;fill:#FFFFFF;}
	.st13{fill-rule:evenodd;clip-rule:evenodd;fill:#AED2EF;}
	.st14{fill-rule:evenodd;clip-rule:evenodd;fill:#253161;}
	.st15{clip-path:url(#SVGID_00000063623750126464283430000008260447788547777685_);}
	.st16{fill:#6FC5D1;}
	.st17{clip-path:url(#SVGID_00000166671601724278837100000004869629624265209768_);}
	.st18{opacity:0.54;}
	.st19{fill:#1C1C1B;}
	.st20{fill:#004BF2;}
</style>
<g>
	<g>
		<g>
			<circle class="st0" cx="22.5" cy="22.5" r="22.5"/>
		</g>
		<g>
			<circle class="st1" cx="22.4" cy="22.6" r="13.2"/>
		</g>
		<g>
			<path class="st2" d="M39.9,22.6c-1.3,0-2.4,1-2.6,2.2c-1.1,7.3-7.4,12.8-14.9,12.8S8.6,32.1,7.5,24.8c-0.2-1.3-1.3-2.2-2.6-2.2
				l0,0c-1.6,0-2.8,1.4-2.6,3c1.5,9.8,9.9,17.3,20.1,17.3s18.6-7.5,20.1-17.3C42.8,24,41.6,22.6,39.9,22.6L39.9,22.6z"/>
		</g>
		<g>
			<g>
				<path class="st3" d="M22.3,36.9c-7.9,0-14.4-6.5-14.4-14.4S14.3,8.1,22.3,8.1s14.4,6.5,14.4,14.4S30.2,36.9,22.3,36.9z
					 M22.3,8.5c-7.8,0-14.1,6.3-14.1,14.1s6.3,14.1,14.1,14.1s14.1-6.3,14.1-14.1S30,8.5,22.3,8.5z"/>
			</g>
		</g>
		<g>
			<g>
				<path class="st4" d="M22.4,44c-5.7,0-11.1-2.2-15.1-6.3S1,28.3,1,22.6S3.3,11.5,7.3,7.5s9.4-6.3,15.1-6.3s11.1,2.2,15.1,6.3
					s6.3,9.4,6.3,15.1s-2.2,11.1-6.3,15.1S28.2,44,22.4,44z M22.4,1.5c-5.6,0-10.9,2.2-14.9,6.2c-4,4-6.2,9.3-6.2,14.9
					s2.2,10.9,6.2,14.9c4,4,9.3,6.2,14.9,6.2s10.9-2.2,14.9-6.2c4-4,6.2-9.3,6.2-14.9c0-5.6-2.2-10.9-6.2-14.9
					C33.4,3.7,28.1,1.5,22.4,1.5z"/>
			</g>
		</g>
		<g>
			<path class="st5" d="M9.3,32.2c0.1-0.1,0.1-0.1,0.2-0.1c0.1,0,0.1,0,0.2,0.1l1.3,1.2l-0.2,0.2L10,32.9l-2.4,2.4l0.9,0.9l-0.2,0.2
				L6.9,35c0,0-0.1-0.1-0.1-0.2c0-0.1,0-0.1,0.1-0.2L9.3,32.2z M8.3,36.9L11,34c0.1-0.1,0.1-0.1,0.1-0.2c0-0.1,0-0.1,0-0.2
				c0-0.1,0-0.1,0.1-0.2c0,0,0.1,0,0.1,0l0.5,0.5c0,0,0.1,0.1,0.1,0.2c0,0.1,0,0.1-0.1,0.2l-1.1,1.1l0.3,0.3L12,35
				c0.1-0.1,0.1-0.1,0.1-0.2c0,0,0-0.1,0.1-0.2c0-0.1,0-0.1,0.1-0.2c0,0,0.1,0,0.1,0l0.5,0.5c0,0,0.1,0.1,0.1,0.2
				c0,0.1,0,0.1-0.1,0.2L10,38.2c-0.1,0.1-0.1,0.1-0.2,0.1c-0.1,0-0.1,0-0.2-0.1l-0.5-0.4l1.7-1.7l-0.3-0.3l-1.5,1.5
				c-0.1,0.1-0.1,0.1-0.2,0.1c-0.1,0-0.1,0-0.2-0.1L8.3,36.9z"/>
			<path class="st5" d="M13.9,36.3L13.9,36.3c0-0.1,0.1-0.1,0.1-0.1c0,0,0-0.1,0-0.1c0-0.1,0-0.1,0-0.2s0.1,0,0.1,0l0.8,0.4
				c0.1,0,0.1,0.1,0.1,0.1c0,0.1,0,0.1,0,0.2l-0.1,0.2l0.9,0.4l-0.1,0.2L14.8,37l-0.1,0.3c-0.1,0.3-0.3,0.5-0.4,0.7
				c-0.1,0.2-0.3,0.4-0.5,0.6c0.1,0.1,0.2,0.1,0.3,0.2s0.2,0.2,0.2,0.3c0.1,0.1,0.1,0.3,0.1,0.4c0,0.1,0,0.3,0,0.4
				c0,0.1-0.1,0.2-0.1,0.2s-0.1,0.1-0.2,0.1c-0.1,0-0.1,0-0.2,0c-0.1,0-0.1,0-0.2-0.1c-0.1,0-0.1-0.1-0.2-0.1c0-0.1-0.1-0.1-0.1-0.2
				c0-0.1,0-0.2,0-0.3c0-0.1,0-0.2,0.1-0.2c0-0.1,0.1-0.1,0.1-0.2c0-0.1,0-0.1,0-0.2c0,0,0-0.1,0-0.1c0,0,0-0.1-0.1-0.1
				c-0.3,0.2-0.7,0.4-1,0.4c-0.4,0-0.8,0-1.2-0.1l0-0.1c0.1,0,0.3,0,0.4,0c0.1,0,0.3-0.1,0.4-0.1c0.1-0.1,0.3-0.1,0.4-0.2
				c0.1-0.1,0.3-0.2,0.4-0.4c0.1-0.2,0.3-0.4,0.4-0.6s0.3-0.5,0.5-0.9l0.1-0.2l-0.9-0.4l0.1-0.2L13.9,36.3z M14.3,41l1.7-3.5
				c0-0.1,0.1-0.1,0.1-0.2c0-0.1,0-0.1,0-0.2c0-0.1,0-0.1,0-0.2c0,0,0.1,0,0.1,0l0.8,0.4c0.1,0,0.1,0.1,0.1,0.1c0,0.1,0,0.1,0,0.2
				l-1.8,3.6c0,0.1-0.1,0.1-0.2,0.1c-0.1,0-0.1,0-0.2,0L14.3,41z"/>
			<path class="st5" d="M19.7,38.3c0,0.2-0.1,0.3-0.1,0.5c-0.1,0.2-0.1,0.3-0.2,0.4c0.1,0,0.2,0.1,0.3,0.1c0.1,0,0.2,0.1,0.3,0.2
				c0.1,0.1,0.2,0.2,0.3,0.3c0.1,0.1,0.1,0.2,0.1,0.4c0,0.1,0,0.2,0,0.2s-0.1,0.1-0.1,0.2c-0.1,0-0.1,0.1-0.2,0.1
				c-0.1,0-0.1,0-0.2,0c-0.1,0-0.1,0-0.2-0.1c-0.1,0-0.1-0.1-0.2-0.1c-0.1-0.1-0.1-0.1-0.1-0.2c0-0.1,0-0.2,0-0.2c0-0.1,0-0.1,0-0.2
				c0-0.1,0-0.1-0.1-0.2c0-0.1-0.1-0.1-0.2-0.1c-0.2,0.2-0.5,0.4-0.8,0.6c-0.3,0.2-0.7,0.3-1.2,0.3L17,40.3c0.2-0.1,0.5-0.2,0.7-0.4
				c0.2-0.2,0.4-0.4,0.6-0.6c0-0.1,0.1-0.1,0.1-0.2c0-0.1,0.1-0.1,0.1-0.2c0-0.1,0.1-0.2,0.1-0.2c0-0.1,0.1-0.2,0.1-0.3
				c0-0.1,0-0.1,0-0.2c0,0,0-0.1-0.1-0.2c0-0.1-0.1-0.1,0-0.2c0,0,0-0.1,0.1,0l0.9,0.1c0.1,0,0.1,0,0.2,0.1c0,0,0.1,0.1,0,0.2
				L19.7,38.3z M21.5,42c0,0.2-0.1,0.3-0.2,0.4c-0.1,0.1-0.3,0.1-0.4,0.2c-0.2,0-0.4,0-0.6,0c-0.2,0-0.4,0-0.7-0.1l-0.2,0
				c-0.2,0-0.5-0.1-0.7-0.1c-0.2-0.1-0.4-0.1-0.6-0.2c-0.2-0.1-0.3-0.2-0.4-0.3c-0.1-0.1-0.1-0.3-0.1-0.4l0-0.1
				c0-0.2,0.1-0.3,0.2-0.4c0.1-0.1,0.3-0.1,0.5-0.2c0.2,0,0.4,0,0.6,0c0.2,0,0.5,0,0.7,0.1l0.2,0c0.2,0,0.4,0.1,0.7,0.1
				c0.2,0.1,0.4,0.1,0.6,0.2c0.2,0.1,0.3,0.2,0.4,0.3C21.5,41.6,21.5,41.8,21.5,42L21.5,42z M18.6,41.6c0,0.1,0,0.2,0.1,0.3
				c0.1,0.1,0.1,0.2,0.2,0.2c0.1,0.1,0.2,0.1,0.3,0.1c0.1,0,0.2,0,0.3,0.1l0.2,0c0.1,0,0.2,0,0.3,0c0.1,0,0.2,0,0.3,0
				c0.1,0,0.2-0.1,0.2-0.1s0.1-0.2,0.1-0.3l0-0.1c0-0.1,0-0.2,0-0.3c0-0.1-0.1-0.1-0.2-0.2c-0.1-0.1-0.2-0.1-0.2-0.1
				c-0.1,0-0.2,0-0.2-0.1l-0.2,0c-0.1,0-0.2,0-0.3,0c-0.1,0-0.2,0-0.3,0c-0.1,0-0.2,0.1-0.2,0.1c-0.1,0.1-0.1,0.2-0.1,0.3L18.6,41.6
				z M20.6,40.9l0.3-2.2c0-0.1,0-0.1,0-0.2c0,0,0-0.1-0.1-0.2c0-0.1-0.1-0.1,0-0.2c0,0,0-0.1,0.1,0l0.9,0.1c0.1,0,0.1,0,0.2,0.1
				c0,0,0.1,0.1,0,0.2l-0.2,1.1l0.6,0.1l0,0.3l-0.6-0.1l-0.1,1c0,0.1-0.1,0.2-0.1,0.2c-0.1,0-0.1,0-0.2,0L20.6,40.9z"/>
			<path class="st5" d="M26.7,42.2L26.4,40l-0.5,0.1v0C26,40.5,26,40.8,26,41c0,0.3-0.1,0.5-0.2,0.7c-0.1,0.2-0.2,0.3-0.4,0.5
				c-0.2,0.1-0.4,0.2-0.7,0.2l-0.1,0c-0.3,0-0.5,0-0.7,0c-0.2-0.1-0.4-0.2-0.5-0.3s-0.3-0.3-0.4-0.6s-0.2-0.5-0.2-0.8l0-0.2
				c-0.1-0.6-0.1-1.2,0.1-1.5s0.5-0.6,1-0.7l0.1,0c0.5-0.1,0.9,0,1.2,0.3s0.5,0.7,0.6,1.3l0.5-0.1l-0.2-1.4c0-0.1,0-0.1-0.1-0.2
				c0,0-0.1-0.1-0.1-0.1c-0.1-0.1-0.1-0.1-0.1-0.2c0,0,0-0.1,0.1-0.1l0.9-0.1c0.1,0,0.1,0,0.2,0c0.1,0,0.1,0.1,0.1,0.2l0.7,4
				c0,0.1,0,0.2,0,0.2c0,0-0.1,0.1-0.2,0.1L26.7,42.2z M24.7,42.1c0.1,0,0.1-0.1,0.2-0.1c0-0.1,0.1-0.2,0.1-0.3c0-0.2,0-0.3,0-0.6
				c0-0.2-0.1-0.5-0.1-0.8l0-0.2c-0.1-0.6-0.2-1.1-0.3-1.4s-0.3-0.4-0.4-0.4l-0.1,0c-0.2,0-0.3,0.2-0.3,0.5c0,0.3,0,0.8,0.1,1.4
				l0,0.2c0.1,0.3,0.1,0.6,0.2,0.8s0.1,0.4,0.2,0.5c0.1,0.1,0.1,0.2,0.2,0.3C24.5,42.2,24.6,42.2,24.7,42.1L24.7,42.1z"/>
			<path class="st5" d="M31.2,36.8c0.1,0,0.3,0,0.4,0c0.2,0,0.3,0,0.4,0.1c0,0,0.1,0,0.1,0.1c0,0,0.1,0.1,0.1,0.1
				c0,0,0.1,0.1,0.1,0.1c0,0,0,0.1,0,0.1c0,0.1,0,0.1,0,0.2c0,0.1,0,0.1-0.1,0.2c0,0.1-0.1,0.1-0.2,0.1s-0.1,0.1-0.2,0.1
				c-0.1,0-0.2,0-0.3-0.1c-0.1-0.1-0.1-0.1-0.2-0.2c0,0,0,0-0.1-0.1c0,0-0.1,0-0.1-0.1c0,0-0.1,0-0.1,0c-0.1,0-0.1,0-0.2,0
				c-0.1,0-0.2,0-0.3,0c-0.1,0-0.2,0-0.3,0.1c0,0.1-0.1,0.3-0.2,0.4c-0.1,0.2-0.2,0.3-0.3,0.4c-0.1,0.2-0.3,0.4-0.5,0.6
				s-0.4,0.4-0.7,0.5l-0.1-0.1c0.2-0.2,0.3-0.3,0.5-0.5c0.1-0.2,0.2-0.3,0.3-0.5c0.1-0.2,0.1-0.3,0.1-0.5c0-0.2,0-0.3-0.1-0.5
				l-0.1-0.1c0-0.1-0.1-0.1-0.1-0.1c0,0-0.1-0.1-0.1-0.1c-0.1,0-0.1-0.1-0.1-0.1c0,0,0-0.1,0.1-0.1l0.8-0.4c0.1,0,0.1,0,0.2,0
				c0.1,0,0.1,0.1,0.2,0.1l0.1,0.2c0,0.1,0.1,0.1,0.1,0.2c0,0.1,0,0.1,0,0.2c0.1-0.1,0.2-0.1,0.4-0.1C31,36.9,31.1,36.9,31.2,36.8z
				 M33,37.8l0.1,0.2l-1.6,0.8l0.6,1.1c0,0.1,0.1,0.2,0,0.2s-0.1,0.1-0.1,0.1l-0.7,0.4l-0.7-1.3L29,40.2l-0.1-0.2L33,37.8z"/>
			<path class="st5" d="M33,36.3c-0.1-0.1-0.2-0.3-0.3-0.5c-0.1-0.2,0-0.4,0-0.6l-0.5,0.5l-0.2-0.2l0.8-0.8c0,0-0.1,0-0.1-0.1
				c0,0-0.1,0-0.1,0c-0.1,0-0.1,0-0.2-0.1s0-0.1,0-0.1l0.6-0.6c0,0,0.1-0.1,0.2-0.1c0.1,0,0.1,0,0.2,0.1l0.1,0.1l0.8-0.8l0.2,0.2
				L34,34c0.2-0.1,0.4-0.1,0.6,0c0.2,0,0.3,0.1,0.5,0.3l0.1,0.1c0.1,0.1,0.2,0.2,0.2,0.3c0.1,0.1,0.1,0.3,0.1,0.4
				c0,0.2-0.1,0.3-0.1,0.5c-0.1,0.2-0.2,0.3-0.4,0.5l0,0c-0.2,0.2-0.3,0.3-0.5,0.4c-0.2,0.1-0.3,0.1-0.5,0.2c-0.2,0-0.3,0-0.4-0.1
				c-0.1-0.1-0.3-0.1-0.4-0.2L33,36.3z M33.8,35.7c0.2,0.2,0.4,0.3,0.5,0.4c0.2,0.1,0.3,0,0.4-0.1l0,0c0.1-0.1,0.1-0.2,0.1-0.4
				c-0.1-0.2-0.2-0.3-0.4-0.5L34.3,35c-0.2-0.2-0.4-0.3-0.5-0.4c-0.2-0.1-0.3-0.1-0.4,0.1l-0.1,0.1c-0.1,0.1-0.1,0.2-0.1,0.4
				c0.1,0.2,0.2,0.3,0.4,0.5L33.8,35.7z M36.3,34.8l-1.6-1.6c-0.1-0.1-0.1-0.1-0.2-0.1c-0.1,0-0.1,0-0.2,0c-0.1,0-0.1,0-0.2-0.1
				c0,0,0-0.1,0-0.1l0.6-0.6c0,0,0.1-0.1,0.2-0.1c0.1,0,0.1,0,0.2,0.1l0.7,0.7l0.4-0.4l0.2,0.2l-0.4,0.4l0.8,0.8
				c0.1,0.1,0.1,0.1,0.1,0.2c0,0.1,0,0.1-0.1,0.2L36.3,34.8z M37.4,36l-0.8-0.8L34.8,37l-0.2-0.2l2.4-2.4c0,0,0.1-0.1,0.2-0.1
				c0.1,0,0.1,0,0.2,0.1l0.7,0.6c0.1,0.1,0.1,0.1,0.1,0.2c0,0.1,0,0.1-0.1,0.2L37.4,36z"/>
		</g>
		<g class="st6">
			<g>
				<path class="st7" d="M3.2,17c-0.2,0.5,0,1,0.5,1.2l0.8,0.3L4.4,19c0,0.1,0,0.2,0.1,0.2c0.1,0,0.2,0,0.2-0.1l0.2-0.5l2,0.6
					c0.3,0.1,0.4,0.4,0.3,0.7c-0.1,0.3-0.4,0.5-0.7,0.4c-0.1,0-0.2,0-0.2,0.1c0,0.1,0,0.2,0.1,0.2c0.4,0.1,0.9-0.2,1.1-0.7
					c0.2-0.5,0-1-0.4-1.2l-2-0.6l0.2-0.5c0-0.1,0-0.2-0.1-0.2c-0.1,0-0.2,0-0.2,0.1l-0.2,0.5l-0.8-0.3c-0.3-0.1-0.4-0.4-0.3-0.7
					c0.1-0.3,0.4-0.5,0.7-0.4c0.1,0,0.2,0,0.2-0.1c0-0.1,0-0.2-0.1-0.2C3.9,16.2,3.4,16.5,3.2,17z"/>
				<path class="st7" d="M6.5,20.7c-0.1,0-0.1,0-0.2,0c0,0-0.1,0-0.1-0.1c0,0,0-0.1,0-0.1c0-0.1,0.1-0.2,0.2-0.1
					c0.1,0,0.3,0,0.4-0.1c0.1-0.1,0.2-0.2,0.3-0.4c0.1-0.2,0.1-0.3,0-0.4c-0.1-0.1-0.1-0.2-0.3-0.3l-2-0.6l-0.2,0.5
					c0,0.1-0.1,0.1-0.1,0.1c0,0-0.1,0-0.1,0c0,0-0.1,0-0.1-0.1c0,0,0-0.1,0-0.1l0.2-0.5l-0.8-0.3C3.3,18.1,3,17.5,3.2,17l0,0
					c0.1-0.3,0.2-0.5,0.4-0.6c0.2-0.1,0.4-0.2,0.6-0.1c0,0,0.1,0,0.1,0.1c0,0,0,0.1,0,0.1s-0.1,0.1-0.1,0.1c0,0-0.1,0-0.1,0
					c-0.3-0.1-0.5,0.1-0.6,0.4c-0.1,0.2-0.1,0.3,0,0.4c0.1,0.1,0.1,0.2,0.3,0.3l0.8,0.3l0.2-0.5c0-0.1,0.1-0.1,0.1-0.1
					c0,0,0.1,0,0.1,0c0.1,0,0.1,0.1,0.1,0.2L5,18.2l2,0.6c0.2,0.1,0.4,0.2,0.5,0.5c0.1,0.2,0.1,0.5,0,0.7c-0.1,0.3-0.2,0.5-0.4,0.6
					C6.8,20.7,6.6,20.7,6.5,20.7z M6.4,20.4c-0.1,0-0.1,0-0.1,0.1c0,0,0,0.1,0,0.1c0,0,0,0.1,0.1,0.1c0.2,0.1,0.4,0,0.6-0.1
					c0.2-0.1,0.3-0.3,0.4-0.6s0.1-0.5,0-0.7c-0.1-0.2-0.2-0.4-0.4-0.4l-2-0.7l0.2-0.6c0-0.1,0-0.2-0.1-0.2c0,0-0.1,0-0.1,0
					c0,0-0.1,0.1-0.1,0.1l-0.2,0.6l-0.8-0.3c-0.1,0-0.2-0.1-0.3-0.3c-0.1-0.1-0.1-0.3,0-0.5c0.1-0.3,0.4-0.5,0.7-0.4
					c0,0,0.1,0,0.1,0c0,0,0.1-0.1,0.1-0.1c0,0,0-0.1,0-0.1c0,0,0-0.1-0.1-0.1c-0.2-0.1-0.4,0-0.6,0.1c-0.2,0.1-0.3,0.3-0.4,0.6l0,0
					c-0.2,0.5,0,1,0.4,1.1l0.9,0.3L4.4,19c0,0,0,0.1,0,0.1c0,0,0,0.1,0.1,0.1c0,0,0.1,0,0.1,0c0,0,0.1-0.1,0.1-0.1l0.2-0.5l2,0.7
					c0.1,0,0.2,0.1,0.3,0.3c0.1,0.1,0.1,0.3,0,0.5c-0.1,0.2-0.2,0.3-0.3,0.4C6.7,20.4,6.5,20.4,6.4,20.4C6.4,20.4,6.4,20.4,6.4,20.4
					z"/>
			</g>
			<g>
				<path class="st7" d="M7.5,17.3l-0.3-0.7c0-0.1-0.1-0.1-0.2-0.1C7,16.6,7,16.7,7,16.8l0.3,0.7l-0.6,0.4c-0.1,0.1-0.1,0.2-0.1,0.2
					c0,0.1,0.1,0.1,0.2,0.1l0.6-0.4l0.3,0.7c0,0.1,0.1,0.1,0.2,0.1c0,0,0.1-0.1,0.1-0.1c0,0,0-0.1,0-0.1l-0.3-0.7l0.6-0.4
					c0,0,0.1-0.1,0.1-0.1c0,0,0-0.1,0-0.1c0-0.1-0.1-0.1-0.2-0.1L7.5,17.3z"/>
				<path class="st7" d="M7.7,18.5C7.7,18.5,7.7,18.5,7.7,18.5c-0.1,0-0.1-0.1-0.1-0.1l-0.2-0.6l-0.6,0.4c0,0-0.1,0-0.1,0
					c0,0-0.1,0-0.1-0.1c0-0.1,0-0.2,0.1-0.3l0.6-0.4L7,16.8c0-0.1,0-0.2,0.1-0.3c0,0,0.1,0,0.1,0c0,0,0.1,0,0.1,0.1l0.2,0.6l0.6-0.4
					c0,0,0.1,0,0.1,0c0,0,0.1,0,0.1,0.1c0,0,0,0.1,0,0.1c0,0.1-0.1,0.1-0.1,0.1l-0.6,0.4l0.3,0.7c0,0,0,0.1,0,0.1
					C7.9,18.4,7.9,18.5,7.7,18.5C7.8,18.5,7.8,18.5,7.7,18.5z M7.4,17.7l0.3,0.7c0,0,0,0.1,0.1,0.1c0,0,0.1,0,0.1,0
					c0,0,0.1-0.1,0.1-0.1c0,0,0-0.1,0-0.1l-0.3-0.7l0.6-0.4c0,0,0.1-0.1,0.1-0.1c0,0,0-0.1,0-0.1c0,0,0-0.1-0.1-0.1c0,0-0.1,0-0.1,0
					l-0.6,0.4l-0.3-0.7c0,0,0-0.1-0.1-0.1c0,0-0.1,0-0.1,0C7,16.6,7,16.7,7,16.8l0.3,0.7l-0.6,0.4c-0.1,0-0.1,0.1-0.1,0.2
					c0,0,0,0.1,0.1,0.1c0,0,0.1,0,0.1,0L7.4,17.7z"/>
			</g>
		</g>
		<g class="st8">
			<path class="st7" d="M12.7,6.1c-0.4,0-0.8,0.1-1.1,0.4c-0.3,0.3-0.5,0.6-0.5,1.1l-0.1,1.2L9.9,8.7c-0.8,0-1.6,0.6-1.6,1.4
				c0,0.8,0.6,1.6,1.4,1.6c0.4,0,0.8-0.1,1.1-0.4c0.3-0.3,0.5-0.6,0.5-1.1l0.1-1.2l1.2,0.1c0.4,0,0.8-0.1,1.1-0.4
				c0.3-0.3,0.5-0.6,0.5-1.1C14.2,6.9,13.6,6.2,12.7,6.1z M11,10.3c0,0.6-0.6,1.1-1.2,1.1s-1.1-0.6-1.1-1.2c0-0.3,0.2-0.6,0.4-0.8
				C9.3,9.1,9.6,9,9.9,9L11,9.1L11,10.3z M13.8,7.7c0,0.3-0.2,0.6-0.4,0.8s-0.5,0.3-0.8,0.3l-1.2-0.1l0.1-1.2c0-0.3,0.2-0.6,0.4-0.8
				s0.5-0.3,0.8-0.3C13.3,6.5,13.8,7.1,13.8,7.7z"/>
			<path class="st7" d="M9.8,11.7C9.8,11.7,9.8,11.7,9.8,11.7c-0.9,0-1.6-0.8-1.5-1.6c0-0.9,0.8-1.5,1.6-1.5L11,8.7l0.1-1.1
				c0-0.4,0.2-0.8,0.5-1.1c0.3-0.3,0.7-0.4,1.1-0.4s0.8,0.2,1.1,0.5c0.3,0.3,0.4,0.7,0.4,1.1c0,0.4-0.2,0.8-0.5,1.1
				c-0.3,0.3-0.7,0.4-1.1,0.4l-1.1-0.1l-0.1,1.1c0,0.4-0.2,0.8-0.5,1.1C10.6,11.6,10.2,11.7,9.8,11.7z M9.8,8.7
				c-0.8,0-1.5,0.6-1.5,1.4c0,0.8,0.6,1.5,1.4,1.6c0.4,0,0.8-0.1,1.1-0.4s0.5-0.6,0.5-1l0.1-1.2l1.2,0.1c0.4,0,0.8-0.1,1.1-0.4
				c0.3-0.3,0.5-0.6,0.5-1S14,6.9,13.8,6.6c-0.3-0.3-0.6-0.5-1-0.5l0,0c-0.4,0-0.8,0.1-1.1,0.4c-0.3,0.3-0.5,0.6-0.5,1l-0.1,1.2
				L9.8,8.7C9.9,8.7,9.8,8.7,9.8,8.7z M9.8,11.4C9.8,11.4,9.8,11.4,9.8,11.4c-0.7,0-1.2-0.6-1.2-1.2c0-0.3,0.2-0.6,0.4-0.8
				C9.3,9.1,9.6,9,9.9,9l1.2,0.1L11,10.3h0h0c0,0.3-0.2,0.6-0.4,0.8C10.4,11.3,10.1,11.4,9.8,11.4z M9.8,9C9.5,9,9.3,9.1,9.1,9.3
				c-0.2,0.2-0.4,0.5-0.4,0.8c0,0.6,0.5,1.2,1.1,1.2c0.3,0,0.6-0.1,0.8-0.3c0.2-0.2,0.4-0.5,0.4-0.8L11,9.1L9.8,9C9.9,9,9.8,9,9.8,9
				z M12.6,8.8C12.6,8.8,12.6,8.8,12.6,8.8l-1.2-0.1l0.1-1.2c0-0.3,0.2-0.6,0.4-0.8c0.2-0.2,0.5-0.3,0.9-0.3c0.7,0,1.2,0.6,1.1,1.2
				l0,0c0,0.3-0.2,0.6-0.4,0.8C13.2,8.7,12.9,8.8,12.6,8.8z M11.4,8.7l1.1,0.1c0.3,0,0.6-0.1,0.8-0.3c0.2-0.2,0.4-0.5,0.4-0.8
				c0-0.6-0.5-1.2-1.1-1.2c-0.3,0-0.6,0.1-0.8,0.3s-0.4,0.5-0.4,0.8L11.4,8.7z"/>
		</g>
		<g class="st9">
			<path class="st7" d="M33.2,5.8l-3.4-1.3c-0.4-0.1-0.8-0.1-1.1,0.1l-0.2,0.2c-0.1,0.1-0.1,0.2,0,0.2c0,0,0,0,0.1,0
				c0.1,0,0.1,0,0.2,0L29,4.9c0.2-0.1,0.5-0.2,0.7-0.1L30.2,5l-0.8,2.2c-0.2,0.4-0.7,0.6-1.3,0.5c-0.1,0-0.2,0-0.2,0.1
				s0,0.2,0.1,0.2c0.7,0.3,1.5,0,1.7-0.6l0.8-2.2l0.8,0.3l-1,2.7c-0.1,0.3,0.1,0.8,0.5,0.9c0.4,0.2,0.9,0,1-0.4c0-0.1,0-0.2-0.1-0.2
				c-0.1,0-0.2,0-0.2,0.1c-0.1,0.2-0.3,0.3-0.5,0.2c-0.2-0.1-0.3-0.3-0.3-0.5l1-2.7l1.4,0.5c0.1,0,0.2,0,0.2-0.1
				C33.3,5.9,33.3,5.8,33.2,5.8z"/>
			<path class="st7" d="M31.2,9.1c-0.1,0-0.2,0-0.3-0.1c-0.2-0.1-0.4-0.2-0.5-0.4c-0.1-0.2-0.1-0.4-0.1-0.6l1-2.7l-0.8-0.3l-0.8,2.2
				c-0.1,0.3-0.4,0.5-0.7,0.6c-0.3,0.1-0.7,0.1-1.1,0c-0.1,0-0.1-0.1-0.1-0.1c0,0,0-0.1,0-0.1s0.1-0.1,0.1-0.1c0,0,0.1,0,0.2,0
				c0.5,0.2,1.1,0,1.2-0.4L30.2,5l-0.5-0.2c-0.2-0.1-0.5-0.1-0.7,0.1l-0.2,0.2c-0.1,0-0.1,0.1-0.2,0c0,0-0.1,0-0.1,0
				c0,0-0.1-0.1-0.1-0.1c0,0,0-0.1,0.1-0.1l0.2-0.2c0.3-0.2,0.7-0.3,1.1-0.1l3.4,1.3c0.1,0,0.2,0.1,0.1,0.2c0,0.1-0.1,0.1-0.3,0.1
				l-1.3-0.5l-1,2.7c0,0.1,0,0.2,0,0.3c0.1,0.1,0.1,0.2,0.2,0.2c0.1,0,0.2,0,0.3,0c0.1,0,0.2-0.1,0.2-0.2c0,0,0.1-0.1,0.1-0.1
				c0,0,0.1,0,0.2,0s0.1,0.1,0.1,0.1c0,0,0,0.1,0,0.1c-0.1,0.2-0.2,0.3-0.4,0.4C31.4,9.1,31.3,9.1,31.2,9.1z M30.6,5.1l0.8,0.3
				l-1,2.7c-0.1,0.2,0,0.3,0.1,0.5s0.3,0.3,0.5,0.4c0.2,0.1,0.4,0.1,0.6,0c0.2-0.1,0.3-0.2,0.4-0.4c0,0,0-0.1,0-0.1
				c0,0-0.1-0.1-0.1-0.1c0,0-0.1,0-0.1,0c0,0-0.1,0-0.1,0.1c0,0.1-0.1,0.2-0.2,0.2c-0.1,0-0.2,0-0.3,0c-0.1,0-0.2-0.1-0.3-0.2
				c-0.1-0.1-0.1-0.2,0-0.3l1-2.7L33.1,6c0.1,0,0.2,0,0.2-0.1c0-0.1,0-0.2-0.1-0.2l-3.4-1.3c-0.4-0.1-0.8-0.1-1.1,0.1l-0.2,0.2
				c0,0,0,0.1,0,0.1c0,0,0,0.1,0.1,0.1c0,0,0,0,0.1,0c0.1,0,0.1,0,0.2,0L29,4.9c0.2-0.2,0.5-0.2,0.7-0.1L30.3,5l-0.8,2.3
				c-0.2,0.5-0.7,0.7-1.3,0.5c0,0-0.1,0-0.1,0c0,0-0.1,0-0.1,0.1c0,0,0,0.1,0,0.1C28,7.9,28,7.9,28,8c0.3,0.1,0.7,0.1,1,0
				c0.3-0.1,0.6-0.3,0.7-0.6L30.6,5.1z"/>
		</g>
		<g class="st10">
			<path class="st7" d="M34,12.8c0,0,0-0.1,0-0.1l0.6-1.7l-0.4-0.3c0,0,0-0.1,0-0.2c0-0.1,0.1-0.1,0.2-0.1l0.4,0.3c0,0,0,0.1,0,0.1
				l-0.5,1.4l2.6-2.3c0,0,0.1-0.1,0.1,0l2.4,1.6c0,0,0,0.1,0,0.2c0,0.1-0.1,0.1-0.2,0.1l-2.3-1.6l-2.8,2.5C34,12.8,34,12.8,34,12.8
				L34,12.8z"/>
			<path class="st7" d="M34,12.8C34,12.8,34,12.8,34,12.8L34,12.8c-0.1,0-0.1-0.1-0.1-0.2l0.6-1.7l-0.4-0.3c-0.1,0-0.1-0.1,0-0.2
				c0.1-0.1,0.1-0.1,0.2-0.1l0.4,0.3c0,0,0.1,0.1,0,0.2l-0.5,1.3l2.5-2.3c0.1,0,0.1-0.1,0.2,0l2.4,1.6c0,0,0,0.1,0,0.1s0,0.1,0,0.1
				c-0.1,0.1-0.1,0.1-0.2,0.1l-2.3-1.6l-2.8,2.5C34.1,12.8,34,12.8,34,12.8z M34,12.7c0,0,0.1,0,0.1,0l2.8-2.5l2.3,1.6
				c0,0,0.1,0,0.1-0.1c0,0,0-0.1,0-0.1c0,0,0,0,0-0.1L37,9.9c0,0-0.1,0-0.1,0l-2.6,2.4l0.6-1.5c0,0,0-0.1,0-0.1l-0.4-0.3
				c0,0-0.1,0-0.1,0.1c0,0.1,0,0.1,0,0.1l0.4,0.3L34,12.6C33.9,12.7,33.9,12.7,34,12.7L34,12.7z"/>
		</g>
		<g class="st10">
			<path class="st7" d="M38.1,19.5l-1-2.8c0-0.1,0-0.1,0-0.1c0,0,0.1,0,0.2,0l2,1l1-2c0-0.1,0.1-0.1,0.1-0.1c0.1,0,0.1,0,0.1,0.1
				l1,2.8c0,0.1,0,0.2-0.1,0.2l-0.5,0.2c-0.1,0-0.2,0-0.2-0.1c0-0.1,0-0.2,0.1-0.2l0.4-0.1l-0.8-2.4l-0.9,1.8c0,0,0,0.1-0.1,0.1
				c0,0-0.1,0-0.1,0l-1.8-0.9l0.8,2.4l0.4-0.1c0.1,0,0.2,0,0.2,0.1c0,0.1,0,0.2-0.1,0.2l-0.6,0.2C38.2,19.6,38.2,19.5,38.1,19.5z"/>
			<path class="st7" d="M38.3,19.6C38.2,19.6,38.2,19.6,38.3,19.6c-0.1,0-0.1-0.1-0.1-0.1l-1-2.8c0-0.1,0-0.1,0-0.2
				c0.1,0,0.1-0.1,0.2,0l1.9,1l1-1.9c0-0.1,0.1-0.1,0.2-0.1c0.1,0,0.1,0,0.1,0.1l1,2.8c0,0,0,0.1,0,0.1c0,0-0.1,0.1-0.1,0.1
				l-0.5,0.2c0,0-0.1,0-0.1,0c0,0-0.1-0.1-0.1-0.1c0-0.1,0-0.2,0.1-0.2l0.4-0.1L40.4,16l-0.9,1.7c0,0-0.1,0.1-0.1,0.1
				c0,0-0.1,0-0.1,0l-1.7-0.9l0.8,2.3l0.4-0.1c0.1,0,0.2,0,0.2,0.1c0,0.1,0,0.2-0.1,0.2L38.3,19.6C38.3,19.6,38.3,19.6,38.3,19.6z
				 M37.3,16.5C37.3,16.5,37.2,16.5,37.3,16.5c-0.1,0.1-0.1,0.1-0.1,0.2l1,2.8c0,0,0,0.1,0.1,0.1c0,0,0.1,0,0.1,0l0.6-0.2
				c0.1,0,0.1-0.1,0.1-0.1c0-0.1-0.1-0.1-0.1-0.1l-0.5,0.2l-0.8-2.4l1.8,0.9c0,0,0.1,0,0.1,0c0,0,0.1,0,0.1-0.1l0.9-1.8l0.8,2.4
				l-0.4,0.1c-0.1,0-0.1,0.1-0.1,0.1c0,0,0,0.1,0.1,0.1c0,0,0.1,0,0.1,0l0.5-0.2c0,0,0.1,0,0.1-0.1c0,0,0-0.1,0-0.1l-1-2.8
				c0,0-0.1-0.1-0.1-0.1c0,0-0.1,0-0.1,0.1l-1,2L37.3,16.5C37.3,16.5,37.3,16.5,37.3,16.5z"/>
		</g>
		<g>
			<g>
				<path class="st11" d="M19.1,5.8c-0.2,0.3-0.5,0.6-0.7,0.9c-0.2,0.3-0.5,0.7-0.7,1.1c-1.3,2.2-2.5,4.9-3.6,7.9
					c-0.9,2.7-1.7,5.6-2.3,8.5h19.7c-0.6-3.4-1.5-6.8-2.7-9.8C27.6,11,26,7.9,24.3,5.8c-1.2-1.5-2-2.3-2.6-2.3
					C21.1,3.5,20.4,4.2,19.1,5.8C19.1,5.8,19.1,5.8,19.1,5.8L19.1,5.8z M17.4,5.5c0.2-0.4,0.5-0.7,0.7-1c0,0,0,0,0-0.1
					c1.5-1.9,2.5-2.9,3.6-2.9c1.1,0,2.1,1,3.6,2.9c1.8,2.3,3.5,5.5,4.8,9.1c1.4,3.6,2.4,7.5,3,11.5c0,0.1,0,0.2,0,0.2
					c0,0.5-0.3,1-0.7,1H11v0c-0.1,0-0.1,0-0.2,0c-0.4-0.1-0.6-0.6-0.6-1.2c0.6-3.4,1.5-6.9,2.6-10c1.1-3.1,2.4-6,3.8-8.3
					C16.8,6.3,17.1,5.9,17.4,5.5L17.4,5.5z"/>
			</g>
			<g>
				<path class="st12" d="M18.6,5.1c-0.5,0.7-1,1.4-1.5,2.2c-2.8,4.6-5,11.4-6.2,18h21.5c-1.2-7.8-4.3-15.8-7.7-20.1
					C22.1,1.7,21.3,1.6,18.6,5.1L18.6,5.1z"/>
			</g>
			<g>
				<path class="st13" d="M11.9,25.2h19.7c-1.1-7.1-3.9-14.4-7-18.4c-2.5-3.2-3.2-3.2-5.7,0c-0.5,0.6-0.9,1.3-1.4,2
					C15,13,13,19.2,11.9,25.2L11.9,25.2z"/>
			</g>
			<g>
				<path class="st11" d="M25.9,13c-0.7-0.3-2.2-0.5-3.8-0.5c-1.8-0.1-3.7-0.1-4.5,0.1c-0.4,0.7-0.7,1.4-0.9,2.2
					c-0.2,0.8-0.4,1.8-0.5,2.7l0,0c0,0,0,0,0,0c0.2,0.2,0.5,0.3,0.8,0.4c0.9,0.3,3.1,0.7,5.2,1c1.9,0.2,3.6,0.3,4.4,0.2
					c0.3-0.1,0.5-0.1,0.6-0.3c0.1-0.1,0.1-0.3,0.1-0.5c0.1-0.7,0-1.5-0.3-2.4C26.8,15,26.4,14,25.9,13L25.9,13z M22.2,10.5
					c1.9,0.1,3.7,0.4,4.5,0.8l0,0c0.1,0.1,0.2,0.2,0.3,0.3c0.7,1.3,1.1,2.4,1.4,3.5c0.3,1.2,0.4,2.2,0.3,3.2
					c-0.1,0.7-0.2,1.3-0.6,1.7c-0.3,0.4-0.8,0.7-1.4,0.8C25.9,21.2,24,21,22,20.8c-2.2-0.3-4.4-0.7-5.4-1.1c-0.5-0.2-1-0.4-1.3-0.7
					c-0.5-0.5-0.7-1-0.6-1.8c0.2-1.1,0.3-2.1,0.6-3.1c0.3-1,0.7-2,1.3-2.9c0.1-0.2,0.2-0.3,0.4-0.3C17.7,10.5,20,10.4,22.2,10.5
					L22.2,10.5z M16.2,17.5L16.2,17.5C16.1,17.6,16.2,17.5,16.2,17.5L16.2,17.5L16.2,17.5z"/>
			</g>
			<g>
				<path class="st11" d="M19,18.6l0.1,0l0,0l0.2,0l-0.1-0.3L19,18.6L19,18.6z M19,20.1c-0.4-0.1-0.9-0.2-1.2-0.2
					c-0.1,0-0.2-0.1-0.3-0.2c-0.2-0.3-0.3-0.8-0.1-1.1l1.5-2.2l0,0c0-0.1,0.1-0.1,0.2-0.2c0.3-0.2,0.6-0.1,0.8,0.3l1.1,2.6
					c0.1,0.1,0.1,0.3,0.1,0.5c0,0.4-0.3,0.7-0.7,0.7C19.9,20.3,19.5,20.2,19,20.1L19,20.1L19,20.1z"/>
			</g>
			<g>
				<path class="st12" d="M17.9,19.1c0.7,0.2,1.7,0.3,2.6,0.5l-1.1-2.6L17.9,19.1L17.9,19.1z"/>
			</g>
			<g>
				<path class="st11" d="M23.4,19.2c0.1,0,0.3,0,0.4,0l0.1,0l-0.3-0.5L23.4,19.2L23.4,19.2z M23.7,20.8c-0.4,0-0.9-0.1-1.4-0.1
					c-0.1,0-0.2-0.1-0.3-0.1c-0.3-0.2-0.3-0.7-0.1-1.1l1.3-2.4c0-0.1,0.1-0.2,0.2-0.2c0.3-0.2,0.6-0.2,0.8,0.2l1.4,2.7l0,0
					c0.1,0.1,0.1,0.3,0.1,0.5c0,0.4-0.3,0.8-0.6,0.8C24.6,20.8,24.1,20.8,23.7,20.8L23.7,20.8z"/>
			</g>
			<g>
				<path class="st12" d="M22.3,19.9c0.9,0.1,2,0.2,2.7,0.2l-1.4-2.7L22.3,19.9L22.3,19.9z"/>
			</g>
			<g>
				<path class="st11" d="M25.2,12.6L25.2,12.6c-0.3-0.1-0.5-0.1-0.8-0.1l0.3,0.7L25.2,12.6L25.2,12.6z M25.3,11.1
					c0.5,0.1,1,0.2,1.3,0.4l0,0c0.1,0,0.1,0.1,0.2,0.2c0.2,0.3,0.2,0.8,0,1.1L25.1,15c0,0.1-0.1,0.1-0.2,0.2
					c-0.3,0.2-0.6,0.1-0.8-0.3L22.9,12c-0.1-0.1-0.1-0.3-0.1-0.5c0-0.4,0.3-0.7,0.6-0.7C24.1,10.9,24.8,11,25.3,11.1L25.3,11.1z"/>
			</g>
			<g>
				<path class="st12" d="M26.3,12.2c-0.6-0.3-1.7-0.5-3-0.6l1.3,2.9L26.3,12.2L26.3,12.2z"/>
			</g>
			<g>
				<path class="st11" d="M19.1,12.3c-0.3,0-0.5,0-0.7,0l0.4,0.6L19.1,12.3L19.1,12.3z M18.3,10.8c0.5,0,1.2-0.1,1.9-0.1
					c0.1,0,0.3,0,0.4,0.1c0.3,0.2,0.3,0.7,0.1,1.1l-1.4,2.7l0,0c0,0-0.1,0.1-0.1,0.1C19,15,18.6,15,18.4,14.6l-1.6-2.4
					c-0.1-0.1-0.1-0.2-0.2-0.3c-0.1-0.4,0.1-0.8,0.4-1C17.3,10.9,17.7,10.8,18.3,10.8L18.3,10.8z"/>
			</g>
			<g>
				<path class="st12" d="M20.3,11.5c-1.4,0-2.6,0.1-3,0.3l1.6,2.4L20.3,11.5L20.3,11.5z"/>
			</g>
			<g>
				<path class="st14" d="M23.4,7.2C23.2,7,23.1,6.9,23,6.6c-0.2-0.5-0.1-0.7,0-0.7c0.7-0.1,1,1.3,0.5,1.3L23.4,7.2z"/>
			</g>
			<g>
				<path class="st14" d="M20,7c0-0.2,0-0.4,0.2-0.6c0.3-0.5,0.4-0.5,0.6-0.5c0.6,0.4-0.3,1.6-0.7,1.2L20,7z"/>
			</g>
			<g>
				<g>
					<path class="st11" d="M22.2,12.3c-0.2,0-0.5,0-0.7,0l0.3,0.6L22.2,12.3L22.2,12.3z M21.5,10.8c0.5,0,1.1,0,1.8,0.1
						c0.1,0,0.2,0.1,0.3,0.2c0.2,0.3,0.2,0.7,0,1l-1.6,2.4l0,0c0,0-0.1,0.1-0.1,0.1c-0.3,0.2-0.6,0.2-0.8-0.1L20,12.1
						c-0.1-0.1-0.1-0.2-0.1-0.3c-0.1-0.4,0.2-0.8,0.5-0.9C20.6,10.9,21,10.8,21.5,10.8L21.5,10.8z"/>
				</g>
				<g>
					<path class="st12" d="M23.3,11.7c-1.3-0.1-2.4-0.1-2.9,0l1.3,2.4L23.3,11.7L23.3,11.7z"/>
				</g>
			</g>
		</g>
		<g>
			<g>
				<path class="st1" d="M35.6,22.7c0-0.9-0.6-1.5-0.9-1.9c-0.3-0.4-0.4-0.5-0.4-0.5c-0.5,1.1-1.8,1.9-2.7,1.9
					c-2.8,0.1-2.8-2.6-3.1-1.9c-0.4,1.1-1.9,1.9-2.8,1.9c-2.3-0.1-2.9-2.3-3-1.9c-0.1,1.2-2.1,2.2-3.1,1.9c-2.8-0.8-2.1-2.8-2.6-1.9
					c-0.9,1.8-2,1.9-2.9,1.9c-2.7-0.1-2.3-2.7-2.8-1.8c-0.4,0.8-0.7,1-1.1,1.2c-0.7,0.6-1,0.1-1,1.1c0,7.3,5.9,13.2,13.2,13.2
					S35.6,30,35.6,22.7z"/>
			</g>
			<g>
				<g>
					<defs>
						<circle id="SVGID_1_" cx="22.4" cy="22.6" r="13.2"/>
					</defs>
					<clipPath id="SVGID_00000152982478393808869840000013453544760382602134_">
						<use xlink:href="#SVGID_1_"  style="overflow:visible;"/>
					</clipPath>
					<g style="clip-path:url(#SVGID_00000152982478393808869840000013453544760382602134_);">
						<g>
							<g>
								<path class="st16" d="M48.5,22.6c-1.2,0-2.3-0.6-2.9-1.6c-0.6,1-1.7,1.6-2.9,1.6s-2.3-0.6-2.9-1.6c-0.6,1-1.7,1.6-2.9,1.6
									s-2.3-0.6-2.9-1.6c-0.6,1-1.7,1.6-2.9,1.6c-1.2,0-2.3-0.6-2.9-1.6c-0.6,1-1.7,1.6-2.9,1.6s-2.3-0.6-2.9-1.6
									c-0.6,1-1.7,1.6-2.9,1.6c-1.2,0-2.3-0.6-2.9-1.6c-0.6,1-1.7,1.6-2.9,1.6s-2.3-0.6-2.9-1.6c-0.6,1-1.7,1.6-2.9,1.6
									s-2.3-0.6-2.9-1.6c-0.6,1-1.7,1.6-2.9,1.6S0.6,21.9,0,20.9c-0.6,1-1.7,1.6-2.9,1.6v-0.4c1.2,0,2.2-0.7,2.7-1.8
									c0-0.1,0.1-0.1,0.2-0.1s0.2,0.1,0.2,0.1c0.5,1.1,1.5,1.8,2.7,1.8s2.2-0.7,2.7-1.8c0-0.1,0.1-0.1,0.2-0.1s0.2,0.1,0.2,0.1
									c0.4,1.1,1.5,1.8,2.7,1.8s2.2-0.7,2.7-1.8c0-0.1,0.1-0.1,0.2-0.1s0.2,0.1,0.2,0.1c0.4,1.1,1.5,1.8,2.7,1.8s2.2-0.7,2.7-1.8
									c0-0.1,0.1-0.1,0.2-0.1c0.1,0,0.2,0.1,0.2,0.1c0.5,1.1,1.5,1.8,2.7,1.8c1.2,0,2.2-0.7,2.7-1.8c0-0.1,0.1-0.1,0.2-0.1
									c0.1,0,0.2,0.1,0.2,0.1c0.5,1.1,1.5,1.8,2.7,1.8s2.2-0.7,2.7-1.8c0-0.1,0.1-0.1,0.2-0.1c0.1,0,0.2,0.1,0.2,0.1
									c0.4,1.1,1.5,1.8,2.7,1.8c1.2,0,2.2-0.7,2.7-1.8c0-0.1,0.1-0.1,0.2-0.1c0.1,0,0.2,0.1,0.2,0.1c0.4,1.1,1.5,1.8,2.7,1.8
									c1.2,0,2.2-0.7,2.7-1.8c0-0.1,0.1-0.1,0.2-0.1c0.1,0,0.2,0.1,0.2,0.1c0.5,1.1,1.5,1.8,2.7,1.8c1.2,0,2.2-0.7,2.7-1.8
									c0-0.1,0.1-0.1,0.2-0.1c0.1,0,0.2,0.1,0.2,0.1c0.5,1.1,1.5,1.8,2.7,1.8C48.5,22.2,48.5,22.6,48.5,22.6z"/>
							</g>
						</g>
					</g>
				</g>
				<g>
					<defs>
						<circle id="SVGID_00000145029625039995196620000000719909803193800835_" cx="22.4" cy="22.6" r="13.2"/>
					</defs>
					<clipPath id="SVGID_00000020390688401237056100000017141153237069064865_">
						<use xlink:href="#SVGID_00000145029625039995196620000000719909803193800835_"  style="overflow:visible;"/>
					</clipPath>
					<g style="clip-path:url(#SVGID_00000020390688401237056100000017141153237069064865_);">
						<g>
							<g>
								<g>
									<path class="st16" d="M42.6,25.6c-1.2,0-2.3-0.6-2.9-1.6c-0.6,1-1.7,1.6-2.9,1.6s-2.3-0.6-2.9-1.6c-0.6,1-1.7,1.6-2.9,1.6
										c-1.2,0-2.3-0.6-2.9-1.6c-0.6,1-1.7,1.6-2.9,1.6c-1.2,0-2.3-0.6-2.9-1.6c-0.6,1-1.7,1.6-2.9,1.6s-2.3-0.6-2.9-1.6
										c-0.6,1-1.7,1.6-2.9,1.6s-2.3-0.6-2.9-1.6c-0.6,1-1.7,1.6-2.9,1.6s-2.3-0.6-2.9-1.6c-0.6,1-1.7,1.6-2.9,1.6v-0.4
										c1.2,0,2.2-0.7,2.7-1.8c0-0.1,0.1-0.1,0.2-0.1s0.2,0.1,0.2,0.1c0.4,1.1,1.5,1.8,2.7,1.8s2.2-0.7,2.7-1.8
										c0-0.1,0.1-0.1,0.2-0.1c0.1,0,0.2,0.1,0.2,0.1c0.4,1.1,1.5,1.8,2.7,1.8s2.2-0.7,2.7-1.8c0-0.1,0.1-0.1,0.2-0.1
										c0.1,0,0.2,0.1,0.2,0.1c0.5,1.1,1.5,1.8,2.7,1.8c1.2,0,2.2-0.7,2.7-1.8c0-0.1,0.1-0.1,0.2-0.1c0.1,0,0.2,0.1,0.2,0.1
										c0.5,1.1,1.5,1.8,2.7,1.8c1.2,0,2.2-0.7,2.7-1.8c0-0.1,0.1-0.1,0.2-0.1c0.1,0,0.2,0.1,0.2,0.1c0.4,1.1,1.5,1.8,2.7,1.8
										c1.2,0,2.2-0.7,2.7-1.8c0-0.1,0.1-0.1,0.2-0.1c0.1,0,0.2,0.1,0.2,0.1c0.4,1.1,1.5,1.8,2.7,1.8c1.2,0,2.2-0.7,2.7-1.8
										c0-0.1,0.1-0.1,0.2-0.1c0.1,0,0.2,0.1,0.2,0.1c0.5,1.1,1.5,1.8,2.7,1.8V25.6z"/>
								</g>
							</g>
						</g>
						<g>
							<g>
								<g>
									<path class="st16" d="M36.9,28.3c-1.2,0-2.3-0.6-2.9-1.6c-0.6,1-1.7,1.6-2.9,1.6c-1.2,0-2.3-0.6-2.9-1.6
										c-0.6,1-1.7,1.6-2.9,1.6c-1.2,0-2.3-0.6-2.9-1.6c-0.6,1-1.7,1.6-2.9,1.6s-2.3-0.6-2.9-1.6c-0.6,1-1.7,1.6-2.9,1.6
										s-2.3-0.6-2.9-1.6c-0.6,1-1.7,1.6-2.9,1.6v-0.4c1.2,0,2.2-0.7,2.7-1.8c0-0.1,0.1-0.1,0.2-0.1l0,0c0.1,0,0.2,0.1,0.2,0.1
										c0.4,1.1,1.5,1.8,2.7,1.8s2.2-0.7,2.7-1.8c0-0.1,0.1-0.1,0.2-0.1c0.1,0,0.2,0.1,0.2,0.1c0.5,1.1,1.5,1.8,2.7,1.8
										c1.2,0,2.2-0.7,2.7-1.8c0-0.1,0.1-0.1,0.2-0.1l0,0c0.1,0,0.2,0.1,0.2,0.1c0.5,1.1,1.5,1.8,2.7,1.8c1.2,0,2.2-0.7,2.7-1.8
										c0-0.1,0.1-0.1,0.2-0.1l0,0c0.1,0,0.2,0.1,0.2,0.1c0.4,1.1,1.5,1.8,2.7,1.8c1.2,0,2.2-0.7,2.7-1.8c0-0.1,0.1-0.1,0.2-0.1
										l0,0c0.1,0,0.2,0.1,0.2,0.1c0.4,1.1,1.5,1.8,2.7,1.8V28.3z"/>
								</g>
							</g>
						</g>
					</g>
				</g>
			</g>
		</g>
		<g class="st18">
			<path class="st7" d="M14.2,31.4h0.5v0.1l0,0H15l0,0v-0.1l-0.8-0.3v-0.5l0.3-0.3h0.7l0.3,0.3v0.3H15v-0.1l0,0h-0.3l0,0v0.1
				l0.8,0.3v0.5L15.2,32h-0.7l-0.3-0.3V31.4z"/>
			<path class="st7" d="M17.1,30.5v1.4l0.1,0.1V32h-0.7v-0.1l0.1-0.1v-0.5h-0.4v0.5l0.1,0.1V32h-0.7v-0.1l0.1-0.1v-1.4l-0.1-0.1
				v-0.1h0.7v0.1l-0.1,0.1v0.5h0.4v-0.5l-0.1-0.1v-0.1h0.7L17.1,30.5L17.1,30.5z"/>
			<path class="st7" d="M19.1,31.9L19.1,31.9L18.4,32v-0.1l0.1-0.1l0-0.1H18l0,0.1l0.1,0.1V32h-0.7v-0.1l0.1-0.1l0.3-1.4l-0.1-0.1
				v-0.1h1v0.1l-0.1,0.1l0.3,1.4L19.1,31.9z M18.3,31.3l-0.1-0.5l-0.1,0.5H18.3z"/>
			<path class="st7" d="M20.7,31.9L20.7,31.9L20.1,32l-0.2-0.5h-0.1v0.3l0.1,0.1V32h-0.7v-0.1l0.1-0.1v-1.4l-0.1-0.1v-0.1h1.1
				l0.3,0.3v0.6l-0.2,0.2L20.7,31.9L20.7,31.9z M19.8,31.1h0.3l0,0v-0.3l0,0h-0.3V31.1z"/>
			<path class="st7" d="M22.3,31.9L22.3,31.9L21.8,32l-0.4-0.7v0.5l0.1,0.1V32h-0.7v-0.1l0.1-0.1v-1.4l-0.1-0.1v-0.1h0.7v0.1
				l-0.1,0.1V31l0.3-0.7h0.5v0.1l-0.1,0.1l-0.3,0.7l0.3,0.7L22.3,31.9z"/>
			<path class="st7" d="M25.8,30.5v1.4l0.1,0.1V32h-0.7v-0.1l0.1-0.1v-0.5L25,31.8h-0.2l-0.3-0.5v0.5l0.1,0.1V32h-0.7v-0.1l0.1-0.1
				v-1.4l-0.1-0.1v-0.1h0.6l0.3,0.7l0.3-0.7h0.6v0.1L25.8,30.5z"/>
			<path class="st7" d="M27.7,31.9L27.7,31.9L27,32v-0.1l0.1-0.1l0-0.1h-0.4l0,0.1l0.1,0.1V32H26v-0.1l0.1-0.1l0.3-1.4l-0.1-0.1
				v-0.1h1v0.1l-0.1,0.1l0.3,1.4L27.7,31.9z M27,31.3l-0.1-0.5l-0.1,0.5H27z"/>
			<path class="st7" d="M29.1,30.8L29.1,30.8l-0.2-0.1h-0.3v1.1l0.1,0.1V32H28v-0.1l0.1-0.1v-1.1h-0.3l-0.1,0.1h-0.1l0-0.5H29
				L29.1,30.8z"/>
			<path class="st7" d="M30.7,30.5v1.4l0.1,0.1V32h-0.7v-0.1l0.1-0.1v-0.5h-0.4v0.5l0.1,0.1V32h-0.7v-0.1l0.1-0.1v-1.4l-0.1-0.1
				v-0.1h0.7v0.1l-0.1,0.1v0.5h0.4v-0.5l-0.1-0.1v-0.1h0.7L30.7,30.5L30.7,30.5z"/>
		</g>
	</g>
	<g>
		<path class="st19" d="M50.4,15.3c0-0.5,0.1-0.8,0.3-0.9c0.2-0.1,0.5-0.2,0.8-0.2h8.3v1.2h-4.9v15.7h5.8v1.2h-9.2
			c-0.3,0-0.6-0.1-0.8-0.2c-0.2-0.1-0.3-0.4-0.3-0.9V15.3z M61.9,34.2V15.9c0-0.4,0-0.7-0.1-0.9c-0.1-0.2-0.2-0.4-0.4-0.7
			C61.2,14,61,13.7,61,13.5c0-0.2,0.1-0.3,0.4-0.3h3.4c0.3,0,0.6,0.1,0.8,0.2c0.2,0.1,0.3,0.4,0.3,0.9v7.4h2.1v-5.9
			c0-0.4,0-0.7-0.1-0.9s-0.2-0.4-0.3-0.7c-0.2-0.3-0.3-0.6-0.3-0.8c0-0.2,0.1-0.3,0.4-0.3H71c0.3,0,0.6,0.1,0.8,0.2
			c0.2,0.1,0.3,0.4,0.3,0.9v18.7c0,0.5-0.1,0.8-0.3,0.9c-0.2,0.1-0.5,0.2-0.8,0.2h-3V23H66v10c0,0.5-0.1,0.8-0.3,0.9
			c-0.2,0.1-0.5,0.2-0.8,0.2C64.8,34.2,61.9,34.2,61.9,34.2z"/>
		<path class="st19" d="M79.8,15.4v-0.1c0-0.3,0-0.5,0-0.6c0-0.1-0.1-0.3-0.2-0.5c-0.2-0.3-0.3-0.6-0.3-0.8c0-0.2,0.1-0.3,0.4-0.3
			h3.9c0.3,0,0.6,0.1,0.8,0.2s0.3,0.4,0.3,0.9v1.2h4.5v1.2h-4.5V18c0,1.5-0.1,2.8-0.3,4c-0.2,1.2-0.4,2.3-0.8,3.3
			c0.5,0.1,1.1,0.2,1.7,0.4c0.6,0.2,1.2,0.5,1.7,0.9c0.5,0.4,1,0.8,1.4,1.4c0.4,0.5,0.7,1.1,0.8,1.8c0,0.4,0,0.8-0.1,1.2
			c-0.1,0.4-0.3,0.7-0.6,0.9c-0.2,0.2-0.5,0.4-0.8,0.5c-0.3,0.1-0.6,0.2-0.9,0.2s-0.6-0.1-0.9-0.2c-0.3-0.1-0.6-0.3-0.8-0.5
			c-0.3-0.3-0.5-0.6-0.6-1c-0.1-0.4-0.2-0.8-0.1-1.2c0-0.3,0-0.7,0-1c0-0.3-0.2-0.6-0.5-0.9c-0.1-0.1-0.3-0.2-0.4-0.4
			c-0.2-0.1-0.4-0.3-0.6-0.4c-0.9,1.6-2,2.9-3.5,3.8c-1.5,1-3.2,1.7-5.3,2.3l-0.3-0.5c0.6-0.3,1.1-0.7,1.7-1c0.5-0.4,1-0.8,1.5-1.4
			c0.5-0.5,0.9-1.2,1.2-1.9s0.7-1.6,0.9-2.6c0.2-1,0.4-2.2,0.6-3.5c0.1-1.3,0.2-2.9,0.2-4.6v-1h-4.7v-1.2
			C75.1,15.4,79.8,15.4,79.8,15.4z M91,34.2V15.9c0-0.4,0-0.7-0.1-0.9s-0.2-0.4-0.4-0.7c-0.2-0.3-0.3-0.6-0.3-0.8s0.1-0.3,0.4-0.3
			h4.2c0.3,0,0.6,0.1,0.8,0.2s0.3,0.4,0.3,0.9v18.7c0,0.5-0.1,0.8-0.3,0.9c-0.2,0.1-0.5,0.2-0.8,0.2C94.8,34.2,91,34.2,91,34.2z"/>
		<path class="st19" d="M109.3,15.2c0,0.8-0.1,1.6-0.2,2.3c-0.2,0.7-0.4,1.4-0.7,2.1c0.5,0,0.9,0.1,1.4,0.3c0.5,0.1,0.9,0.3,1.4,0.6
			c0.5,0.3,0.9,0.7,1.4,1.2s0.7,1,0.8,1.6c0.1,0.4,0.1,0.8,0,1.1c-0.1,0.4-0.3,0.7-0.5,0.9c-0.2,0.2-0.4,0.4-0.7,0.5
			c-0.3,0.1-0.5,0.2-0.8,0.2c-0.3,0-0.6,0-0.9-0.1c-0.3-0.1-0.5-0.2-0.8-0.4c-0.3-0.2-0.5-0.5-0.7-0.9c-0.1-0.4-0.2-0.7-0.2-1.1
			c0-0.3,0-0.6,0-0.9c-0.1-0.3-0.2-0.6-0.5-0.8c-0.2-0.2-0.5-0.3-0.8-0.5c-0.9,1.3-2.1,2.3-3.5,3.3c-1.4,0.9-3.1,1.6-5.1,2.2
			l-0.5-0.6c1-0.6,2-1.3,2.8-2.2c0.8-0.9,1.5-2,2.1-3.3c0.1-0.3,0.3-0.6,0.4-1c0.1-0.3,0.2-0.7,0.3-1c0.1-0.4,0.2-0.8,0.3-1.2
			c0.1-0.4,0.1-0.9,0.2-1.4c0-0.4,0-0.7-0.1-0.9c-0.1-0.2-0.2-0.4-0.4-0.7c-0.2-0.3-0.3-0.6-0.3-0.8s0.1-0.3,0.4-0.3h4.2
			c0.3,0,0.6,0.1,0.8,0.2c0.2,0.1,0.3,0.4,0.3,0.9V15.2z M120,30.8c0,0.7-0.2,1.4-0.7,1.8s-1.1,0.8-2,1.1c-0.8,0.3-1.7,0.4-2.8,0.5
			c-1,0.1-2.1,0.1-3.2,0.1h-0.7c-1.1,0-2.2-0.1-3.2-0.1c-1.1-0.1-2-0.3-2.9-0.6c-0.8-0.3-1.5-0.6-2.1-1.1c-0.5-0.5-0.8-1.1-0.8-1.8
			v-0.4c0-0.7,0.3-1.3,0.8-1.8c0.5-0.5,1.2-0.8,2.1-1.1c0.9-0.3,1.8-0.4,2.9-0.5c1.1-0.1,2.1-0.1,3.2-0.1h0.7c1.1,0,2.1,0.1,3.2,0.1
			c1,0.1,1.9,0.3,2.8,0.5c0.8,0.3,1.5,0.6,2,1.1c0.5,0.5,0.7,1.1,0.7,1.8L120,30.8L120,30.8z M106.5,30.8c0,0.6,0.1,1,0.4,1.4
			s0.6,0.6,1.1,0.8c0.4,0.2,0.9,0.3,1.3,0.4c0.5,0.1,0.9,0.1,1.2,0.1h0.7c0.4,0,0.8,0,1.2-0.1c0.4-0.1,0.8-0.2,1.2-0.4
			c0.4-0.2,0.7-0.5,1-0.8c0.3-0.3,0.4-0.8,0.4-1.4v-0.4c0-0.6-0.1-1-0.4-1.4c-0.3-0.3-0.6-0.6-1-0.8c-0.4-0.2-0.8-0.3-1.2-0.3
			c-0.4-0.1-0.8-0.1-1.2-0.1h-0.7c-0.4,0-0.8,0-1.2,0.1c-0.5,0.1-0.9,0.2-1.3,0.3s-0.8,0.4-1.1,0.8c-0.3,0.3-0.4,0.8-0.4,1.4
			L106.5,30.8L106.5,30.8z M114.9,26.2V15.9c0-0.4,0-0.7-0.1-0.9c-0.1-0.2-0.2-0.4-0.4-0.7c-0.2-0.3-0.3-0.6-0.3-0.8
			s0.1-0.3,0.4-0.3h4.2c0.3,0,0.6,0.1,0.8,0.2s0.3,0.4,0.3,0.9v5h3v1.2h-3v4.5c0,0.5-0.1,0.8-0.3,0.9c-0.2,0.1-0.5,0.2-0.8,0.2
			H114.9z"/>
		<path class="st19" d="M139.8,34.2V23.9h-2.2V24c0,1.5-0.1,2.9-0.4,4c-0.3,1.2-0.7,2.1-1.2,2.9s-1.3,1.4-2.2,1.8s-2,0.6-3.2,0.6
			h-0.2c-1.2,0-2.3-0.2-3.2-0.7s-1.6-1-2.2-1.8c-0.6-0.8-1-1.8-1.2-2.9c-0.3-1.2-0.4-2.5-0.4-4v-0.7c0-3,0.6-5.4,1.7-7
			c1.1-1.6,2.9-2.5,5.3-2.6h0.3c2.3,0,4,0.8,5.2,2.4c1.1,1.6,1.8,3.8,1.8,6.6h2.2v-6.8c0-0.4,0-0.7-0.1-0.9
			c-0.1-0.2-0.2-0.4-0.4-0.7c-0.2-0.3-0.3-0.6-0.3-0.8c0-0.2,0.1-0.3,0.4-0.3h4.2c0.3,0,0.6,0.1,0.8,0.2c0.2,0.1,0.3,0.4,0.3,0.9
			v18.7c0,0.5-0.1,0.8-0.3,0.9c-0.2,0.1-0.5,0.2-0.8,0.2C143.6,34.2,139.8,34.2,139.8,34.2z M130.6,32.3c0.4,0,0.7-0.2,1-0.5
			c0.3-0.3,0.5-0.8,0.7-1.5s0.3-1.5,0.4-2.6c0.1-1.1,0.1-2.3,0.1-3.8v-0.7c0-2.9-0.2-5.1-0.5-6.5c-0.3-1.4-0.9-2-1.6-2h-0.2
			c-0.8,0-1.3,0.7-1.6,2s-0.5,3.5-0.5,6.5V24c0,1.5,0,2.8,0.1,3.8c0.1,1.1,0.2,1.9,0.4,2.6c0.2,0.7,0.4,1.2,0.7,1.5
			c0.3,0.3,0.6,0.5,1,0.5C130.4,32.3,130.6,32.3,130.6,32.3z"/>
		<path class="st19" d="M170.6,26.1v1.2h-8.5v5.7c0,0.5-0.1,0.8-0.3,0.9c-0.2,0.1-0.5,0.2-0.8,0.2h-3.8v-6.9h-8.4v-1.2H170.6z
			 M165.2,18.4c0.6,0.2,1.3,0.5,1.9,0.8s1.1,0.8,1.6,1.4c0.1,0.2,0.2,0.3,0.3,0.6c0.1,0.2,0.2,0.4,0.2,0.6c0.1,0.2,0.1,0.4,0.1,0.6
			c0,0.2,0,0.3-0.1,0.5c-0.1,0.3-0.2,0.5-0.4,0.7c-0.2,0.2-0.4,0.4-0.7,0.5s-0.6,0.2-0.9,0.2c-0.3,0-0.7-0.1-1.1-0.2
			c-0.4-0.2-0.7-0.4-0.9-0.8c-0.2-0.4-0.3-0.8-0.4-1.4c0-0.1-0.1-0.3-0.2-0.4c-0.1-0.2-0.2-0.3-0.3-0.5s-0.3-0.3-0.5-0.5
			c-0.2-0.2-0.4-0.3-0.7-0.4c-0.3-0.1-0.7-0.2-1.2-0.4c-0.5-0.1-1-0.2-1.4-0.3c-0.4,0.5-1,1-1.6,1.5c-0.6,0.5-1.3,0.9-2.1,1.2
			c-1,0.5-2.2,0.9-3.4,1.3c-1.2,0.3-2.6,0.6-4.1,0.8l-0.4-0.7c1.1-0.3,2.2-0.7,3.1-1.1c0.9-0.4,1.7-0.9,2.4-1.5
			c0.6-0.5,1.2-1.1,1.6-1.9c0.4-0.7,0.7-1.5,0.7-2.2V16c0-0.3,0-0.6,0-0.7c0-0.2-0.1-0.4-0.2-0.6c-0.2-0.3-0.3-0.6-0.3-0.8
			c0-0.2,0.1-0.3,0.4-0.3h4c0.3,0,0.6,0.1,0.8,0.2c0.2,0.1,0.3,0.4,0.3,0.9V16c0,0.3,0,0.6-0.1,0.9c-0.1,0.3-0.2,0.6-0.3,0.9
			c0.6,0,1.2,0.1,1.8,0.2C163.9,18.1,164.6,18.2,165.2,18.4z"/>
		<path class="st19" d="M172.6,20.4c0-0.9,0.2-1.7,0.6-2.4s1.1-1.3,2-1.8h-3.5v-1.1h5.3c0-0.2,0-0.3-0.1-0.5s-0.1-0.3-0.2-0.5
			c-0.2-0.3-0.3-0.6-0.3-0.8c0-0.2,0.1-0.3,0.4-0.3h3.9c0.3,0,0.6,0.1,0.8,0.2c0.2,0.1,0.3,0.4,0.3,0.9v0.9h5.4v1.1h-3.7
			c0.9,0.5,1.6,1.1,2,1.8s0.6,1.5,0.6,2.4V21c0,0.7-0.1,1.3-0.4,1.9s-0.7,1.1-1.2,1.6c-0.5,0.5-1.2,0.8-2.1,1.1
			c-0.8,0.3-1.8,0.4-3,0.4h-0.3c-1.1,0-2.1-0.1-3-0.4c-0.8-0.3-1.5-0.6-2.1-1.1c-0.5-0.5-1-1-1.2-1.6c-0.3-0.6-0.4-1.2-0.4-1.9V20.4
			z M188.1,34.1v-5.3h-12v-1.2h15.8c0.3,0,0.6,0.1,0.8,0.2c0.2,0.1,0.3,0.4,0.3,0.9V33c0,0.5-0.1,0.8-0.3,0.9
			c-0.2,0.1-0.5,0.2-0.8,0.2H188.1z M177.3,21c0,1.4,0.2,2.4,0.5,3.1c0.3,0.7,0.8,1.1,1.5,1.1h0.3c0.7,0,1.2-0.4,1.5-1.1
			c0.3-0.7,0.5-1.8,0.5-3.1v-0.6c0-1.3-0.1-2.3-0.4-3.1c-0.3-0.7-0.8-1.1-1.5-1.1h-0.4c-0.7,0-1.2,0.4-1.5,1.1
			c-0.3,0.7-0.5,1.8-0.5,3.1L177.3,21L177.3,21z M188.2,26.3V15.9c0-0.4,0-0.7-0.1-0.9s-0.2-0.4-0.4-0.7c-0.2-0.3-0.3-0.6-0.3-0.8
			c0-0.2,0.1-0.3,0.4-0.3h4.2c0.3,0,0.6,0.1,0.8,0.2c0.2,0.1,0.3,0.4,0.3,0.9v4.5h2.9v1.2H193v5.1c0,0.5-0.1,0.8-0.3,0.9
			c-0.2,0.1-0.5,0.2-0.8,0.2C191.9,26.3,188.2,26.3,188.2,26.3z"/>
	</g>
	<g>
		<g>
			<path class="st20" d="M201,23.1c0-6.5,3.6-10.3,8.9-10.3s8.9,3.8,8.9,10.3s-3.6,10.5-8.9,10.5S201,29.5,201,23.1z M214.8,23.1
				c0-4.3-1.9-6.9-4.9-6.9s-4.9,2.6-4.9,6.9c0,4.3,1.9,7,4.9,7S214.8,27.3,214.8,23.1z"/>
			<path class="st20" d="M222.1,13.2h4.1l5.8,10.6l2,4.3h0.1c-0.2-2.1-0.5-4.7-0.5-7v-8h3.8v20h-4.1l-5.8-10.7l-2-4.3h-0.1
				c0.2,2.2,0.5,4.7,0.5,7v8h-3.8L222.1,13.2L222.1,13.2z"/>
			<path class="st20" d="M241.7,13.2h4v16.6h8.1v3.3h-12.1L241.7,13.2L241.7,13.2z"/>
			<path class="st20" d="M256.6,13.2h4v20h-4V13.2z"/>
			<path class="st20" d="M264.8,13.2h4.1l5.8,10.6l2,4.3h0.1c-0.2-2.1-0.5-4.7-0.5-7v-8h3.8v20h-4l-5.8-10.7l-2-4.3h-0.1
				c0.2,2.2,0.5,4.7,0.5,7v8h-3.8V13.2z"/>
			<path class="st20" d="M284.4,13.2h12.3v3.3h-8.3v4.6h7v3.3h-7v5.3h8.6v3.3h-12.6L284.4,13.2L284.4,13.2z"/>
		</g>
	</g>
</g>
</svg>
